<?xml version="1.0" encoding="UTF-8"?>
<svg xmlns="http://www.w3.org/2000/svg" xmlns:xlink="http://www.w3.org/1999/xlink" width="18pt" height="18pt" viewBox="0 0 18 18" version="1.1">
<g id="surface1">
<path style=" stroke:none;fill-rule:nonzero;fill:rgb(27.45098%,34.117647%,41.960784%);fill-opacity:1;" d="M 0.628906 0 L 17.371094 0 C 17.71875 0 18 0.28125 18 0.628906 L 18 17.371094 C 18 17.71875 17.71875 18 17.371094 18 L 0.628906 18 C 0.28125 18 0 17.71875 0 17.371094 L 0 0.628906 C 0 0.28125 0.28125 0 0.628906 0 Z M 0.628906 0 "/>
<path style=" stroke:none;fill-rule:nonzero;fill:rgb(100%,100%,100%);fill-opacity:1;" d="M 17.429688 10.03125 L 15.925781 10.03125 C 15.84375 10.03125 15.738281 10.113281 15.691406 10.183594 L 15.257812 10.847656 C 15.210938 10.917969 15.171875 11.046875 15.15625 11.128906 C 15.082031 11.511719 14.703125 12.488281 12.765625 12.488281 C 10.347656 12.488281 10.5625 8.90625 10.640625 8.125 C 10.648438 8.042969 10.613281 7.921875 10.566406 7.855469 L 8.9375 5.628906 C 8.890625 5.5625 8.78125 5.453125 8.699219 5.453125 L 7.792969 5.453125 C 7.710938 5.453125 7.601562 5.457031 7.550781 5.390625 L 6.53125 4.132812 C 6.480469 4.066406 6.371094 4.023438 6.289062 4.023438 L 5.082031 4.023438 C 5 4.023438 4.851562 4.128906 4.851562 4.210938 L 4.851562 4.511719 C 4.851562 4.597656 4.867188 4.59375 4.78125 4.59375 L 3.878906 4.59375 C 3.796875 4.59375 3.675781 4.585938 3.609375 4.535156 L 2.339844 3.53125 C 2.273438 3.480469 2.15625 3.449219 2.070312 3.449219 L 0.566406 3.449219 C 0.484375 3.449219 0.433594 3.519531 0.457031 3.601562 L 1.28125 6.679688 C 1.300781 6.761719 1.25 6.882812 1.167969 6.882812 L 0.566406 6.882812 C 0.484375 6.882812 0.464844 6.875 0.523438 6.933594 L 1.515625 7.898438 C 1.574219 7.957031 1.65625 8.035156 1.699219 8.105469 L 3.351562 10.859375 C 3.394531 10.929688 3.488281 10.957031 3.5625 10.921875 L 3.894531 10.753906 C 3.96875 10.71875 4.003906 10.625 3.972656 10.546875 L 1.980469 5.648438 C 1.945312 5.574219 1.988281 5.453125 2.070312 5.453125 L 2.375 5.453125 C 2.457031 5.453125 2.5625 5.566406 2.605469 5.636719 L 5.453125 9.929688 C 5.496094 10 5.554688 10.136719 5.578125 10.214844 L 6.097656 12.039062 C 6.121094 12.121094 6.191406 12.226562 6.261719 12.273438 L 9.027344 14.210938 C 9.09375 14.261719 9.214844 14.285156 9.296875 14.269531 L 11.976562 13.710938 C 12.058594 13.691406 12.179688 13.714844 12.253906 13.753906 L 13.539062 14.523438 C 13.609375 14.566406 13.714844 14.554688 13.773438 14.496094 L 14.164062 14.125 C 14.222656 14.066406 14.335938 14.035156 14.417969 14.035156 L 15.324219 14.035156 C 15.40625 14.035156 15.445312 13.957031 15.40625 13.882812 L 15.242188 13.539062 C 15.203125 13.464844 15.21875 13.355469 15.28125 13.292969 L 17.175781 11.398438 C 17.234375 11.339844 17.296875 11.222656 17.316406 11.144531 L 17.546875 10.203125 C 17.566406 10.125 17.515625 10.03125 17.429688 10.03125 Z M 17.429688 10.03125 "/>
</g>
</svg>
