<svg xmlns="http://www.w3.org/2000/svg" xmlns:xlink="http://www.w3.org/1999/xlink" viewBox="0 0 445.97 410.06"><defs><clipPath id="a" transform="translate(-26.73 -54.94)"><path d="M289.34,290.73,301,294.58c1.23.32,3.65-1.73,3.54-3L301.05,251a3.87,3.87,0,0,0-2.89-3.42l-12.87-2.8c-1.23-.31-4.32,1.16-4.21,2.42l5.36,40.11A3.87,3.87,0,0,0,289.34,290.73Z" fill="none"/></clipPath></defs><path d="M236,56.1C360,45.05,360.25,115,416.13,180.23S484,275,463,350.13,370.89,484.2,283.06,450.82s-138.14-1.32-193.54-31-76-86.91-35.42-154.41S83.1,69.72,236,56.1Z" transform="translate(-26.73 -54.94)" fill="#7e57c2"/><path d="M236,56.1C360,45.05,360.25,115,416.13,180.23S484,275,463,350.13,370.89,484.2,283.06,450.82s-138.14-1.32-193.54-31-76-86.91-35.42-154.41S83.1,69.72,236,56.1Z" transform="translate(-26.73 -54.94)" fill="#fff" opacity="0.7" style="isolation:isolate"/><path d="M198,422a18,18,0,1,0-5.13,17.73,7.45,7.45,0,0,1-.49-.87h0a17.08,17.08,0,0,1-20.13,2.61l-.42-.23a17.07,17.07,0,1,1,25.59-12.16,6.65,6.65,0,0,1,1-.11A18,18,0,0,0,198,422Z" transform="translate(-26.73 -54.94)" fill="#263238"/><path d="M192.37,438.89a23.52,23.52,0,0,1-6.14,4.21,8.86,8.86,0,0,1-1.34.47,8.31,8.31,0,0,1-1.41.24c-5,.52-11.69-2-11.69-2l.44-.33a22.4,22.4,0,0,1,4-2.51,3.14,3.14,0,0,0,2-4.22,16.48,16.48,0,0,1-5.74-9.38c-.62-2.74-2-8.05,3.57-10.26h0a13.39,13.39,0,0,1,1.36-.43c.48-.12,1-.21,1.39-.28h0c6-.76,7.29,4.57,8.07,7.26a16.5,16.5,0,0,1-.52,11c.62,2.74,2.76,3,3.79,2.73a6.94,6.94,0,0,1,1.51-.05,7.17,7.17,0,0,0,.2,2.31,7.39,7.39,0,0,0,.44,1.22Z" transform="translate(-26.73 -54.94)" fill="#263238"/><path d="M198.64,443.36a7.45,7.45,0,1,1,7.22-9.3h0a7.47,7.47,0,0,1-5.41,9.07A7.36,7.36,0,0,1,198.64,443.36Zm0-13.9a6.35,6.35,0,1,0,6.15,4.73A6.3,6.3,0,0,0,198.64,429.46Z" transform="translate(-26.73 -54.94)" fill="#263238"/><path d="M198.21,435.61,197,432.75l1.63-.42.29,3.1,2.35-2.05.9,1.41-2.83,1.27,2.66,1.57-1.06,1.3-2.08-2.32-.71,3-1.54-.62,1.57-2.66-3.1.25.11-1.67Z" transform="translate(-26.73 -54.94)" fill="#263238"/><path d="M186.06,414.8c-5.13-5.62-8.93-1.45-8.93-1.45s-5.33-1.83-7.13,5.57,3.44,13.21-1,15.66c0,0,5.64,2.4,13.66.34s11.81-6.87,11.81-6.87C189.41,428,191.2,420.41,186.06,414.8Z" transform="translate(-26.73 -54.94)" fill="#263238"/><path d="M470.74,250.58a12.41,12.41,0,0,0-23.11-8.45,13.18,13.18,0,0,0-1.07,2.93A12.4,12.4,0,0,0,462,259.76a3.86,3.86,0,0,1,0-.68h0a11.74,11.74,0,0,1-6,.19,11.61,11.61,0,0,1-7.13-4.92,2.75,2.75,0,0,1-.19-.28,11.71,11.71,0,0,1-1.63-4.26,12,12,0,0,1,.13-4.58,11.72,11.72,0,0,1,14-8.8,12,12,0,0,1,2.78,1,11.72,11.72,0,0,1,4.12,17.27,5.4,5.4,0,0,1,.67.25A12.39,12.39,0,0,0,470.74,250.58Z" transform="translate(-26.73 -54.94)" fill="#263238"/><path d="M462,259.08a16,16,0,0,1-5.06.64,6.69,6.69,0,0,1-1-.14,5.9,5.9,0,0,1-.93-.29c-3.2-1.25-6.5-4.9-6.5-4.9l.38-.06a14.76,14.76,0,0,1,3.25-.26,2.16,2.16,0,0,0,2.52-1.73l0-.22a11.31,11.31,0,0,1-.56-7.52c.49-1.86,1.29-5.54,5.4-5.13h0c.34,0,.67.09,1,.16s.64.17.93.27h0c3.88,1.41,3,5.08,2.64,7a11.38,11.38,0,0,1-3.76,6.54,2.14,2.14,0,0,0,1.19,2.77l.26.08a4.4,4.4,0,0,1,.93.44,4.85,4.85,0,0,0-.6,1.47,4.42,4.42,0,0,0-.11.89Z" transform="translate(-26.73 -54.94)" fill="#263238"/><path d="M464.42,263.77a5.11,5.11,0,1,1,6.64-7.28,5.1,5.1,0,0,1,.66,3.88h0a5.1,5.1,0,0,1-6.08,3.85h0A5.17,5.17,0,0,1,464.42,263.77Zm4.38-8.46a4.91,4.91,0,0,0-1.05-.39,4.43,4.43,0,1,0,2.76,2h0a4.38,4.38,0,0,0-1.71-1.57Z" transform="translate(-26.73 -54.94)" fill="#263238"/><path d="M466.59,258.91l.15-2.13,1.12.25-.8,2,2.08-.51.11,1.14-2.13-.12,1.13,1.8-1.05.45-.54-2.07-1.39,1.63-.74-.86,1.79-1.13-2-.82.6-1Z" transform="translate(-26.73 -54.94)" fill="#263238"/><path d="M465.72,242.41c-1.36-5-5-3.69-5-3.69s-2.67-2.78-6.09,1.16-2.05,9.13-5.53,9.24a17.21,17.21,0,0,0,17.58,4C463.61,251.53,467.09,247.45,465.72,242.41Z" transform="translate(-26.73 -54.94)" fill="#263238"/><path d="M335.13,80.31a18.08,18.08,0,1,0-25.22,13.5,18.52,18.52,0,0,0,4.37,1.32,18,18,0,0,0,8.92-.73,8.26,8.26,0,0,1-.1-1h0a17.06,17.06,0,0,1-19.45-5.81c-.1-.12-.2-.25-.29-.38a17.24,17.24,0,0,1-2.74-6.08,17.41,17.41,0,0,1-.18-6.67,17.08,17.08,0,0,1,19.7-14h0a16.46,16.46,0,0,1,4.12,1.24,17.11,17.11,0,0,1,8.62,22.6,16.67,16.67,0,0,1-1.19,2.2,7.26,7.26,0,0,1,1,.32A18.07,18.07,0,0,0,335.13,80.31Z" transform="translate(-26.73 -54.94)" fill="#263238"/><path d="M323.1,93.4a23.4,23.4,0,0,1-7.32,1.35,8.39,8.39,0,0,1-1.41-.12,9.43,9.43,0,0,1-1.39-.35c-4.76-1.55-9.86-6.6-9.86-6.6l.54-.12a22.64,22.64,0,0,1,4.71-.65,3.11,3.11,0,0,0,3.55-3A16.48,16.48,0,0,1,310.5,73c.55-2.75,1.42-8.18,7.43-7.92h0a13.41,13.41,0,0,1,1.42.16,12.55,12.55,0,0,1,1.38.31h0c5.76,1.73,4.8,7.14,4.42,9.91a16.55,16.55,0,0,1-5,9.83c-.55,2.76,1.3,3.86,2.35,4a5.88,5.88,0,0,1,1.4.57,6.79,6.79,0,0,0-.76,2.19,7,7,0,0,0-.09,1.29S323.11,93.39,323.1,93.4Z" transform="translate(-26.73 -54.94)" fill="#263238"/><path d="M327,100a7.45,7.45,0,1,1,10.39-5.56h0a7.46,7.46,0,0,1-8.59,6.1A8.11,8.11,0,0,1,327,100Zm5.68-12.69a6.53,6.53,0,0,0-1.56-.47,6.43,6.43,0,1,0,1.56.47Z" transform="translate(-26.73 -54.94)" fill="#263238"/><path d="M329.77,92.78V89.66l1.65.28-1,3,3-.92.25,1.66h-3.11l1.79,2.52-1.49.75-1-3L328,96.43l-1.16-1.2,2.52-1.79-2.93-1,.78-1.47Z" transform="translate(-26.73 -54.94)" fill="#263238"/><rect x="140.91" y="6.04" width="32.42" height="21.14" rx="1.9" fill="none" stroke="#263238" stroke-linecap="round" stroke-linejoin="round"/><path d="M166.54,66.27,182,73a3.83,3.83,0,0,0,4.12-.69L198.52,61" transform="translate(-26.73 -54.94)" fill="none" stroke="#263238" stroke-linecap="round" stroke-linejoin="round"/><path d="M171.89,79.94l6.8-5.45" transform="translate(-26.73 -54.94)" fill="none" stroke="#263238" stroke-linecap="round" stroke-linejoin="round"/><path d="M197.87,75.64l-8.2-3" transform="translate(-26.73 -54.94)" fill="none" stroke="#263238" stroke-linecap="round" stroke-linejoin="round"/><rect x="255.85" y="353.45" width="32.42" height="21.14" rx="1.9" fill="none" stroke="#263238" stroke-linecap="round" stroke-linejoin="round"/><path d="M288.82,403.86l7.59,15A3.84,3.84,0,0,0,300,421l16.82-.82" transform="translate(-26.73 -54.94)" fill="none" stroke="#263238" stroke-linecap="round" stroke-linejoin="round"/><path d="M284.22,417.81l8.72.13" transform="translate(-26.73 -54.94)" fill="none" stroke="#263238" stroke-linecap="round" stroke-linejoin="round"/><path d="M307,431.06l-4.42-7.52" transform="translate(-26.73 -54.94)" fill="none" stroke="#263238" stroke-linecap="round" stroke-linejoin="round"/><rect x="2.38" y="242.46" width="32.42" height="21.14" rx="1.9" fill="none" stroke="#263238" stroke-linecap="round" stroke-linejoin="round"/><path d="M27.23,308.58,44,310a3.85,3.85,0,0,0,3.67-2l8.08-14.77" transform="translate(-26.73 -54.94)" fill="none" stroke="#263238" stroke-linecap="round" stroke-linejoin="round"/><path d="M36.73,319.79l4.66-7.37" transform="translate(-26.73 -54.94)" fill="none" stroke="#263238" stroke-linecap="round" stroke-linejoin="round"/><path d="M59.91,307.29l-8.72-.15" transform="translate(-26.73 -54.94)" fill="none" stroke="#263238" stroke-linecap="round" stroke-linejoin="round"/><path d="M74.55,113.87V395.92a2.87,2.87,0,0,0,2.86,2.87h171.5a2.86,2.86,0,0,0,2.87-2.87v-282a6.56,6.56,0,0,0-6.54-6.54H204.39a3.67,3.67,0,0,0-3.52,2.63,3.65,3.65,0,0,1-1.32,1.9,3.72,3.72,0,0,1-2.2.73H129a3.67,3.67,0,0,1-3.52-2.63,3.61,3.61,0,0,0-1.33-1.9,3.72,3.72,0,0,0-2.2-.73H81.09A6.56,6.56,0,0,0,74.55,113.87Z" transform="translate(-26.73 -54.94)" fill="#263238" stroke="#263238" stroke-linecap="round" stroke-linejoin="round"/><rect x="47.82" y="75.2" width="177.23" height="35.3" fill="#7e57c2" stroke="#263238" stroke-linecap="round" stroke-linejoin="round"/><rect x="47.82" y="110.5" width="177.23" height="196.95" fill="#fff" stroke="#263238" stroke-linecap="round" stroke-linejoin="round"/><rect x="132.71" y="317.14" width="12.13" height="12.13" rx="3.3" fill="#fff" stroke="#263238" stroke-linecap="round" stroke-linejoin="round"/><line x1="66.65" y1="87.84" x2="57.95" y2="87.84" fill="none" stroke="#263238" stroke-linecap="round" stroke-linejoin="round"/><line x1="66.65" y1="92.62" x2="57.95" y2="92.62" fill="none" stroke="#263238" stroke-linecap="round" stroke-linejoin="round"/><line x1="66.65" y1="97.4" x2="57.95" y2="97.4" fill="none" stroke="#263238" stroke-linecap="round" stroke-linejoin="round"/><path d="M147.32,185.48H118a2,2,0,0,1-2-2h0a2,2,0,0,1,2-2h29.28a2,2,0,0,1,2,2h0A2,2,0,0,1,147.32,185.48Z" transform="translate(-26.73 -54.94)" fill="#263238"/><path d="M218.79,190.39H117.12a1,1,0,0,1-1.06-1v0h0a1,1,0,0,1,1-1.05H218.79a1,1,0,0,1,1.05.95v.1h0a1,1,0,0,1-1,1.06Z" transform="translate(-26.73 -54.94)" fill="#263238"/><circle cx="72.18" cy="131.34" r="10.88" fill="#fff" stroke="#263238" stroke-linecap="round" stroke-linejoin="round"/><path d="M99.79,197.08h0c3.06-.45,6.7-3,6.7-3a17.28,17.28,0,0,0-3.13-1,1.93,1.93,0,0,1-1.87-2,1.79,1.79,0,0,1,0-.23,10.18,10.18,0,0,0,2-6.5c-.05-1.74,0-5.13-3.72-5.6H98c-3.69.47-3.66,3.86-3.72,5.6a10.18,10.18,0,0,0,2,6.5,1.93,1.93,0,0,1-1.62,2.2l-.23,0a17.18,17.18,0,0,0-3.12,1s3.63,2.55,6.69,3h0a5.14,5.14,0,0,0,.88.08h0A5.14,5.14,0,0,0,99.79,197.08Z" transform="translate(-26.73 -54.94)" fill="#263238"/><circle cx="81.61" cy="139.75" r="4.3" fill="#7e57c2" stroke="#263238" stroke-linecap="round" stroke-linejoin="round"/><path d="M108.12,194.44l-.3-1.91h1l-.3,1.91,1.72-.87.32,1-1.89.33,1.35,1.35-.83.61-.89-1.71-.89,1.71-.83-.61,1.35-1.35-1.9-.33.33-1Z" transform="translate(-26.73 -54.94)" fill="#263238"/><path d="M104,180.1c-2.21-4.15-5.13-2.24-5.13-2.24S96,176,93.78,180.1s0,8.45-3,9.23a15.46,15.46,0,0,0,16.26,0C104,188.55,106.25,184.25,104,180.1Z" transform="translate(-26.73 -54.94)" fill="#263238"/><rect x="74.13" y="67.33" width="1.98" height="4.04" fill="#fff"/><rect x="70.49" y="65.7" width="1.98" height="5.68" fill="#fff"/><rect x="66.85" y="64.06" width="1.98" height="7.31" fill="#fff"/><rect x="63.21" y="62.43" width="1.98" height="8.94" fill="#fff"/><rect x="200.07" y="63.25" width="13.04" height="7.31" rx="1.19" fill="#fff"/><path d="M223.27,119.72h1a1,1,0,0,1,1,1V123a1,1,0,0,1-1,1h-1v-4.28Z" transform="translate(-26.73 -54.94)" fill="#fff"/><path d="M239.68,142.8a4.39,4.39,0,1,1-6.21,0,4.4,4.4,0,0,1,6.21,0Z" transform="translate(-26.73 -54.94)" fill="none" stroke="#263238" stroke-linecap="round" stroke-linejoin="round"/><line x1="212.95" y1="94.07" x2="217.56" y2="98.68" fill="none" stroke="#263238" stroke-linecap="round" stroke-linejoin="round"/><rect x="125.74" y="84.69" width="24.33" height="15.87" rx="1.9" fill="#263238" stroke="#7e57c2" stroke-linecap="round" stroke-linejoin="round"/><path d="M152.47,141.53l10.6,6.89a2.91,2.91,0,0,0,3.13,0l10.6-6.89" transform="translate(-26.73 -54.94)" fill="#263238" stroke="#7e57c2" stroke-linecap="round" stroke-linejoin="round"/><path d="M154.75,152.32l5.71-3.21" transform="translate(-26.73 -54.94)" fill="#263238" stroke="#7e57c2" stroke-linecap="round" stroke-linejoin="round"/><path d="M174.52,152.32l-5.7-3.21" transform="translate(-26.73 -54.94)" fill="#263238" stroke="#7e57c2" stroke-linecap="round" stroke-linejoin="round"/><path d="M137.32,220.34H118a2,2,0,0,1-2-2h0a2,2,0,0,1,2-2h19.28a2,2,0,0,1,2,2h0A2,2,0,0,1,137.32,220.34Z" transform="translate(-26.73 -54.94)" fill="#263238"/><path d="M178.79,225.26H117.12a1.05,1.05,0,0,1-1.06-1.06h0a1.06,1.06,0,0,1,1.06-1h61.67a1,1,0,0,1,1.05,1v0h0A1.06,1.06,0,0,1,178.79,225.26Z" transform="translate(-26.73 -54.94)" fill="#263238"/><circle cx="72.18" cy="166.21" r="10.88" fill="#fff" stroke="#263238" stroke-linecap="round" stroke-linejoin="round"/><path d="M99.79,232h0c3.06-.45,6.7-3,6.7-3a17.28,17.28,0,0,0-3.13-1,1.93,1.93,0,0,1-1.87-2,1.79,1.79,0,0,1,0-.23,10.26,10.26,0,0,0,2-6.5c-.05-1.74,0-5.14-3.72-5.6h0a6.46,6.46,0,0,0-.88,0h0a6.46,6.46,0,0,0-.88,0h0c-3.69.46-3.66,3.86-3.72,5.6a10.26,10.26,0,0,0,2,6.5,1.93,1.93,0,0,1-1.62,2.2l-.23,0a17.18,17.18,0,0,0-3.12,1S95,231.5,98,232h0a5.14,5.14,0,0,0,.88.08h0a5.14,5.14,0,0,0,.88-.08Z" transform="translate(-26.73 -54.94)" fill="#263238"/><circle cx="81.61" cy="174.61" r="4.3" fill="#7e57c2" stroke="#263238" stroke-linecap="round" stroke-linejoin="round"/><path d="M108.12,229.31l-.3-1.91h1l-.3,1.91,1.72-.87.32,1-1.89.32,1.35,1.36-.83.61L108.3,230l-.89,1.71-.83-.61,1.35-1.36-1.9-.32.33-1Z" transform="translate(-26.73 -54.94)" fill="#263238"/><path d="M157.32,255.21H118a2,2,0,0,1-2-2h0a2,2,0,0,1,2-2h39.28a2,2,0,0,1,2,2h0A2,2,0,0,1,157.32,255.21Z" transform="translate(-26.73 -54.94)" fill="#263238"/><path d="M198.79,260.13H117.12a1.05,1.05,0,0,1-1.06-1.06h0a1,1,0,0,1,1-1.05h81.68a1,1,0,0,1,1.05,1v.1h0A1.06,1.06,0,0,1,198.79,260.13Z" transform="translate(-26.73 -54.94)" fill="#263238"/><circle cx="72.18" cy="201.08" r="10.88" fill="#fff" stroke="#263238" stroke-linecap="round" stroke-linejoin="round"/><path d="M99.79,266.82h0c3.06-.45,6.7-3,6.7-3a17.28,17.28,0,0,0-3.13-1,1.93,1.93,0,0,1-1.87-2,1.79,1.79,0,0,1,0-.23,10.26,10.26,0,0,0,2-6.5c-.05-1.74,0-5.14-3.72-5.6h0a6.46,6.46,0,0,0-.88,0h0a6.46,6.46,0,0,0-.88,0h0c-3.69.46-3.66,3.86-3.72,5.6a10.26,10.26,0,0,0,2,6.5,1.93,1.93,0,0,1-1.62,2.2l-.23,0a17.18,17.18,0,0,0-3.12,1s3.63,2.55,6.69,3h0a5.14,5.14,0,0,0,.88.08h0A5.14,5.14,0,0,0,99.79,266.82Z" transform="translate(-26.73 -54.94)" fill="#263238"/><path d="M98.91,247.81c-3.91,0-6.65,2.71-7.16,12.48a22.49,22.49,0,0,0,14.32,0C105.56,250.52,102.82,247.81,98.91,247.81Z" transform="translate(-26.73 -54.94)" fill="#263238"/><path d="M147.32,290.08H118a2,2,0,0,1-2-2h0a2,2,0,0,1,2-2h29.28a2,2,0,0,1,2,2h0A2,2,0,0,1,147.32,290.08Z" transform="translate(-26.73 -54.94)" fill="#263238"/><path d="M218.79,295H117.12a1,1,0,0,1-1.06-1h0a1.05,1.05,0,0,1,1.06-1.06H218.79a1.06,1.06,0,0,1,1.05,1.06h0a1,1,0,0,1-1,1.05Z" transform="translate(-26.73 -54.94)" fill="#263238"/><circle cx="72.18" cy="235.95" r="10.88" fill="#fff" stroke="#263238" stroke-linecap="round" stroke-linejoin="round"/><path d="M99.79,301.69h0c3.06-.45,6.7-3,6.7-3a17.28,17.28,0,0,0-3.13-1,1.93,1.93,0,0,1-1.87-2,1.79,1.79,0,0,1,0-.23,10.22,10.22,0,0,0,2-6.51c-.05-1.73,0-5.13-3.72-5.59h0a8.65,8.65,0,0,0-.88-.05h0a8.65,8.65,0,0,0-.88.05h0c-3.69.46-3.66,3.86-3.72,5.59a10.22,10.22,0,0,0,2,6.51,1.93,1.93,0,0,1-1.62,2.2l-.23,0a17.18,17.18,0,0,0-3.12,1s3.63,2.55,6.69,3h0a6.54,6.54,0,0,0,.88.08h0A6.54,6.54,0,0,0,99.79,301.69Z" transform="translate(-26.73 -54.94)" fill="#263238"/><circle cx="81.61" cy="244.35" r="4.3" fill="#7e57c2" stroke="#263238" stroke-linecap="round" stroke-linejoin="round"/><path d="M108.12,299l-.3-1.9h1l-.3,1.9,1.72-.86.32,1-1.89.32,1.35,1.35-.83.62-.89-1.71-.89,1.71-.83-.62,1.35-1.35-1.9-.32.33-1Z" transform="translate(-26.73 -54.94)" fill="#263238"/><path d="M127.32,325H118a2,2,0,0,1-2-2h0a2,2,0,0,1,2-2h9.28a2,2,0,0,1,2,2h0A2,2,0,0,1,127.32,325Z" transform="translate(-26.73 -54.94)" fill="#263238"/><path d="M208.79,329.86H117.12a1,1,0,0,1-1.06-1h0a1.05,1.05,0,0,1,1.06-1.06h91.67a1.06,1.06,0,0,1,1.05,1.06h0a1,1,0,0,1-1,1.05Z" transform="translate(-26.73 -54.94)" fill="#263238"/><circle cx="72.18" cy="270.82" r="10.88" fill="#fff" stroke="#263238" stroke-linecap="round" stroke-linejoin="round"/><path d="M99.79,336.56h0c3.06-.46,6.7-3,6.7-3a17.28,17.28,0,0,0-3.13-1,1.94,1.94,0,0,1-1.87-2,1.49,1.49,0,0,1,0-.21,10.22,10.22,0,0,0,2-6.51c-.05-1.73,0-5.13-3.72-5.59h0a8.65,8.65,0,0,0-.88-.05h0a8.65,8.65,0,0,0-.88.05h0c-3.69.46-3.66,3.86-3.72,5.59a10.22,10.22,0,0,0,2,6.51,1.93,1.93,0,0,1-1.64,2.2l-.21,0a17.18,17.18,0,0,0-3.12,1s3.63,2.54,6.69,3h0a6.52,6.52,0,0,0,.88.07h0A6.52,6.52,0,0,0,99.79,336.56Z" transform="translate(-26.73 -54.94)" fill="#263238"/><path d="M147.32,359.82H118a2,2,0,0,1-2-2h0a2,2,0,0,1,2-2h29.28a2,2,0,0,1,2,2h0A2,2,0,0,1,147.32,359.82Z" transform="translate(-26.73 -54.94)" fill="#263238"/><path d="M109.79,360.62a10.6,10.6,0,0,1-.15,1.78H88.18a10.6,10.6,0,0,1-.15-1.78,10.88,10.88,0,0,1,21.76,0Z" transform="translate(-26.73 -54.94)" fill="#fff" stroke="#263238" stroke-linecap="round" stroke-linejoin="round"/><path d="M103.51,358.69a10.16,10.16,0,0,1-.55,3.71h-8.1a10.16,10.16,0,0,1-.55-3.71c.06-1.73,0-5.13,3.72-5.59h0a7.4,7.4,0,0,1,1.76,0h0C103.49,353.56,103.46,357,103.51,358.69Z" transform="translate(-26.73 -54.94)" fill="#263238"/><circle cx="195.82" cy="287.77" r="14.37" fill="#7e57c2" stroke="#263238" stroke-linecap="round" stroke-linejoin="round"/><rect x="195.42" y="280.66" width="2.73" height="12.28" fill="#263238"/><polygon points="190.61 291.05 189.55 294.04 192.54 292.98 190.61 291.05" fill="#263238"/><path d="M278.08,133.19h49.79a6.5,6.5,0,0,1,6.5,6.5h0v29.66a6.5,6.5,0,0,1-6.49,6.51h-6.22l5.74,10.88-13.26-10.88H278.08a6.5,6.5,0,0,1-6.5-6.5h0V139.69a6.5,6.5,0,0,1,6.5-6.5Z" transform="translate(-26.73 -54.94)" fill="none" stroke="#263238" stroke-linecap="round" stroke-linejoin="round"/><g opacity="0.5"><rect x="253.2" y="88.23" width="46.1" height="2" rx="0.82" fill="#263238"/><rect x="253.2" y="94.98" width="46.1" height="2" rx="0.82" fill="#263238"/><rect x="253.2" y="101.72" width="46.1" height="2" rx="0.82" fill="#263238"/><rect x="274.21" y="108.46" width="25.09" height="2" rx="0.82" fill="#263238"/></g><path d="M340.22,326.29v.06c-.48,1-7.4,15.79-15.83,30-2.21,3.73-4.52,7.41-6.85,10.8-5.07,7.38-10.21,13.35-14.48,15.21-14,6.09-6-41.63-6-41.63a103.56,103.56,0,0,0,13.09-19.8c1.67-3.3,3.61-7.13,5.64-11,1.56-2.95,3.16-5.9,4.73-8.63,3.55-6.2,6.86-11.2,8.87-12.18,2.2-1.08,5.24,10.07,7.54,20.44C338.8,318.2,340.22,326.29,340.22,326.29Z" transform="translate(-26.73 -54.94)" fill="#fff" stroke="#263238" stroke-linecap="round" stroke-linejoin="round"/><path d="M340.22,326.29v.06c-.48,1-7.4,15.79-15.83,30,2.54-22.71.16-37.9.16-37.9-5.41-8.18-8.8-8.49-8.8-8.49,1.56-2.95,3.16-5.9,4.73-8.63l7.16-6.69,9.25,14.95C338.8,318.2,340.22,326.29,340.22,326.29Z" transform="translate(-26.73 -54.94)" fill="#263238"/><path d="M404.74,173.57c12.64,9.15,23.7,41.47,19.48,62.47s17.49,27,17.41,60.15c0,9.24-28.62,46.8-61.85,26.76s-42.46-29.9-39.3-50,3.3-33.32-2.7-50.19S381.81,157,404.74,173.57Z" transform="translate(-26.73 -54.94)" fill="#263238"/><path d="M453.36,315.32l-7.06,4.79a148.24,148.24,0,0,1-9.55,33.75c-8.89,20.87-16.76,33.31-19.51,37.42h0c-.68,1-1.05,1.5-1.05,1.5l7.38,27.67S374.32,471.66,320,464.27l3.63-29,4.89-39,1.59-12.67s-.67-9.09-1.74-20.28c-.73-7.71-1.65-16.42-2.69-23.84a6.7,6.7,0,0,1-.05-1c.08-4.68,3.75-14.52,3.75-14.52-3.1-4.91-6-9.43-8.39-13-3.16-4.79-5.25-7.87-5.25-7.87s11-13.52,11.62-15.06c3.48-9.11,15.64-7.41,15.64-7.41a6.79,6.79,0,0,1,3.28-1.76c5.78-1.45,22.21,10.07,31.18,10.16s53-11.77,53-11.77l4.48,1.61s6.07-.72,10.81,8.06C448,291.17,453.36,315.32,453.36,315.32Z" transform="translate(-26.73 -54.94)" fill="#7e57c2"/><path d="M374.3,429.36s-30.6,10.33-50.72,5.92l4.89-39C332.83,400.61,358.11,425,374.3,429.36Z" transform="translate(-26.73 -54.94)" fill-opacity="0.7" opacity="0.3" style="isolation:isolate"/><path d="M329.33,324c-3.1-4.91-6-9.43-8.39-13,2.08-5,5.17-9.63,9.45-9.36C330.39,301.64,327.4,314.92,329.33,324Z" transform="translate(-26.73 -54.94)" fill-opacity="0.7" opacity="0.3" style="isolation:isolate"/><path d="M428.57,315.32c-5.49,1.82-17.93,7.33-17.93,7.33l-2.3-2.67,8.85-12.68s-6.23,2.52-8.85,5.69-3.31,10.24-3.41,10.21-2.29-7.44-2.29-7.44a58.41,58.41,0,0,0-1.46,9.39c-.29,3.35,3.39,8.8,6.58,12.85l-5.56,29.59L381,354.7l-10-6.06a25.1,25.1,0,0,1-2.53-1.54c-1.16-.94-1.92-2.16-3.27-3a17.14,17.14,0,0,0-4.94-1.85A44.07,44.07,0,0,0,341,342.1c-2.68.58-5.43,1.41-8.09.78s-4.94-2.76-7.28-4.36a6.7,6.7,0,0,0,.05,1c1,7.42,2,16.13,2.69,23.84h1.14a8.12,8.12,0,0,1,2.2.18c1.53.42,4.57,7.88,5.62,9.06,7.67,8.56,20.5,23,29.82,29.75-1.86-5-11.59-22.5-11.41-28,2.09.7,3.72,2.31,5.4,3.74,5.06,4.34,11.1,7.36,17.06,10.34L391.33,395c4,2,9.27,5.13,13.87,3.9,3.77-1,8.52-4.79,11.53-7.18l.5-.4h0c2.75-4.11,10.62-16.55,19.51-37.42a148.24,148.24,0,0,0,9.55-33.75l7.06-4.79S434.06,313.5,428.57,315.32Z" transform="translate(-26.73 -54.94)" fill-opacity="0.7" opacity="0.3" style="isolation:isolate"/><path d="M320,464.27l10.11-80.62s-1.9-25.92-4.43-44.12c-.57-4.08,3.7-15.53,3.7-15.53-7.27-11.5-13.64-20.87-13.64-20.87s11-13.52,11.62-15.06c3.48-9.11,15.64-7.41,15.64-7.41a6.79,6.79,0,0,1,3.28-1.76c5.78-1.45,22.21,10.07,31.18,10.16s53-11.77,53-11.77l4.48,1.61s6.07-.72,10.81,8.06c2.28,4.21,7.65,28.36,7.65,28.36l-7.06,4.79a148.24,148.24,0,0,1-9.55,33.75c-11.08,26-20.57,38.94-20.57,38.94l7.38,27.67" transform="translate(-26.73 -54.94)" fill="none" stroke="#263238" stroke-linecap="round" stroke-linejoin="round"/><path d="M418.35,305.77S405.82,322,406.13,325s6.11,6.09,6.11,6.09" transform="translate(-26.73 -54.94)" fill="none" stroke="#263238" stroke-linecap="round" stroke-linejoin="round"/><path d="M402.2,312.28A106.24,106.24,0,0,1,403.25,325c0,5.56,15.1,14.79,15.1,14.79" transform="translate(-26.73 -54.94)" fill="none" stroke="#263238" stroke-linecap="round" stroke-linejoin="round"/><path d="M329.33,324s-1.05-21.4,2.28-25.09" transform="translate(-26.73 -54.94)" fill="none" stroke="#263238" stroke-linecap="round" stroke-linejoin="round"/><path d="M325.63,306.82s1.72,11.08,3.54,13.19" transform="translate(-26.73 -54.94)" fill="none" stroke="#263238" stroke-linecap="round" stroke-linejoin="round"/><path d="M381.89,315.32s-21.63,13.92-41.67,15.77" transform="translate(-26.73 -54.94)" fill="none" stroke="#263238" stroke-linecap="round" stroke-linejoin="round"/><path d="M340.22,376.19s24.26,29.27,40.09,33.23" transform="translate(-26.73 -54.94)" fill="none" stroke="#263238" stroke-linecap="round" stroke-linejoin="round"/><path d="M416.18,392.8s-5.51-4-3.94-6.34" transform="translate(-26.73 -54.94)" fill="none" stroke="#263238" stroke-linecap="round" stroke-linejoin="round"/><path d="M402.2,416.6s-34.42,19.19-52,17.61" transform="translate(-26.73 -54.94)" fill="none" stroke="#263238" stroke-linecap="round" stroke-linejoin="round"/><path d="M309.84,355.08c-4.49-16.5-11.84-21.88-16.69-39.55-1.44-5.23-5.71-21.18-5.71-21.18s5.45-17-5.44-26.68c0,0-3,0-8.11,11.77a28,28,0,0,0-1.59,16.26s3.39,20.73,4.13,26.3c1.78,13.43,5.64,35.92,11,47.21,5.75,12.07,11.81,14.77,16.35,12.28" transform="translate(-26.73 -54.94)" fill="#fff" stroke="#263238" stroke-linecap="round" stroke-linejoin="round"/><path d="M289.34,290.73,301,294.58c1.23.32,3.65-1.73,3.54-3L301.05,251a3.87,3.87,0,0,0-2.89-3.42l-12.87-2.8c-1.23-.31-4.32,1.16-4.21,2.42l5.36,40.11A3.87,3.87,0,0,0,289.34,290.73Z" transform="translate(-26.73 -54.94)" fill="#7e57c2"/><g clip-path="url(#a)"><path d="M289.34,290.73,301,294.58c1.23.32,3.65-1.73,3.54-3L301.05,251a3.87,3.87,0,0,0-2.89-3.42l-12.87-2.8c-1.23-.31-4.32,1.16-4.21,2.42l5.36,40.11A3.87,3.87,0,0,0,289.34,290.73Z" transform="translate(-26.73 -54.94)" fill-opacity="0.7" opacity="0.3" style="isolation:isolate"/></g><path d="M289.34,290.73,301,294.58c1.23.32,3.65-1.73,3.54-3L301.05,251a3.87,3.87,0,0,0-2.89-3.42l-12.87-2.8c-1.23-.31-4.32,1.16-4.21,2.42l5.36,40.11A3.87,3.87,0,0,0,289.34,290.73Z" transform="translate(-26.73 -54.94)" fill="none" stroke="#263238" stroke-linecap="round" stroke-linejoin="round"/><path d="M287.42,291.73l12.87,2.79a1.84,1.84,0,0,0,2.24-1.3,1.92,1.92,0,0,0,.05-.63L299.14,252a3.87,3.87,0,0,0-2.9-3.42l-12.86-2.8a1.84,1.84,0,0,0-2.24,1.33,1.78,1.78,0,0,0-.05.61l3.44,40.59A3.87,3.87,0,0,0,287.42,291.73Z" transform="translate(-26.73 -54.94)" fill="#7e57c2" stroke="#263238" stroke-linecap="round" stroke-linejoin="round"/><path d="M294.56,259.51l2.07.45a.3.3,0,0,0,.36-.22.28.28,0,0,0,0-.09l-.55-6.55a.64.64,0,0,0-.47-.55l-2.08-.45a.3.3,0,0,0-.36.22.28.28,0,0,0,0,.09l.56,6.55A.64.64,0,0,0,294.56,259.51Z" transform="translate(-26.73 -54.94)" fill-opacity="0.7" opacity="0.3" style="isolation:isolate"/><path d="M276.46,279.85c-.5-5.69,4.68-14.23,8.13-14.23s13.93,8.08,13.93,8.08c4.06,2.94,2.05,5.74,2.05,5.74,2.39,1.58,3,3.72,1.95,4.71s-4.56,0-4.56,0,3.48,2.54,2.61,3.79c-2.05,2.95-8.79-.94-8.79-.94s3.91,2.58,3.69,3.07c-1.48,3.22-7.87-.53-7.87-.53l-4.49,2.3a3.84,3.84,0,0,1-3.81,3.87H279" transform="translate(-26.73 -54.94)" fill="#fff" stroke="#263238" stroke-linecap="round" stroke-linejoin="round"/><path d="M300.57,279.44s-9.82-6.34-11.06-6.51-5.79-1.16-5.79-1.16" transform="translate(-26.73 -54.94)" fill="#fff" stroke="#263238" stroke-linecap="round" stroke-linejoin="round"/><path d="M298,284.15s-8-4.12-9.44-4.12A53.85,53.85,0,0,1,282,278.9" transform="translate(-26.73 -54.94)" fill="#fff" stroke="#263238" stroke-linecap="round" stroke-linejoin="round"/><path d="M291.78,287a19.86,19.86,0,0,0-2.95-1.74,39,39,0,0,0-5.72,0" transform="translate(-26.73 -54.94)" fill="#fff" stroke="#263238" stroke-linecap="round" stroke-linejoin="round"/><path d="M391.78,350.87s6.2-3.49,11.74-16.51,7.12-11.71,7.12-11.71,12.13-5.95,17.93-7.33,16.35,0,16.35,0-9,26.11-18.19,43.09-16.59,27-21.5,28S391.78,350.87,391.78,350.87Z" transform="translate(-26.73 -54.94)" fill="#fff" stroke="#263238" stroke-linecap="round" stroke-linejoin="round"/><path d="M427.78,279s-44.14,23.51-56.9,23.38-20.71-22-20.71-22,23.6-.53,20.86-11.81a2.29,2.29,0,0,0-.15-.6c-1.13-3.94-5.46-10.84-7.07-13.32-.38-.59-.61-.93-.61-.93l34.93-26.08c-2,26.37,1.86,37.93,4.23,42.27C406.43,277.34,427.78,279,427.78,279Z" transform="translate(-26.73 -54.94)" fill="#fff" stroke="#263238" stroke-linecap="round" stroke-linejoin="round"/><path d="M388.22,242.42S380.94,263,371,268.57a2.29,2.29,0,0,0-.15-.6c-1.13-3.94-5.46-10.84-7.07-13.32Z" transform="translate(-26.73 -54.94)" fill="#263238"/><path d="M373.09,296.11s2.47-4.77,6.16-5.33,13.85-.66,32.64-3.78" transform="translate(-26.73 -54.94)" fill="none" stroke="#263238" stroke-linecap="round" stroke-linejoin="round"/><path d="M367.42,296.11s-1.58-3.71-2-5.33-10.24-3.66-13.5-6.34" transform="translate(-26.73 -54.94)" fill="none" stroke="#263238" stroke-linecap="round" stroke-linejoin="round"/><path d="M340.71,184.23c-6.47,7.05-8.4,30.06-5.17,40,0,0,16.21,2.32,20-.6S340.71,184.23,340.71,184.23Z" transform="translate(-26.73 -54.94)" fill="#263238"/><path d="M401.67,230.7c1.56-6.89,9.83-40.29-9.64-55.07s-43.22,4.93-46.55,9.58c-13.43,18.76-7.48,33.67-5,42.66s1.26,19.88,13.82,34.85c5.28,6.29,14.78,2.94,24.14-3.57,5.61-3.9,13.51-10.76,13.71-17.37" transform="translate(-26.73 -54.94)" fill="#fff" stroke="#263238" stroke-linecap="round" stroke-linejoin="round"/><path d="M357.16,216.06s10.55-1.88,16.52,1.86" transform="translate(-26.73 -54.94)" fill="none" stroke="#263238" stroke-linecap="round" stroke-linejoin="round"/><path d="M368.32,226.26c.26,1.62-.31,3.06-1.28,3.22s-2-1-2.24-2.64.31-3.06,1.28-3.22S368.05,224.64,368.32,226.26Z" transform="translate(-26.73 -54.94)" fill="#263238"/><path d="M347.24,226.26c.26,1.62-.31,3.06-1.28,3.22s-2-1-2.24-2.64.31-3.06,1.28-3.22S347,224.64,347.24,226.26Z" transform="translate(-26.73 -54.94)" fill="#263238"/><path d="M345.48,216.16s-5.82-2.08-7.7.59" transform="translate(-26.73 -54.94)" fill="none" stroke="#263238" stroke-linecap="round" stroke-linejoin="round"/><path d="M349.15,225.46c.6,2.28-4,12.56-3.67,13.45s2.59,2.47,6.64,2.87" transform="translate(-26.73 -54.94)" fill="none" stroke="#263238" stroke-linecap="round" stroke-linejoin="round"/><path d="M354.12,248.85s8.44,0,13.3-3.43" transform="translate(-26.73 -54.94)" fill="none" stroke="#263238" stroke-linecap="round" stroke-linejoin="round"/><path d="M343.12,179.27s-8.9,8.27-3.16,24.53a28.68,28.68,0,0,0,5.52,9c5.95-3.35,8.92,1.88,12.48.17s9.23,1.92,12.92,1.2a12.15,12.15,0,0,1,10.42,2.53c2.77,2.48,2.77,7.91,6.92,10.53,0,0,2.42-8.49,7.52-7.26s.59,16,.59,16a51.88,51.88,0,0,0,11.47-27.29c2-17-4.72-31.85-16-35,0,0-3.76-7.32-16.62-6.14S350.66,168,343.12,179.27Z" transform="translate(-26.73 -54.94)" fill="#263238"/><path d="M391.78,222.2s4.75-11.64,11.67-6.81-1.38,19.66-4.75,23.42-4.35-.39-4.74-1.58" transform="translate(-26.73 -54.94)" fill="#fff" stroke="#263238" stroke-linecap="round" stroke-linejoin="round"/><g opacity="0.2"><path d="M346.24,187.73a18.87,18.87,0,0,1,2.55-8.26" transform="translate(-26.73 -54.94)" fill="none" stroke="#fff" stroke-linecap="round" stroke-linejoin="round"/><path d="M354.12,207.76c-4.28-4.78-7.54-11.21-7.89-17.67" transform="translate(-26.73 -54.94)" fill="none" stroke="#fff" stroke-linecap="round" stroke-linejoin="round"/><path d="M363.2,199.72a26.53,26.53,0,0,0,9.89,9.42" transform="translate(-26.73 -54.94)" fill="none" stroke="#fff" stroke-linecap="round" stroke-linejoin="round"/><path d="M360.77,179.47c-3.28,5.27-1.39,12.83,1.17,18" transform="translate(-26.73 -54.94)" fill="none" stroke="#fff" stroke-linecap="round" stroke-linejoin="round"/><path d="M394.1,209.44a40.92,40.92,0,0,0,7.77,3.07" transform="translate(-26.73 -54.94)" fill="none" stroke="#fff" stroke-linecap="round" stroke-linejoin="round"/><path d="M370.88,186.4A58.84,58.84,0,0,0,392,208.29" transform="translate(-26.73 -54.94)" fill="none" stroke="#fff" stroke-linecap="round" stroke-linejoin="round"/></g><path d="M321.13,273.14s-3,0-3.27,2.19,4.2,5.05,4.2,5.05" transform="translate(-26.73 -54.94)" fill="#fff" stroke="#263238" stroke-linecap="round" stroke-linejoin="round"/><path d="M405.4,352.69c-6.76-10.31-16.3-16.76-24.83-28.2a312.33,312.33,0,0,1-19.51-29.6l-9.05-17s-11.08-13.36-15.56-15-29-2.42-29-2.42-1,2.66,2.79,4,15.4,2.43,15.4,2.43-3.42,1.47-4.21,2.68,0,11.15,1.58,13.17,7.65,3.86,7.65,3.86.8,7,6.73,10.47,8.83,3.51,8.83,3.51,5.58,9.48,7.91,16.25c5,14.43,17.61,47.24,26.72,59.07,10.78,14,24.75,14.54,29.8,5.63" transform="translate(-26.73 -54.94)" fill="#fff" stroke="#263238" stroke-linecap="round" stroke-linejoin="round"/><path d="M336,272.18s-8.6,1-9.69,1.78-.57,6.93,0,9.08a3.9,3.9,0,0,0,1.88,2.7" transform="translate(-26.73 -54.94)" fill="none" stroke="#263238" stroke-linecap="round" stroke-linejoin="round"/><path d="M332.45,267.1s-8.46,2.11-9,3.2a21.27,21.27,0,0,0-.39,9.12c.69,3.34.89,4.39,2.18,5" transform="translate(-26.73 -54.94)" fill="none" stroke="#263238" stroke-linecap="round" stroke-linejoin="round"/><path d="M325.63,266.91a29.85,29.85,0,0,1,3.7-1.26" transform="translate(-26.73 -54.94)" fill="none" stroke="#263238" stroke-linecap="round" stroke-linejoin="round"/><path d="M330.79,279a7.75,7.75,0,0,0,5.79,2.65s-1.85,7.12,1.45,11.74" transform="translate(-26.73 -54.94)" fill="none" stroke="#263238" stroke-linecap="round" stroke-linejoin="round"/><path d="M332.45,280.38s-1.91,1.55-1.66,2.38" transform="translate(-26.73 -54.94)" fill="none" stroke="#263238" stroke-linecap="round" stroke-linejoin="round"/><path d="M410.64,322.65s17-7.44,19.46-7.94,20.89.41,20.89.41a26.78,26.78,0,0,1-7.77,5s-.41-3.39-5-3.78S410.64,322.65,410.64,322.65Z" transform="translate(-26.73 -54.94)" fill="#263238"/><path d="M237.63,89.66H89.05A15.17,15.17,0,0,0,74,105h0V410.81a15.17,15.17,0,0,0,15,15.31H237.63a15.18,15.18,0,0,0,15-15.31V105A15.18,15.18,0,0,0,237.63,89.66Zm5.64,311.71c0,8.05-6,14.56-13.46,14.56H96.89c-7.46,0-13.48-6.51-13.48-14.56V116.56c0-16.4,6-17.16,13.48-17.16h26.63c1.54,0,2.81,1.76,2.81,3.94v.94c0,5.1,2.79,5.12,6.22,5.12h61.56c3.46,0,6.24,0,6.24-5.12v-1c0-2.18,1.24-3.94,2.82-3.94h26.62c7.43,0,13.46,2.18,13.46,17.2Z" transform="translate(-26.73 -54.94)" fill="#37474f"/><path d="M243.27,116.56V401.37c0,8.05-6,14.56-13.46,14.56H96.89c-7.46,0-13.48-6.51-13.48-14.56V116.56c0-16.4,6-17.16,13.48-17.16h26.63c1.54,0,2.81,1.76,2.81,3.94v.94c0,5.1,2.79,5.12,6.22,5.12h61.56c3.46,0,6.24,0,6.24-5.12v-1c0-2.18,1.24-3.94,2.82-3.94h26.62C237.24,99.4,243.27,101.54,243.27,116.56Z" transform="translate(-26.73 -54.94)" fill="#ebebeb"/><path d="M243.27,116.56V236.28H83.37V116.56c0-16.4,6.06-17.16,13.52-17.16h26.63c1.54,0,2.81,1.76,2.81,3.94v.94c0,5.1,2.79,5.12,6.22,5.12h61.56c3.46,0,6.24,0,6.24-5.12v-1c0-2.18,1.24-3.94,2.82-3.94h26.62C237.24,99.4,243.27,101.54,243.27,116.56Z" transform="translate(-26.73 -54.94)" fill="#7e57c2"/><path d="M118.92,105.76l-.25.26c-.06,0-.1.09-.15.14a3.45,3.45,0,0,0-2.48-1,3.4,3.4,0,0,0-2.48,1l-.14-.14-.26-.26h0l.33-.28a3.3,3.3,0,0,1,.75-.48,3.94,3.94,0,0,1,1-.34,1.26,1.26,0,0,0,.5-.07h.77a3.78,3.78,0,0,1,.88.22,4.51,4.51,0,0,1,.63.29,4.67,4.67,0,0,1,.58.41l.28.25Z" transform="translate(-26.73 -54.94)" fill="#fff"/><path d="M114.37,107c-.13-.14-.27-.27-.41-.4a2.92,2.92,0,0,1,4.13,0h0l-.4.4A2.35,2.35,0,0,0,114.37,107Z" transform="translate(-26.73 -54.94)" fill="#fff"/><path d="M117.29,107.38l-.4.4a1.16,1.16,0,0,0-.88-.35,1.2,1.2,0,0,0-.88.35l-.4-.4a1.75,1.75,0,0,1,2.48-.08A.3.3,0,0,1,117.29,107.38Z" transform="translate(-26.73 -54.94)" fill="#fff"/><path d="M116.4,108.19a.36.36,0,0,1-.36.36h0a.37.37,0,0,1-.42-.31.36.36,0,0,1,.3-.42H116a.36.36,0,0,1,.36.36Z" transform="translate(-26.73 -54.94)" fill="#fff"/><path d="M93.83,106.53a1.07,1.07,0,0,1,2.13,0,1.07,1.07,0,1,1-2.13,0Z" transform="translate(-26.73 -54.94)" fill="#fff"/><path d="M97.17,106.53a1.07,1.07,0,0,1,2.13,0,1.07,1.07,0,1,1-2.13,0Z" transform="translate(-26.73 -54.94)" fill="#fff"/><path d="M100.51,106.53a1.07,1.07,0,0,1,2.13,0,1.07,1.07,0,0,1-1.07,1.07h0a1.05,1.05,0,0,1-1-1.06Z" transform="translate(-26.73 -54.94)" fill="#fff"/><path d="M103.85,106.53a1.06,1.06,0,1,1,1.06,1.07h0a1.05,1.05,0,0,1-1.05-1.06Z" transform="translate(-26.73 -54.94)" fill="#fff"/><path d="M107.18,106.53a1.07,1.07,0,0,1,2.13,0,1.07,1.07,0,1,1-2.13,0Z" transform="translate(-26.73 -54.94)" fill="#fff"/><path d="M231.28,108.85h-8.63v-4h8.63Zm-8.19-.44h7.75v-3.12h-7.73Z" transform="translate(-26.73 -54.94)" fill="#fff"/><rect x="196.64" y="50.59" width="5.56" height="2.64" fill="#fff"/><rect x="204.55" y="50.85" width="0.76" height="2.14" fill="#fff"/><polygon points="71.83 77.59 67.11 73.17 71.83 68.75 72.56 69.52 68.67 73.17 72.56 76.82 71.83 77.59" fill="#fff"/><path d="M181.8,203.05a34.34,34.34,0,0,1-10.15,4.25,35.22,35.22,0,1,1,10.15-4.25Z" transform="translate(-26.73 -54.94)" fill="#fff"/><path d="M174,169.08a10.71,10.71,0,1,1-10.71-10.71h0A10.71,10.71,0,0,1,174,169.08Z" transform="translate(-26.73 -54.94)" fill="#7e57c2"/><path d="M181.8,198.64V203a34.63,34.63,0,0,1-10.15,4.26A35.05,35.05,0,0,1,144.79,203v-4.39a18.51,18.51,0,1,1,37,0v0Z" transform="translate(-26.73 -54.94)" fill="#7e57c2"/><rect x="73.8" y="169.14" width="125.64" height="121.99" fill="#fff"/><path d="M142.94,238.59l-3.23,7.68a.33.33,0,0,1-.07.13h0l-.07.07h0a.31.31,0,0,0-.09.07h0s-.07.07-.13.08h-.51l-.12-.08h0l-.1-.07h0l-.05-.07h0a.5.5,0,0,1,0-.13l-1.76-4.08L135,246.27a.29.29,0,0,1-.05.13h0l-.08.07h0a.23.23,0,0,0-.07.07h0l-.1.08h-.53a.36.36,0,0,1-.12-.08h0c-.05,0-.06-.06-.1-.07h0l-.07-.07h0a.18.18,0,0,0-.06-.13l-3.25-7.68a.72.72,0,0,1,.4-.94.71.71,0,0,1,.94.39l2.57,6.1,1.71-4a.72.72,0,0,1,.69-.44.75.75,0,0,1,.68.44l1.7,4,2.57-6.1a.73.73,0,0,1,1-.39h0A.71.71,0,0,1,142.94,238.59Z" transform="translate(-26.73 -54.94)" fill="#263238"/><path d="M145.06,246v-7.74a.71.71,0,0,1,.69-.73h4.33a.72.72,0,0,1,.73.73h0a.74.74,0,0,1-.73.74h-3.56v2.4h3.06a.74.74,0,0,1,0,1.47h-3.06v2.42h3.56a.73.73,0,1,1,0,1.46h-4.31a.71.71,0,0,1-.71-.71Z" transform="translate(-26.73 -54.94)" fill="#263238"/><path d="M152.87,246v-7.74a.73.73,0,0,1,.72-.73.74.74,0,0,1,.75.73v7h3.57a.73.73,0,1,1,0,1.46h-4.32a.72.72,0,0,1-.72-.72Z" transform="translate(-26.73 -54.94)" fill="#263238"/><path d="M159.36,242a4.82,4.82,0,0,1,4.83-4.75,5,5,0,0,1,3.05,1,.78.78,0,0,1,.13,1.05.77.77,0,0,1-1.05.15,3.36,3.36,0,0,0-2.13-.73,3.53,3.53,0,0,0-2.37,1,3.25,3.25,0,0,0-1,2.3,3.2,3.2,0,0,0,1,2.29,3.53,3.53,0,0,0,2.37.95,3.37,3.37,0,0,0,2.13-.72.79.79,0,0,1,1.05.14.77.77,0,0,1-.13,1.05,4.89,4.89,0,0,1-3.05,1A4.81,4.81,0,0,1,159.36,242Z" transform="translate(-26.73 -54.94)" fill="#263238"/><path d="M176.94,238.64a4.85,4.85,0,0,1,0,6.67,4.31,4.31,0,0,1-6.38,0,4.91,4.91,0,0,1,0-6.67,4.39,4.39,0,0,1,3.23-1.41A4.29,4.29,0,0,1,176.94,238.64Zm-.17,3.34a3.43,3.43,0,0,0-.88-2.31,2.84,2.84,0,0,0-4-.21l-.21.21a3.45,3.45,0,0,0,0,4.6,2.82,2.82,0,0,0,4,.23,2.61,2.61,0,0,0,.24-.23A3.37,3.37,0,0,0,176.77,242Z" transform="translate(-26.73 -54.94)" fill="#263238"/><path d="M188.28,238.26V246a.74.74,0,0,1-.74.72.73.73,0,0,1-.73-.72h0v-5.56l-1.9,2.64a.71.71,0,0,1-.58.31h0a.75.75,0,0,1-.61-.31l-1.89-2.64V246a.73.73,0,1,1-1.46,0h0v-7.78a.73.73,0,0,1,.72-.73h0a.69.69,0,0,1,.58.31l2.64,3.63,2.63-3.63a.72.72,0,0,1,.59-.31h0A.74.74,0,0,1,188.28,238.26Z" transform="translate(-26.73 -54.94)" fill="#263238"/><path d="M190.81,246v-7.74a.71.71,0,0,1,.7-.73h4.35a.73.73,0,0,1,.73.73.76.76,0,0,1-.73.74h-3.57v2.4h3.07a.74.74,0,0,1,0,1.47h-3.07v2.42h3.57a.73.73,0,1,1,0,1.46h-4.31a.72.72,0,0,1-.74-.7Z" transform="translate(-26.73 -54.94)" fill="#263238"/><path d="M115,278.61a1.25,1.25,0,1,1,2.5-.1h0a.14.14,0,0,1-.14.12h-2.11a1,1,0,0,0,1,1,1,1,0,0,0,.88-.47.12.12,0,0,1,.16,0,.14.14,0,0,1,0,.18,1.24,1.24,0,0,1-1,.58,1.26,1.26,0,0,1-1.29-1.24Zm.26-.21h2a1,1,0,0,0-1.14-.82A1,1,0,0,0,115.27,278.4Z" transform="translate(-26.73 -54.94)" fill="#263238"/><path d="M122,278.36a.8.8,0,0,0-1.59-.17.49.49,0,0,0,0,.17v1.42h0a.13.13,0,0,1-.06.07h-.06v-1.43a.81.81,0,0,0-.72-.88.8.8,0,0,0-.87.71.48.48,0,0,0,0,.17v1.41a.11.11,0,0,1-.06.1h-.16a.12.12,0,0,1-.1-.09v-2.36a.12.12,0,0,1,.12-.12h0a.12.12,0,0,1,.13.12h0v.25a1,1,0,0,1,.8-.37,1.05,1.05,0,0,1,.87.54,1.07,1.07,0,0,1,.93-.54,1,1,0,0,1,1,1h0v1.41a.12.12,0,0,1-.12.12h0a.12.12,0,0,1-.12-.12h0Z" transform="translate(-26.73 -54.94)" fill="#263238"/><path d="M127.08,278.36a.8.8,0,1,0-1.59,0v1.42h0l-.07.07h-.07v-1.43a.8.8,0,1,0-1.59-.17v1.58a.11.11,0,0,1-.06.1h0a.12.12,0,0,1-.11-.09v-2.36a.12.12,0,0,1,.11-.12h0a.12.12,0,0,1,.13.11h0v.25a1,1,0,0,1,1.71.17,1.08,1.08,0,0,1,.93-.54,1,1,0,0,1,1,1h0v1.41a.12.12,0,0,1-.12.12.12.12,0,0,1-.13-.12Z" transform="translate(-26.73 -54.94)" fill="#263238"/><path d="M130.57,277.44v2.33a.12.12,0,0,1-.13.12.12.12,0,0,1-.12-.12h0v-.39a1.17,1.17,0,0,1-1,.51,1.29,1.29,0,0,1,0-2.58,1.17,1.17,0,0,1,1,.51v-.38a.12.12,0,0,1,.11-.13h0a.13.13,0,0,1,.13.13Zm-.25,1.16a1,1,0,1,0-1,1,1,1,0,0,0,1-1Z" transform="translate(-26.73 -54.94)" fill="#263238"/><path d="M131.91,280.65a.19.19,0,0,0,.19-.2h0v-3a.13.13,0,0,1,.14-.13.13.13,0,0,1,.12.13v3a.45.45,0,0,1-.45.45h0a.12.12,0,0,1-.12-.12h0A.12.12,0,0,1,131.91,280.65Zm.2-4.06a.15.15,0,0,1,.13-.13.14.14,0,0,1,.13.13v.13a.14.14,0,0,1-.13.13.15.15,0,0,1-.13-.13Z" transform="translate(-26.73 -54.94)" fill="#263238"/><path d="M135.67,277.44v2.33a.12.12,0,1,1-.24,0v-.39a1.26,1.26,0,0,1-1,.51,1.29,1.29,0,0,1,0-2.58,1.2,1.2,0,0,1,1,.51v-.38a.12.12,0,1,1,.24,0Zm-.24,1.16a1,1,0,0,0-1-.91,1,1,0,0,0-.91,1,1,1,0,0,0,1,.91A1,1,0,0,0,135.43,278.6Z" transform="translate(-26.73 -54.94)" fill="#263238"/><path d="M140.5,278.36a.8.8,0,0,0-1.6,0v1.42h0s0,.05-.06.07h-.07v-1.43a.8.8,0,0,0-1.59-.17v1.58a.11.11,0,0,1-.06.1h-.05a.14.14,0,0,1-.11-.09v-2.36a.12.12,0,0,1,.13-.12h0a.12.12,0,0,1,.13.11h0v.25a1,1,0,0,1,.79-.37,1,1,0,0,1,.92.54,1.08,1.08,0,0,1,.93-.54,1,1,0,0,1,1,1h0v1.41a.12.12,0,0,1-.12.12.12.12,0,0,1-.13-.12Z" transform="translate(-26.73 -54.94)" fill="#263238"/><path d="M141.6,278.61a1.25,1.25,0,0,1,2.5-.1h0a.12.12,0,0,1-.12.12h-2.12a1,1,0,0,0,1,1,1,1,0,0,0,.83-.47.14.14,0,0,1,.17,0,.13.13,0,0,1,0,.18,1.21,1.21,0,0,1-1,.58A1.28,1.28,0,0,1,141.6,278.61Zm.28-.21h2a1,1,0,0,0-2,0Z" transform="translate(-26.73 -54.94)" fill="#263238"/><path d="M144.82,279.35a.11.11,0,0,1,.17,0h0a1.33,1.33,0,0,0,.79.3.74.74,0,0,0,.49-.16.36.36,0,0,0,.19-.31.38.38,0,0,0-.18-.32,1.38,1.38,0,0,0-.52-.17h0a1.55,1.55,0,0,1-.59-.21.53.53,0,0,1-.28-.45.63.63,0,0,1,.28-.51,1.1,1.1,0,0,1,.63-.18,1.48,1.48,0,0,1,.78.28.17.17,0,0,1,0,.19.15.15,0,0,1-.18,0,1.08,1.08,0,0,0-.63-.27.84.84,0,0,0-.49.15.37.37,0,0,0-.16.3.31.31,0,0,0,.14.26,1.58,1.58,0,0,0,.53.18h0a2,2,0,0,1,.62.2.62.62,0,0,1,.21.85.6.6,0,0,1-.21.21,1.06,1.06,0,0,1-.64.2,1.5,1.5,0,0,1-.95-.37.11.11,0,0,1,0-.16Z" transform="translate(-26.73 -54.94)" fill="#263238"/><path d="M149.5,279.13h-2.05a.13.13,0,0,1,0-.18l2.13-2.64h0a.11.11,0,0,1,.16,0h0v2.63H150a.13.13,0,0,1,.16.09.13.13,0,0,1-.1.16h-.31v.64a.13.13,0,0,1-.13.13.13.13,0,0,1-.13-.13Zm0-.25v-2.16l-1.75,2.16Z" transform="translate(-26.73 -54.94)" fill="#263238"/><path d="M152.73,276.2a1.84,1.84,0,0,1,1.85,1.83h0a1.78,1.78,0,0,1-.2.88,1,1,0,0,1-.47.4h-.11a.36.36,0,0,1-.38-.4v-.23a.91.91,0,0,1-.69.31,1,1,0,0,1-.9-1.08,1,1,0,0,1,.9-.9,1,1,0,0,1,.94,1v.88h0a.21.21,0,0,0,0,.11h.1a.5.5,0,0,0,.3-.27,1.51,1.51,0,0,0,.18-.72,1.59,1.59,0,1,0-1.59,1.59h0a1.81,1.81,0,0,0,.4,0c.07,0,.14,0,.14.08a.12.12,0,0,1-.07.16h0a1.8,1.8,0,0,1-.46.05,1.85,1.85,0,1,1,0-3.69Zm0,2.56a.7.7,0,0,0,.68-.72.68.68,0,1,0-1.35-.15V278a.69.69,0,0,0,.67.72Z" transform="translate(-26.73 -54.94)" fill="#263238"/><path d="M160,278.36a.8.8,0,1,0-1.59-.17v1.59h0a.13.13,0,0,1-.06.07h-.1v-1.43a.81.81,0,0,0-.72-.88.8.8,0,0,0-.87.71.48.48,0,0,0,0,.17v1.41a.11.11,0,0,1-.06.1h-.05a.14.14,0,0,1-.11-.09v-2.36a.12.12,0,0,1,.13-.12h0a.12.12,0,0,1,.12.12h0v.25a1,1,0,0,1,.8-.37,1.05,1.05,0,0,0,1.43.41,1.1,1.1,0,0,0,.42-.41,1,1,0,0,1,1,1h0v1.41a.11.11,0,0,1-.1.12h0a.12.12,0,0,1-.12-.12h0Z" transform="translate(-26.73 -54.94)" fill="#263238"/><path d="M163.44,277.44v2.33a.12.12,0,0,1-.12.12h0a.12.12,0,0,1-.13-.12v-.39a1.17,1.17,0,0,1-1,.51,1.29,1.29,0,0,1,0-2.58,1.17,1.17,0,0,1,1,.51v-.38a.13.13,0,0,1,.13-.13A.12.12,0,0,1,163.44,277.44Zm-.25,1.16a1,1,0,1,0-1,1A1,1,0,0,0,163.19,278.6Z" transform="translate(-26.73 -54.94)" fill="#263238"/><path d="M164.55,276.59a.13.13,0,0,1,.12-.13.13.13,0,0,1,.14.13v.13a.13.13,0,0,1-.14.13.13.13,0,0,1-.12-.13Zm0,.88a.13.13,0,0,1,.11-.13h0a.13.13,0,0,1,.14.13v2.33a.14.14,0,0,1-.14.12.12.12,0,0,1-.12-.12h0Z" transform="translate(-26.73 -54.94)" fill="#263238"/><path d="M166,276.33a.13.13,0,1,1,.26,0v3.44a.13.13,0,0,1-.12.12h0a.13.13,0,0,1-.13-.12h0Z" transform="translate(-26.73 -54.94)" fill="#263238"/><path d="M167.43,279.36a.27.27,0,1,1,0,.53.27.27,0,0,1,0-.53Z" transform="translate(-26.73 -54.94)" fill="#263238"/><path d="M168.15,278.6a1.32,1.32,0,0,1,1.36-1.29,1.28,1.28,0,0,1,.79.29.11.11,0,0,1,0,.17h0a.13.13,0,0,1-.18,0,1.06,1.06,0,0,0-1.49.1,1,1,0,0,0,.1,1.48,1.08,1.08,0,0,0,.72.27,1.12,1.12,0,0,0,.67-.22.13.13,0,0,1,.18.18,1.34,1.34,0,0,1-.82.27A1.29,1.29,0,0,1,168.15,278.6Z" transform="translate(-26.73 -54.94)" fill="#263238"/><path d="M172.36,277.31a1.29,1.29,0,1,1,.14,2.58,1.3,1.3,0,0,1-1.36-1.22v-.07A1.26,1.26,0,0,1,172.36,277.31Zm0,2.32a1,1,0,0,0,1-1,1,1,0,1,0-1.94-.19.61.61,0,0,0,0,.19,1,1,0,0,0,1,1Z" transform="translate(-26.73 -54.94)" fill="#263238"/><path d="M178.29,278.36a.82.82,0,0,0-.8-.8.79.79,0,0,0-.79.79h0v1.42h0s0,.05-.06.07h-.11v-1.43a.8.8,0,0,0-1.59-.17.48.48,0,0,0,0,.17v1.41a.11.11,0,0,1-.06.1h-.06a.12.12,0,0,1-.1-.09v-2.36a.12.12,0,0,1,.12-.12h0a.12.12,0,0,1,.13.12h0v.25a1,1,0,0,1,.8-.37,1.05,1.05,0,0,0,1.43.41,1.15,1.15,0,0,0,.41-.41,1,1,0,0,1,1,1h0v1.41a.12.12,0,0,1-.13.12.12.12,0,0,1-.12-.12Z" transform="translate(-26.73 -54.94)" fill="#263238"/><polygon points="87.94 227.91 100.11 227.75 112.28 227.66 136.62 227.59 160.95 227.66 173.13 227.75 185.29 227.91 173.13 228.08 160.95 228.16 136.62 228.24 112.28 228.16 100.11 228.07 87.94 227.91" fill="#dbdbdb"/><path d="M115.75,306.75l-.49.32h-.08a.11.11,0,0,1-.11-.1.11.11,0,0,1,.11-.11l.54-.26-.54-.26s-.08,0-.08-.1a.12.12,0,0,1,.1-.11h.09l.48.34,0-.58a.12.12,0,0,1,.1-.12h0a.11.11,0,0,1,.1.11h0l0,.58.47-.34h.09a.1.1,0,0,1,.1.11.09.09,0,0,1-.07.1l-.54.26.54.26a.08.08,0,0,1,.07.1.09.09,0,0,1-.09.11h-.1l-.47-.32,0,.57a.1.1,0,0,1-.1.11h0a.1.1,0,0,1-.11-.1h0Z" transform="translate(-26.73 -54.94)" fill="#263238"/><path d="M118,306.75l-.49.32h-.09a.11.11,0,0,1-.1-.1.11.11,0,0,1,.1-.11l.55-.26-.55-.26a.1.1,0,0,1-.08-.1.13.13,0,0,1,.11-.11h.09l.48.34v-.58a.12.12,0,0,1,.1-.12h0a.1.1,0,0,1,.1.11h0l0,.58.47-.34h.09a.11.11,0,0,1,.11.11.11.11,0,0,1-.07.1l-.55.26.55.26a.1.1,0,0,1,.07.1.1.1,0,0,1-.1.11h-.1l-.47-.32,0,.57a.1.1,0,0,1-.09.11h0a.1.1,0,0,1-.11-.1h0Z" transform="translate(-26.73 -54.94)" fill="#263238"/><path d="M120.28,306.75l-.48.32h-.09a.1.1,0,0,1-.1-.1.1.1,0,0,1,.1-.11l.55-.26-.55-.26s-.08,0-.08-.1a.13.13,0,0,1,.11-.11h.09l.48.34,0-.54a.1.1,0,0,1,.1-.11h0a.09.09,0,0,1,.1.1h0l0,.58.48-.33H121a.1.1,0,0,1,.11.1.12.12,0,0,1-.07.11l-.55.25.55.27s.07,0,.07.09a.12.12,0,0,1-.1.12h-.09l-.48-.33,0,.57a.1.1,0,0,1-.09.12h0a.11.11,0,0,1-.11-.11h0Z" transform="translate(-26.73 -54.94)" fill="#263238"/><path d="M122.55,306.75l-.48.32H122a.11.11,0,0,1-.11-.1.11.11,0,0,1,.11-.11l.54-.26-.54-.26a.09.09,0,0,1-.08-.1.12.12,0,0,1,.11-.11h.08l.49.34,0-.58a.12.12,0,0,1,.1-.12h0a.1.1,0,0,1,.1.11h0l0,.58.47-.34h.09a.11.11,0,0,1,.11.11.11.11,0,0,1-.07.1l-.55.26.55.26a.1.1,0,0,1,.07.1.1.1,0,0,1-.1.11h-.1l-.47-.32,0,.57a.09.09,0,0,1-.09.11h0a.1.1,0,0,1-.11-.1h0Z" transform="translate(-26.73 -54.94)" fill="#263238"/><path d="M124.82,306.75l-.49.32h-.08a.11.11,0,0,1-.11-.1.11.11,0,0,1,.11-.11l.54-.26-.54-.26s-.08,0-.08-.1a.12.12,0,0,1,.1-.11h.09l.48.34v-.58a.12.12,0,0,1,.1-.12h0a.12.12,0,0,1,.11.11h0v.58l.48-.34h.09a.1.1,0,0,1,.1.11.09.09,0,0,1-.07.1l-.54.26.54.26a.08.08,0,0,1,.07.1.1.1,0,0,1-.09.11h-.1l-.48-.32v.57a.09.09,0,0,1-.09.11h0a.1.1,0,0,1-.11-.1h0Z" transform="translate(-26.73 -54.94)" fill="#263238"/><path d="M127.08,306.75l-.48.32h-.09a.11.11,0,0,1-.1-.1.11.11,0,0,1,.1-.11l.55-.26-.55-.26a.1.1,0,0,1-.08-.1.13.13,0,0,1,.11-.11h.09l.48.34,0-.58a.11.11,0,0,1,.09-.12h0a.11.11,0,0,1,.11.11h0l0,.58.48-.34h.09a.1.1,0,0,1,.1.11.1.1,0,0,1-.07.1l-.54.26.54.26a.08.08,0,0,1,.07.1.1.1,0,0,1-.09.11h-.1l-.48-.32,0,.57a.1.1,0,0,1-.1.11h0a.09.09,0,0,1-.1-.1h0Z" transform="translate(-26.73 -54.94)" fill="#263238"/><path d="M129.34,306.75l-.47.32h-.09a.1.1,0,0,1-.1-.1.1.1,0,0,1,.1-.11l.54-.26-.54-.26s-.08,0-.08-.1a.13.13,0,0,1,.11-.11h.09l.47.34v-.58a.1.1,0,0,1,.08-.12h0a.11.11,0,0,1,.1.11h0v.58l.48-.34h.08a.11.11,0,0,1,.11.11.11.11,0,0,1-.07.1l-.55.26.55.26a.1.1,0,0,1,.07.1.1.1,0,0,1-.1.11h-.09l-.48-.32v.57a.1.1,0,0,1-.1.11h0a.09.09,0,0,1-.11-.08v0Z" transform="translate(-26.73 -54.94)" fill="#263238"/><path d="M131.62,306.75l-.48.32h-.09a.11.11,0,0,1-.11-.1.11.11,0,0,1,.11-.11l.54-.26-.54-.26a.09.09,0,0,1-.08-.1.12.12,0,0,1,.1-.11h.09l.49.34-.05-.58a.12.12,0,0,1,.1-.12h0a.1.1,0,0,1,.1.11h0l0,.58.47-.34h.09a.11.11,0,0,1,.11.11.11.11,0,0,1-.07.1l-.55.26.55.26a.1.1,0,0,1,.07.1.1.1,0,0,1-.1.11h-.1l-.47-.32,0,.57a.1.1,0,0,1-.09.11h0a.1.1,0,0,1-.11-.1h0Z" transform="translate(-26.73 -54.94)" fill="#263238"/><path d="M133.89,306.75l-.49.32h-.08a.11.11,0,0,1-.11-.1.11.11,0,0,1,.11-.11l.53-.26-.53-.26a.09.09,0,0,1-.08-.1.12.12,0,0,1,.1-.11h.09l.48.34v-.58a.12.12,0,0,1,.1-.12h0a.1.1,0,0,1,.1.11h0v.58l.48-.34h.09a.1.1,0,0,1,.1.11.09.09,0,0,1-.07.1l-.54.26.54.26a.08.08,0,0,1,.07.1.1.1,0,0,1-.09.11h-.1l-.48-.32v.57a.09.09,0,0,1-.09.11h0a.1.1,0,0,1-.11-.1h0Z" transform="translate(-26.73 -54.94)" fill="#263238"/><path d="M136.15,306.75l-.48.32h-.09a.11.11,0,0,1-.1-.1.11.11,0,0,1,.1-.11l.55-.26-.55-.26s-.08,0-.08-.1a.13.13,0,0,1,.11-.11h.09l.48.34-.08-.54a.1.1,0,0,1,.1-.11h0a.09.09,0,0,1,.1.1h0l0,.58.47-.33h.09a.1.1,0,0,1,.11.1.12.12,0,0,1-.07.11l-.55.25.55.27s.07,0,.07.09a.12.12,0,0,1-.1.12h-.1l-.47-.33,0,.57a.11.11,0,0,1-.09.12h0a.11.11,0,0,1-.11-.11h0Z" transform="translate(-26.73 -54.94)" fill="#263238"/><path d="M138.42,306.75l-.48.32h-.09a.1.1,0,0,1-.1-.1.1.1,0,0,1,.1-.11l.55-.26-.55-.26a.1.1,0,0,1-.08-.1.13.13,0,0,1,.11-.11H138l.48.34v-.58a.11.11,0,0,1,.09-.12h0a.11.11,0,0,1,.11.11h0l0,.58.48-.34h.08a.1.1,0,0,1,.1.11.09.09,0,0,1-.07.1l-.54.26.54.26a.08.08,0,0,1,.07.1.09.09,0,0,1-.09.11h-.09l-.48-.32,0,.57a.1.1,0,0,1-.1.11h0a.1.1,0,0,1-.1-.1h0Z" transform="translate(-26.73 -54.94)" fill="#263238"/><polygon points="87.94 257.58 100.11 257.41 112.28 257.32 136.62 257.25 160.95 257.32 173.13 257.41 185.29 257.58 173.13 257.74 160.95 257.83 136.62 257.9 112.28 257.83 100.11 257.74 87.94 257.58" fill="#dbdbdb"/><rect x="113.03" y="247.93" width="0.44" height="7.89" fill="#263238"/><rect x="100.82" y="279.88" width="71.59" height="22.51" fill="#7e57c2"/><path d="M151.26,349v-4.66a.44.44,0,0,1,.88,0v4.22h2.15a.46.46,0,0,1,.44.44.45.45,0,0,1-.44.44H151.7A.44.44,0,0,1,151.26,349Z" transform="translate(-26.73 -54.94)" fill="#fff"/><path d="M159.77,344.6a2.93,2.93,0,0,1,.8,2,2.86,2.86,0,0,1-.8,2,2.62,2.62,0,0,1-1.89.88,2.65,2.65,0,0,1-1.94-.88,3,3,0,0,1,0-4,2.65,2.65,0,0,1,1.94-.88A2.55,2.55,0,0,1,159.77,344.6Zm-.11,2a2.11,2.11,0,0,0-.53-1.39,1.71,1.71,0,0,0-2.53,0,2.06,2.06,0,0,0-.54,1.39,1.93,1.93,0,0,0,.54,1.37,1.78,1.78,0,0,0,1.28.58,1.72,1.72,0,0,0,1.25-.58A1.93,1.93,0,0,0,159.66,346.6Z" transform="translate(-26.73 -54.94)" fill="#fff"/><path d="M161.88,346.61a2.87,2.87,0,0,1,2.91-2.85h0a2.91,2.91,0,0,1,1.81.61.45.45,0,0,1,.09.63h0a.47.47,0,0,1-.64.07,2.1,2.1,0,0,0-1.25-.43,2,2,0,0,0-1.43.58,1.89,1.89,0,0,0,0,2.74,2,2,0,0,0,1.43.58,2.32,2.32,0,0,0,1.09-.3v-1.08h-1.14a.46.46,0,0,1-.45-.46.44.44,0,0,1,.44-.44h1.59a.44.44,0,0,1,.45.44h0v1.9h0a.45.45,0,0,1-.15.19,2.94,2.94,0,0,1-1.75.62,2.89,2.89,0,0,1-3-2.75Z" transform="translate(-26.73 -54.94)" fill="#fff"/><path d="M168.62,344.34a.42.42,0,0,1,.41-.43h0a.45.45,0,0,1,.45.43h0V349a.45.45,0,0,1-.45.44.43.43,0,0,1-.43-.43h0Z" transform="translate(-26.73 -54.94)" fill="#fff"/><path d="M171.85,349a.44.44,0,0,1-.44.44A.43.43,0,0,1,171,349V344.4h0a.42.42,0,0,1,.17-.36.43.43,0,0,1,.6.09l2.56,3.52v-3.26a.44.44,0,0,1,.44-.44.44.44,0,0,1,.44.44V349a.44.44,0,0,1-.43.44.41.41,0,0,1-.33-.15l0-.06-2.53-3.51Z" transform="translate(-26.73 -54.94)" fill="#fff"/><path d="M171.74,103h-16.8a1,1,0,0,1-1-1h0a1,1,0,0,1,1-1h16.8a1,1,0,0,1,1,1h0A1,1,0,0,1,171.74,103Z" transform="translate(-26.73 -54.94)" fill="#fff"/><path d="M148,177.28c0-9,6.43-19.83,15.44-19.83s15.44,10.82,15.44,19.83" transform="translate(-26.73 -54.94)" fill="#7e57c2"/><rect x="99.46" y="181.28" width="76.61" height="13.5" fill="#fff"/><path d="M129.69,244.22,128,242v4.38h-1.36v-7.18h.86l2.43,3.32,2.2-3.32h.84v7.18h-1.38v-4.14l-1.34,1.89Z" transform="translate(-26.73 -54.94)" fill="#7e57c2" stroke="#7e57c2" stroke-miterlimit="10" stroke-width="0.25"/><path d="M136,239.22v4.47a1.71,1.71,0,0,0,.43,1.3,1.57,1.57,0,0,0,1.12.4,1.52,1.52,0,0,0,1.12-.42,1.71,1.71,0,0,0,.43-1.28v-4.47h1.38v4.57a2.61,2.61,0,0,1-.79,1.94,3,3,0,0,1-2.14.78,2.87,2.87,0,0,1-2.14-.77,2.68,2.68,0,0,1-.78-2v-4.57Z" transform="translate(-26.73 -54.94)" fill="#7e57c2" stroke="#7e57c2" stroke-miterlimit="10" stroke-width="0.25"/><path d="M143.71,239.22v5.61a1.54,1.54,0,0,1-.36,1.11,3.07,3.07,0,0,1-1.3.69l-.55-1a1.83,1.83,0,0,0,.69-.37,1.06,1.06,0,0,0,.13-.62v-5.41Z" transform="translate(-26.73 -54.94)" fill="#7e57c2" stroke="#7e57c2" stroke-miterlimit="10" stroke-width="0.25"/><path d="M150.5,246.4h-5v-7.18h4.28l.21,1.08h-3.13v1.93h1.92l.22,1.09h-2.14v2h3.44Z" transform="translate(-26.73 -54.94)" fill="#7e57c2" stroke="#7e57c2" stroke-miterlimit="10" stroke-width="0.25"/><path d="M155.76,246.4l-1.52-2.75-.24,0H153v2.73h-1.36v-7.18h2.25a3.58,3.58,0,0,1,2,.54,1.85,1.85,0,0,1,.84,1.67,1.9,1.9,0,0,1-.35,1.14,2.29,2.29,0,0,1-.88.75l1.76,3.08Zm-2-6H153v2.2h.87a1.94,1.94,0,0,0,1-.25.89.89,0,0,0,.4-.82,1,1,0,0,0-.38-.86A1.77,1.77,0,0,0,153.8,240.36Z" transform="translate(-26.73 -54.94)" fill="#7e57c2" stroke="#7e57c2" stroke-miterlimit="10" stroke-width="0.25"/><path d="M160.69,244.81a5,5,0,0,0,.84.34,3.14,3.14,0,0,0,1,.17,1.86,1.86,0,0,0,1-.2.63.63,0,0,0,.32-.58.79.79,0,0,0-.42-.64,10.38,10.38,0,0,0-.95-.54,10.11,10.11,0,0,1-1.45-.92,1.71,1.71,0,0,1-.69-1.46,1.8,1.8,0,0,1,.65-1.37,2.69,2.69,0,0,1,1.82-.55,3.67,3.67,0,0,1,1.08.16,10,10,0,0,1,.95.37l-.46,1.1a6.4,6.4,0,0,0-.7-.3,2.33,2.33,0,0,0-.85-.14,1.47,1.47,0,0,0-.76.18.58.58,0,0,0-.31.55.78.78,0,0,0,.4.66,10.45,10.45,0,0,0,.95.56,9.48,9.48,0,0,1,1.47.92,1.71,1.71,0,0,1,.69,1.44,1.77,1.77,0,0,1-.7,1.41,3,3,0,0,1-2,.56,4.31,4.31,0,0,1-1.17-.2,2.62,2.62,0,0,1-1-.41Z" transform="translate(-26.73 -54.94)" fill="#7e57c2" stroke="#7e57c2" stroke-miterlimit="10" stroke-width="0.25"/><path d="M171.54,246.4h-5v-7.18h4.28l.21,1.08h-3.13v1.93h1.92l.22,1.09h-2.14v2h3.43Z" transform="translate(-26.73 -54.94)" fill="#7e57c2" stroke="#7e57c2" stroke-miterlimit="10" stroke-width="0.25"/><path d="M175.32,242.47h2.62V246a5.13,5.13,0,0,1-1,.37,5,5,0,0,1-1.25.15,3,3,0,0,1-2.51-1.08,4.13,4.13,0,0,1-.84-2.62,3.87,3.87,0,0,1,1-2.7,3.26,3.26,0,0,1,2.57-1.06,5.38,5.38,0,0,1,.9.1,3.49,3.49,0,0,1,1.06.36l-.43,1-.75-.21a2.72,2.72,0,0,0-.76-.08,1.94,1.94,0,0,0-1.53.65,2.82,2.82,0,0,0-.59,2,3.22,3.22,0,0,0,.48,1.87,1.61,1.61,0,0,0,1.42.69,5.21,5.21,0,0,0,.6,0l.44-.08v-1.75h-1.5Z" transform="translate(-26.73 -54.94)" fill="#7e57c2" stroke="#7e57c2" stroke-miterlimit="10" stroke-width="0.25"/><path d="M180.87,239.22v4.47a1.71,1.71,0,0,0,.43,1.3,1.57,1.57,0,0,0,1.12.4,1.52,1.52,0,0,0,1.12-.42,1.71,1.71,0,0,0,.43-1.28v-4.47h1.38v4.57a2.61,2.61,0,0,1-.79,1.94,3,3,0,0,1-2.14.78,2.87,2.87,0,0,1-2.14-.77,2.68,2.68,0,0,1-.78-2v-4.57Z" transform="translate(-26.73 -54.94)" fill="#7e57c2" stroke="#7e57c2" stroke-miterlimit="10" stroke-width="0.25"/><path d="M191.24,246.4l-1.52-2.75-.24,0h-1v2.73h-1.36v-7.18h2.25a3.58,3.58,0,0,1,2,.54,1.84,1.84,0,0,1,.83,1.67,1.9,1.9,0,0,1-.34,1.14,2.37,2.37,0,0,1-.88.75l1.76,3.08Zm-2-6h-.84v2.2h.87a2,2,0,0,0,1-.25.89.89,0,0,0,.4-.82,1,1,0,0,0-.38-.86A1.79,1.79,0,0,0,189.27,240.36Z" transform="translate(-26.73 -54.94)" fill="#7e57c2" stroke="#7e57c2" stroke-miterlimit="10" stroke-width="0.25"/><path d="M196.82,239.22l2.78,7-1.37.19-.64-1.69h-2.73l-.63,1.69h-1.37l2.8-7.18Zm-.62,1.88-.93,2.5h1.89Z" transform="translate(-26.73 -54.94)" fill="#7e57c2" stroke="#7e57c2" stroke-miterlimit="10" stroke-width="0.25"/><rect x="84.1" y="208.05" width="33.95" height="8.83" fill="#fff"/><path d="M116.72,273.23A1.48,1.48,0,0,1,116,273a1.38,1.38,0,0,1-.53-.54,1.8,1.8,0,0,1-.19-.82v-2h.4v2a1.29,1.29,0,0,0,.15.66,1,1,0,0,0,.41.38,1.35,1.35,0,0,0,.52.11,1.32,1.32,0,0,0,.53-.11,1,1,0,0,0,.41-.38,1.29,1.29,0,0,0,.16-.66v-2h.39v2a1.62,1.62,0,0,1-.19.81,1.42,1.42,0,0,1-.52.54A1.53,1.53,0,0,1,116.72,273.23Z" transform="translate(-26.73 -54.94)" fill="#7e57c2" stroke="#7e57c2" stroke-miterlimit="10" stroke-width="0.25"/><path d="M120.27,273.23a2.23,2.23,0,0,1-.84-.14,1,1,0,0,1-.48-.39,1.06,1.06,0,0,1-.18-.56h.41a.57.57,0,0,0,.17.41.83.83,0,0,0,.4.23,1.93,1.93,0,0,0,.55.07,1.4,1.4,0,0,0,.7-.15.52.52,0,0,0,.26-.46.35.35,0,0,0-.13-.3,1,1,0,0,0-.34-.19,4.49,4.49,0,0,0-.47-.13l-.51-.13a2.87,2.87,0,0,1-.47-.18A1,1,0,0,1,119,271a.64.64,0,0,1-.13-.42.86.86,0,0,1,.33-.7,1.53,1.53,0,0,1,1-.27,1.89,1.89,0,0,1,.77.14,1.12,1.12,0,0,1,.45.37,1,1,0,0,1,.16.49h-.4a.68.68,0,0,0-.26-.45,1.19,1.19,0,0,0-.72-.18,1.65,1.65,0,0,0-.48.06.82.82,0,0,0-.28.15.54.54,0,0,0-.13.19.68.68,0,0,0,0,.19.38.38,0,0,0,.12.29,1,1,0,0,0,.35.17,2.91,2.91,0,0,0,.47.13l.51.13a2.87,2.87,0,0,1,.47.18,1,1,0,0,1,.35.28.73.73,0,0,1,.12.43.88.88,0,0,1-.36.75A1.79,1.79,0,0,1,120.27,273.23Z" transform="translate(-26.73 -54.94)" fill="#7e57c2" stroke="#7e57c2" stroke-miterlimit="10" stroke-width="0.25"/><path d="M123.71,273.23a1.49,1.49,0,0,1-.77-.19,1.38,1.38,0,0,1-.53-.54,1.8,1.8,0,0,1-.19-.82v-2h.4v2a1.29,1.29,0,0,0,.15.66,1,1,0,0,0,.41.38,1.36,1.36,0,0,0,.53.11,1.31,1.31,0,0,0,.52-.11,1,1,0,0,0,.41-.38,1.29,1.29,0,0,0,.16-.66v-2h.39v2a1.62,1.62,0,0,1-.19.81,1.35,1.35,0,0,1-.52.54A1.52,1.52,0,0,1,123.71,273.23Z" transform="translate(-26.73 -54.94)" fill="#7e57c2" stroke="#7e57c2" stroke-miterlimit="10" stroke-width="0.25"/><path d="M125.47,273.19,127,269.7h.49l1.49,3.49h-.44l-.43-1h-1.73l-.43,1Zm1-1.38h1.43l-.71-1.7Z" transform="translate(-26.73 -54.94)" fill="#7e57c2" stroke="#7e57c2" stroke-miterlimit="10" stroke-width="0.25"/><path d="M129.37,273.19V269.7H131a1.21,1.21,0,0,1,.86.29,1,1,0,0,1,.32.8,1.08,1.08,0,0,1-.13.54.94.94,0,0,1-.33.3,1.56,1.56,0,0,1-.39.15l.92,1.41h-.47l-.84-1.34h-1.22v1.34Zm.39-1.72H131a1.74,1.74,0,0,0,.39-.05.72.72,0,0,0,.33-.21.6.6,0,0,0,.13-.42.64.64,0,0,0-.23-.53.88.88,0,0,0-.6-.19h-1.23Z" transform="translate(-26.73 -54.94)" fill="#7e57c2" stroke="#7e57c2" stroke-miterlimit="10" stroke-width="0.25"/><path d="M132.9,273.19V269.7h.39v3.49Z" transform="translate(-26.73 -54.94)" fill="#7e57c2" stroke="#7e57c2" stroke-miterlimit="10" stroke-width="0.25"/><path d="M135.7,273.23a1.9,1.9,0,0,1-.73-.14,1.79,1.79,0,0,1-.56-.38,2,2,0,0,1-.36-.58,1.9,1.9,0,0,1,0-1.38,1.85,1.85,0,0,1,.36-.57,1.67,1.67,0,0,1,.56-.39,1.95,1.95,0,0,1,1.45,0,1.57,1.57,0,0,1,.56.39,1.54,1.54,0,0,1,.36.57,1.9,1.9,0,0,1,0,1.38,1.66,1.66,0,0,1-.36.58,1.68,1.68,0,0,1-.56.38A1.89,1.89,0,0,1,135.7,273.23Zm0-.39a1.41,1.41,0,0,0,.73-.18,1.3,1.3,0,0,0,.48-.51,1.66,1.66,0,0,0,0-1.42,1.22,1.22,0,0,0-.48-.5,1.32,1.32,0,0,0-.73-.19,1.38,1.38,0,0,0-.74.19,1.26,1.26,0,0,0-.47.5,1.57,1.57,0,0,0,0,1.42,1.35,1.35,0,0,0,.47.51A1.47,1.47,0,0,0,135.7,272.84Z" transform="translate(-26.73 -54.94)" fill="#7e57c2" stroke="#7e57c2" stroke-miterlimit="10" stroke-width="0.25"/><path d="M138,271.09v-.54h.52v.54Zm0,2.1v-.54h.52v.54Z" transform="translate(-26.73 -54.94)" fill="#7e57c2" stroke="#7e57c2" stroke-miterlimit="10" stroke-width="0.25"/><rect x="85.44" y="221.26" width="98.38" height="8.87" fill="#fff"/><path d="M115.47,282.62v-3.08h.46V280a1.19,1.19,0,0,1,.33-.35,1,1,0,0,1,.61-.17,1.08,1.08,0,0,1,.57.17,1.12,1.12,0,0,1,.41.45,1.5,1.5,0,0,1,.19-.25,1.23,1.23,0,0,1,.35-.26,1.13,1.13,0,0,1,.51-.11,1,1,0,0,1,.56.16,1.12,1.12,0,0,1,.42.44,1.3,1.3,0,0,1,.16.67v1.86h-.46v-1.85a.84.84,0,0,0-.22-.62.68.68,0,0,0-.54-.24.86.86,0,0,0-.59.23.83.83,0,0,0-.24.64v1.84h-.46v-1.85a.88.88,0,0,0-.22-.62.72.72,0,0,0-.55-.24.83.83,0,0,0-.58.23.8.8,0,0,0-.25.64v1.84Z" transform="translate(-26.73 -54.94)"/><path d="M122.11,282.67a1.4,1.4,0,0,1-.79-.22,1.51,1.51,0,0,1-.52-.57,1.77,1.77,0,0,1-.18-.8,1.74,1.74,0,0,1,.18-.8,1.62,1.62,0,0,1,.52-.58,1.48,1.48,0,0,1,.79-.21,1.33,1.33,0,0,1,.65.15,1.17,1.17,0,0,1,.45.4v-.5h.46v3.08h-.46v-.5a1.17,1.17,0,0,1-.45.4A1.33,1.33,0,0,1,122.11,282.67Zm.06-.42a1.07,1.07,0,0,0,.58-.16,1,1,0,0,0,.36-.43,1.4,1.4,0,0,0,.12-.58,1.37,1.37,0,0,0-.12-.58,1,1,0,0,0-.36-.43,1.13,1.13,0,0,0-1.16,0,1.05,1.05,0,0,0-.38.43,1.24,1.24,0,0,0-.13.58,1.27,1.27,0,0,0,.13.58,1.05,1.05,0,0,0,.38.43A1.07,1.07,0,0,0,122.17,282.25Z" transform="translate(-26.73 -54.94)"/><path d="M124.47,282.62v-3.08h.46v.76a1,1,0,0,1,.1-.21,1.17,1.17,0,0,1,.2-.27,1.12,1.12,0,0,1,.35-.23,1,1,0,0,1,.48-.1h0V280H126a1,1,0,0,0-.59.19,1.15,1.15,0,0,0-.38.49,1.52,1.52,0,0,0-.14.63v1.36Z" transform="translate(-26.73 -54.94)"/><path d="M127.92,283.88a1.68,1.68,0,0,1-.94-.24,1.3,1.3,0,0,1-.49-.65H127a.68.68,0,0,0,.32.35,1.21,1.21,0,0,0,.58.13,1.06,1.06,0,0,0,.77-.25,1,1,0,0,0,.24-.73v-.42a1.31,1.31,0,0,1-.44.4,1.37,1.37,0,0,1-.66.15,1.42,1.42,0,0,1-.78-.21,1.34,1.34,0,0,1-.52-.56,1.63,1.63,0,0,1-.19-.8,1.59,1.59,0,0,1,.19-.79,1.34,1.34,0,0,1,.52-.56,1.42,1.42,0,0,1,.78-.21,1.37,1.37,0,0,1,.66.15,1.18,1.18,0,0,1,.44.39v-.49h.47v3a1.3,1.3,0,0,1-.38,1A1.51,1.51,0,0,1,127.92,283.88Zm0-1.68a1,1,0,0,0,.58-.16,1,1,0,0,0,.36-.41,1.24,1.24,0,0,0,.13-.58,1.2,1.2,0,0,0-.13-.57,1,1,0,0,0-.36-.42,1.06,1.06,0,0,0-.58-.15,1.09,1.09,0,0,0-.58.15,1,1,0,0,0-.38.42,1.33,1.33,0,0,0-.13.57,1.37,1.37,0,0,0,.13.58,1,1,0,0,0,.38.41A1,1,0,0,0,127.87,282.2Z" transform="translate(-26.73 -54.94)"/><path d="M131.47,282.67a1.35,1.35,0,0,1-.78-.22,1.36,1.36,0,0,1-.52-.57,1.66,1.66,0,0,1-.19-.8,1.63,1.63,0,0,1,.19-.8,1.45,1.45,0,0,1,.52-.58,1.42,1.42,0,0,1,.78-.21,1.37,1.37,0,0,1,.66.15,1.21,1.21,0,0,1,.44.4v-.5H133v3.08h-.47v-.5a1.21,1.21,0,0,1-.44.4A1.37,1.37,0,0,1,131.47,282.67Zm.06-.42a1.1,1.1,0,0,0,.59-.16,1.17,1.17,0,0,0,.36-.43,1.4,1.4,0,0,0,.12-.58,1.37,1.37,0,0,0-.12-.58,1.17,1.17,0,0,0-.36-.43,1,1,0,0,0-.59-.16,1,1,0,0,0-.58.16,1.13,1.13,0,0,0-.38.43,1.37,1.37,0,0,0-.13.58,1.41,1.41,0,0,0,.13.58,1.13,1.13,0,0,0,.38.43A1.09,1.09,0,0,0,131.53,282.25Z" transform="translate(-26.73 -54.94)"/><path d="M133.83,282.62v-3.08h.47v.76a.6.6,0,0,1,.09-.21,1.24,1.24,0,0,1,.21-.27,1.16,1.16,0,0,1,.83-.33h0V280h-.06a1,1,0,0,0-.59.19,1.23,1.23,0,0,0-.38.49,1.51,1.51,0,0,0-.13.63v1.36Z" transform="translate(-26.73 -54.94)"/><path d="M135.94,279v-.6h.5v.6Zm0,3.6v-3.08h.46v3.08Z" transform="translate(-26.73 -54.94)"/><path d="M137.55,282.62V280h-.63v-.41h.63v-1.1H138v1.1h.71V280H138v2.67Z" transform="translate(-26.73 -54.94)"/><path d="M140.46,282.67a1.35,1.35,0,0,1-.78-.22,1.36,1.36,0,0,1-.52-.57,1.66,1.66,0,0,1-.19-.8,1.63,1.63,0,0,1,.19-.8,1.45,1.45,0,0,1,.52-.58,1.42,1.42,0,0,1,.78-.21,1.4,1.4,0,0,1,.66.15,1.21,1.21,0,0,1,.44.4v-.5H142v3.08h-.46v-.5a1.21,1.21,0,0,1-.44.4A1.4,1.4,0,0,1,140.46,282.67Zm.06-.42a1,1,0,0,0,.58-.16,1,1,0,0,0,.36-.43,1.41,1.41,0,0,0,.13-.58,1.37,1.37,0,0,0-.13-.58,1,1,0,0,0-.36-.43,1,1,0,0,0-.58-.16,1,1,0,0,0-.58.16,1.05,1.05,0,0,0-.38.43,1.37,1.37,0,0,0-.13.58,1.41,1.41,0,0,0,.13.58,1.05,1.05,0,0,0,.38.43A1.09,1.09,0,0,0,140.52,282.25Z" transform="translate(-26.73 -54.94)"/><path d="M142.74,282.62v-.25a1,1,0,0,1,.17-.56,2.25,2.25,0,0,1,.42-.46c.17-.14.36-.28.56-.42l.55-.39a2.28,2.28,0,0,0,.42-.39.66.66,0,0,0,.17-.44.68.68,0,0,0-.24-.56,1,1,0,0,0-.68-.21,1.05,1.05,0,0,0-.66.19.71.71,0,0,0-.3.52h-.46a1.16,1.16,0,0,1,.23-.61,1.24,1.24,0,0,1,.5-.4,1.51,1.51,0,0,1,.68-.14,1.61,1.61,0,0,1,.76.16,1.15,1.15,0,0,1,.47.43,1.13,1.13,0,0,1,.16.61,1,1,0,0,1-.15.52,2.17,2.17,0,0,1-.4.47l-.52.4-.53.37a2.61,2.61,0,0,0-.42.36.62.62,0,0,0-.18.35h2.19v.45Z" transform="translate(-26.73 -54.94)"/><path d="M147.51,282.67a1.63,1.63,0,0,1-.7-.15,1.5,1.5,0,0,1-.52-.41,1.1,1.1,0,0,1-.23-.57h.47a.58.58,0,0,0,.17.34.9.9,0,0,0,.35.25,1.18,1.18,0,0,0,.46.09,1,1,0,0,0,.68-.22.71.71,0,0,0,.24-.54.63.63,0,0,0-.11-.38,1,1,0,0,0-.31-.29,1,1,0,0,0-.46-.1h-.46v-.43h.41a1,1,0,0,0,.39-.08.8.8,0,0,0,.3-.24.61.61,0,0,0-.1-.81.85.85,0,0,0-.6-.19.93.93,0,0,0-.6.18.66.66,0,0,0-.27.4h-.45a1,1,0,0,1,.19-.48,1.12,1.12,0,0,1,.44-.39,1.41,1.41,0,0,1,.67-.15,1.39,1.39,0,0,1,.95.3,1,1,0,0,1,.34.78.75.75,0,0,1-.1.38,1,1,0,0,1-.23.31.77.77,0,0,1-.29.18,1.17,1.17,0,0,1,.56.4,1,1,0,0,1,.19.6,1.11,1.11,0,0,1-.18.63,1.17,1.17,0,0,1-.5.43A1.47,1.47,0,0,1,147.51,282.67Z" transform="translate(-26.73 -54.94)"/><path d="M151.32,282.62v-1h-1.94v-.45l1.71-2.59h.7v2.63h.54v.41h-.54v1Zm-1.51-1.45h1.51v-2.23Z" transform="translate(-26.73 -54.94)"/><g opacity="0.21"><polygon points="87.2 229.04 99.34 228.92 111.49 228.87 135.78 228.78 160.07 228.86 172.21 228.9 184.36 229.02 172.21 229.14 160.07 229.19 135.78 229.28 111.49 229.2 99.34 229.16 87.2 229.04"/></g><path d="M116,299.88a1.63,1.63,0,0,1-.9-.24,1.61,1.61,0,0,1-.59-.65,2.12,2.12,0,0,1,0-1.8,1.61,1.61,0,0,1,.59-.65,1.63,1.63,0,0,1,.9-.24,1.8,1.8,0,0,1,.71.14,1.63,1.63,0,0,1,.54.39,1.44,1.44,0,0,1,.33.56h-.42a1,1,0,0,0-.41-.51,1.25,1.25,0,0,0-.72-.19,1.29,1.29,0,0,0-.72.19,1.15,1.15,0,0,0-.45.5,1.76,1.76,0,0,0,0,1.42,1.23,1.23,0,0,0,.45.51,1.37,1.37,0,0,0,.72.18,1.25,1.25,0,0,0,.72-.19,1,1,0,0,0,.41-.51h.42a1.61,1.61,0,0,1-.87.95A1.8,1.8,0,0,1,116,299.88Z" transform="translate(-26.73 -54.94)" fill="#7e57c2" stroke="#7e57c2" stroke-miterlimit="10" stroke-width="0.25"/><path d="M119.71,299.88a1.89,1.89,0,0,1-.72-.14,1.59,1.59,0,0,1-.56-.38,1.66,1.66,0,0,1-.36-.58,1.73,1.73,0,0,1-.13-.69,1.82,1.82,0,0,1,.13-.7,1.58,1.58,0,0,1,.36-.56,1.49,1.49,0,0,1,.56-.39,1.89,1.89,0,0,1,.72-.14,1.81,1.81,0,0,1,.72.14,1.61,1.61,0,0,1,.57.39,1.92,1.92,0,0,1,.36.56,2,2,0,0,1,.12.7,1.92,1.92,0,0,1-.12.69,2,2,0,0,1-.36.58,1.73,1.73,0,0,1-.57.38A1.81,1.81,0,0,1,119.71,299.88Zm0-.39a1.45,1.45,0,0,0,.74-.18,1.35,1.35,0,0,0,.47-.51,1.57,1.57,0,0,0,0-1.42,1.26,1.26,0,0,0-.47-.5,1.52,1.52,0,0,0-1.47,0,1.22,1.22,0,0,0-.48.5,1.57,1.57,0,0,0,0,1.42,1.3,1.3,0,0,0,.48.51A1.44,1.44,0,0,0,119.71,299.49Z" transform="translate(-26.73 -54.94)" fill="#7e57c2" stroke="#7e57c2" stroke-miterlimit="10" stroke-width="0.25"/><path d="M122.12,299.84v-3.5h.45l2.16,2.94v-2.94h.4v3.5h-.46l-2.16-2.95v2.95Z" transform="translate(-26.73 -54.94)" fill="#7e57c2" stroke="#7e57c2" stroke-miterlimit="10" stroke-width="0.25"/><path d="M126.85,299.84v-3.12h-1.22v-.38h2.83v.38h-1.22v3.12Z" transform="translate(-26.73 -54.94)" fill="#7e57c2" stroke="#7e57c2" stroke-miterlimit="10" stroke-width="0.25"/><path d="M129,299.84v-3.5h1.67a1.2,1.2,0,0,1,.86.3,1,1,0,0,1,.32.8,1,1,0,0,1-.13.53.89.89,0,0,1-.33.31,1.56,1.56,0,0,1-.39.15l.92,1.41h-.47l-.84-1.34h-1.21v1.34Zm.4-1.72h1.2a1.32,1.32,0,0,0,.39-.06.63.63,0,0,0,.33-.2.6.6,0,0,0,.13-.42.65.65,0,0,0-.22-.53.93.93,0,0,0-.61-.19h-1.22Z" transform="translate(-26.73 -54.94)" fill="#7e57c2" stroke="#7e57c2" stroke-miterlimit="10" stroke-width="0.25"/><path d="M132.08,299.84l1.48-3.5h.49l1.49,3.5h-.44l-.43-1h-1.73l-.43,1Zm1-1.38h1.43l-.71-1.7Z" transform="translate(-26.73 -54.94)" fill="#7e57c2" stroke="#7e57c2" stroke-miterlimit="10" stroke-width="0.25"/><path d="M137.23,299.88a2.16,2.16,0,0,1-.84-.14,1,1,0,0,1-.48-.39,1.17,1.17,0,0,1-.19-.56h.41a.62.62,0,0,0,.17.41,1,1,0,0,0,.4.23,1.93,1.93,0,0,0,.55.07,1.44,1.44,0,0,0,.71-.15.51.51,0,0,0,.25-.46.38.38,0,0,0-.12-.3,1,1,0,0,0-.35-.19c-.14,0-.3-.09-.46-.13l-.51-.13a2.87,2.87,0,0,1-.47-.18.93.93,0,0,1-.34-.27.64.64,0,0,1-.13-.42.86.86,0,0,1,.33-.7,1.51,1.51,0,0,1,1-.27,1.84,1.84,0,0,1,.76.14,1.12,1.12,0,0,1,.45.37,1,1,0,0,1,.17.49h-.41a.64.64,0,0,0-.26-.45,1.14,1.14,0,0,0-.71-.18,1.56,1.56,0,0,0-.48.06.73.73,0,0,0-.28.15.43.43,0,0,0-.13.19.46.46,0,0,0,0,.19.33.33,0,0,0,.13.28.85.85,0,0,0,.34.18l.47.13.52.13a2.87,2.87,0,0,1,.47.18,1,1,0,0,1,.34.28.67.67,0,0,1,.13.43.87.87,0,0,1-.37.75A1.73,1.73,0,0,1,137.23,299.88Z" transform="translate(-26.73 -54.94)" fill="#7e57c2" stroke="#7e57c2" stroke-miterlimit="10" stroke-width="0.25"/><path d="M139.22,299.84v-3.5h2.57v.38h-2.17v1.18h1.94v.38h-1.94v1.18h2.17v.38Z" transform="translate(-26.73 -54.94)" fill="#7e57c2" stroke="#7e57c2" stroke-miterlimit="10" stroke-width="0.25"/><path d="M142.43,299.84v-3.5h.46l2.15,2.94v-2.94h.4v3.5H145l-2.16-2.95v2.95Zm1.88-3.82a.6.6,0,0,1-.29,0l-.21-.1a.43.43,0,0,0-.22-.06.21.21,0,0,0-.18.07.55.55,0,0,0-.09.14h-.16a.93.93,0,0,1,.14-.36.42.42,0,0,1,.37-.16.7.7,0,0,1,.28.05l.22.11a.37.37,0,0,0,.21.06.25.25,0,0,0,.18-.07.41.41,0,0,0,.08-.14h.17a.72.72,0,0,1-.14.35A.4.4,0,0,1,144.31,296Z" transform="translate(-26.73 -54.94)" fill="#7e57c2" stroke="#7e57c2" stroke-miterlimit="10" stroke-width="0.25"/><path d="M145.88,299.84l1.48-3.5h.5l1.48,3.5h-.44l-.42-1h-1.73l-.43,1Zm1-1.38h1.42l-.71-1.7Z" transform="translate(-26.73 -54.94)" fill="#7e57c2" stroke="#7e57c2" stroke-miterlimit="10" stroke-width="0.25"/><path d="M149.64,297.74v-.54h.51v.54Zm0,2.1v-.54h.51v.54Z" transform="translate(-26.73 -54.94)" fill="#7e57c2" stroke="#7e57c2" stroke-miterlimit="10" stroke-width="0.25"/><path d="M125.63,368a1,1,0,0,1-.09.44,1.16,1.16,0,0,1-.22.31c-.09.09-.17.18-.26.26a1.44,1.44,0,0,0-.22.27.58.58,0,0,0-.09.33.66.66,0,0,0,.06.27.51.51,0,0,0,.21.23,1,1,0,0,0,.84,0,.78.78,0,0,0,.28-.26.89.89,0,0,0,.11-.35h.38a1.23,1.23,0,0,1-.17.53,1,1,0,0,1-.4.4,1.27,1.27,0,0,1-.6.14,1.16,1.16,0,0,1-.62-.14.84.84,0,0,1-.35-.35,1.07,1.07,0,0,1-.11-.46.83.83,0,0,1,.09-.41,1.08,1.08,0,0,1,.21-.3l.26-.25a1,1,0,0,0,.22-.28.72.72,0,0,0,.09-.37Zm.07-1v.54h-.51V367Z" transform="translate(-26.73 -54.94)" fill="#5000ff"/><path d="M129.11,369.71a1.89,1.89,0,0,1-.72-.14,1.68,1.68,0,0,1-.56-.38,1.72,1.72,0,0,1-.36-.57,1.82,1.82,0,0,1-.13-.7,1.73,1.73,0,0,1,.13-.69,1.54,1.54,0,0,1,.36-.57,1.57,1.57,0,0,1,.56-.39,1.95,1.95,0,0,1,1.45,0,1.67,1.67,0,0,1,.56.39,1.85,1.85,0,0,1,.36.57,1.93,1.93,0,0,1,.13.69,2,2,0,0,1-.13.7,2.12,2.12,0,0,1-.36.57,1.79,1.79,0,0,1-.56.38A1.9,1.9,0,0,1,129.11,369.71Zm0-.38a1.45,1.45,0,0,0,.74-.19,1.28,1.28,0,0,0,.47-.51,1.57,1.57,0,0,0,0-1.42,1.19,1.19,0,0,0-.47-.5,1.52,1.52,0,0,0-1.47,0,1.22,1.22,0,0,0-.48.5,1.66,1.66,0,0,0,0,1.42,1.3,1.3,0,0,0,.48.51A1.44,1.44,0,0,0,129.11,369.33Z" transform="translate(-26.73 -54.94)" fill="#5000ff"/><path d="M131.89,369.67V366h.4v3.69Z" transform="translate(-26.73 -54.94)" fill="#5000ff"/><path d="M134.15,369.67l-1-2.64h.43l.83,2.22.83-2.22h.43l-1,2.64Z" transform="translate(-26.73 -54.94)" fill="#5000ff"/><path d="M136.45,366.59v-.52h.43v.52Zm0,3.08V367h.4v2.64Z" transform="translate(-26.73 -54.94)" fill="#5000ff"/><path d="M139.12,369.71a1.24,1.24,0,0,1-.67-.18A1.33,1.33,0,0,1,138,369a1.66,1.66,0,0,1,0-1.38,1.33,1.33,0,0,1,.45-.49,1.24,1.24,0,0,1,.67-.18,1.08,1.08,0,0,1,.56.13,1,1,0,0,1,.39.34V366h.39v3.69h-.39v-.42a1,1,0,0,1-.39.33A1.08,1.08,0,0,1,139.12,369.71Zm.06-.36a.79.79,0,0,0,.49-.14.83.83,0,0,0,.31-.36,1.19,1.19,0,0,0,0-1,.83.83,0,0,0-.31-.36.79.79,0,0,0-.49-.14.85.85,0,0,0-.51.14.93.93,0,0,0-.32.36,1.19,1.19,0,0,0,0,1,.93.93,0,0,0,.32.36A.85.85,0,0,0,139.18,369.35Z" transform="translate(-26.73 -54.94)" fill="#5000ff"/><path d="M142.72,369.71a1.22,1.22,0,0,1-.67-.18,1.25,1.25,0,0,1-.45-.49,1.57,1.57,0,0,1,0-1.38,1.25,1.25,0,0,1,.45-.49,1.22,1.22,0,0,1,.67-.18,1.1,1.1,0,0,1,.56.13,1,1,0,0,1,.38.34V367h.4v2.64h-.4v-.42a1,1,0,0,1-.38.33A1.1,1.1,0,0,1,142.72,369.71Zm.05-.36a.82.82,0,0,0,.5-.14.9.9,0,0,0,.31-.36,1.3,1.3,0,0,0,0-1,.9.9,0,0,0-.31-.36.82.82,0,0,0-.5-.14.84.84,0,0,0-.5.14.86.86,0,0,0-.32.36,1.19,1.19,0,0,0,0,1,.86.86,0,0,0,.32.36A.84.84,0,0,0,142.77,369.35Z" transform="translate(-26.73 -54.94)" fill="#5000ff"/><path d="M146.16,369.71a1.38,1.38,0,0,1-.61-.12.87.87,0,0,1-.38-.32.83.83,0,0,1-.15-.43h.41a.67.67,0,0,0,.09.26.54.54,0,0,0,.24.2.94.94,0,0,0,.41.07h.19a1,1,0,0,0,.23-.06.46.46,0,0,0,.18-.13.3.3,0,0,0,.07-.21.31.31,0,0,0-.12-.26,1.26,1.26,0,0,0-.33-.14l-.43-.09-.42-.13a.93.93,0,0,1-.33-.21.59.59,0,0,1-.12-.39.63.63,0,0,1,.26-.55,1.2,1.2,0,0,1,.77-.2,1.35,1.35,0,0,1,.57.11.89.89,0,0,1,.33.27.87.87,0,0,1,.13.37h-.4a.45.45,0,0,0-.16-.29.77.77,0,0,0-.48-.12c-.42,0-.63.12-.63.38a.27.27,0,0,0,.13.24,1,1,0,0,0,.33.13l.42.1a2.58,2.58,0,0,1,.42.12.73.73,0,0,1,.33.23.53.53,0,0,1,.13.39.67.67,0,0,1-.3.59A1.36,1.36,0,0,1,146.16,369.71Z" transform="translate(-26.73 -54.94)" fill="#5000ff"/><path d="M148.49,369.67v-2.29H148V367h.54v-.94h.39V367h.61v.35h-.61v2.29Z" transform="translate(-26.73 -54.94)" fill="#5000ff"/><path d="M151.5,369.71a1.33,1.33,0,0,1-.7-.18,1.3,1.3,0,0,1-.47-.49,1.47,1.47,0,0,1-.17-.69,1.59,1.59,0,0,1,.16-.69,1.25,1.25,0,0,1,1.15-.67,1.3,1.3,0,0,1,.7.18,1.18,1.18,0,0,1,.45.49,1.46,1.46,0,0,1,.16.69v.16h-2.21a1.06,1.06,0,0,0,.15.42,1,1,0,0,0,.32.31,1,1,0,0,0,.46.11.82.82,0,0,0,.77-.44h.43a1.38,1.38,0,0,1-.43.58A1.25,1.25,0,0,1,151.5,369.71Zm-.92-1.57h1.79a1,1,0,0,0-.29-.57.82.82,0,0,0-.61-.22.85.85,0,0,0-.61.22A1,1,0,0,0,150.58,368.14Z" transform="translate(-26.73 -54.94)" fill="#5000ff"/><path d="M155.59,369.67v-2.29h-.54V367h.54v-.94h.4V367h.6v.35H156v2.29Z" transform="translate(-26.73 -54.94)" fill="#5000ff"/><path d="M158.51,369.71a1,1,0,0,1-.51-.13,1,1,0,0,1-.39-.38,1.22,1.22,0,0,1-.15-.63V367h.39v1.53a.79.79,0,0,0,.21.57.69.69,0,0,0,.53.22.77.77,0,0,0,.4-.1.78.78,0,0,0,.29-.28.82.82,0,0,0,.11-.42V367h.39v2.64h-.39v-.41a1.53,1.53,0,0,1-.35.32A1,1,0,0,1,158.51,369.71Z" transform="translate(-26.73 -54.94)" fill="#5000ff"/><path d="M163.64,369.71a1.25,1.25,0,0,1-.68-.18,1.18,1.18,0,0,1-.45-.49,1.57,1.57,0,0,1,0-1.38,1.18,1.18,0,0,1,.45-.49,1.25,1.25,0,0,1,.68-.18,1.31,1.31,0,0,1,.8.24,1.19,1.19,0,0,1,.45.63h-.43a.79.79,0,0,0-.76-.51.85.85,0,0,0-.51.14.82.82,0,0,0-.33.36,1.1,1.1,0,0,0,0,1,.82.82,0,0,0,.33.36.85.85,0,0,0,.51.14.82.82,0,0,0,.47-.14.87.87,0,0,0,.29-.37h.43a1.19,1.19,0,0,1-.45.63A1.31,1.31,0,0,1,163.64,369.71Z" transform="translate(-26.73 -54.94)" fill="#5000ff"/><path d="M167,369.71a1.22,1.22,0,0,1-1.15-.67,1.57,1.57,0,0,1,0-1.38,1.3,1.3,0,0,1,2.3,0,1.57,1.57,0,0,1,0,1.38,1.22,1.22,0,0,1-1.15.67Zm0-.36a.82.82,0,0,0,.5-.14.9.9,0,0,0,.31-.36,1.3,1.3,0,0,0,0-1,.9.9,0,0,0-.31-.36.82.82,0,0,0-.5-.14.84.84,0,0,0-.5.14.9.9,0,0,0-.31.36,1.3,1.3,0,0,0,0,1,.9.9,0,0,0,.31.36A.84.84,0,0,0,167,369.35Z" transform="translate(-26.73 -54.94)" fill="#5000ff"/><path d="M169.27,369.67V367h.39v.41a1.78,1.78,0,0,1,.35-.32,1,1,0,0,1,.53-.13,1,1,0,0,1,.51.13,1,1,0,0,1,.39.38,1.22,1.22,0,0,1,.15.63v1.54h-.39v-1.53a.79.79,0,0,0-.21-.57.67.67,0,0,0-.53-.22.77.77,0,0,0-.4.1.71.71,0,0,0-.29.28.82.82,0,0,0-.11.42v1.52Z" transform="translate(-26.73 -54.94)" fill="#5000ff"/><path d="M172.93,369.67v-2.29h-.53V367h.53v-.94h.4V367h.61v.35h-.61v2.29Z" transform="translate(-26.73 -54.94)" fill="#5000ff"/><path d="M174.83,369.67V367h.39v.65a1.26,1.26,0,0,1,.08-.18.9.9,0,0,1,.18-.23,1,1,0,0,1,.29-.2,1.08,1.08,0,0,1,.42-.08h0v.39h-.05a.8.8,0,0,0-.51.17.94.94,0,0,0-.32.41,1.26,1.26,0,0,0-.12.55v1.16Z" transform="translate(-26.73 -54.94)" fill="#5000ff"/><path d="M178.15,369.71a1.22,1.22,0,0,1-.67-.18A1.25,1.25,0,0,1,177,369a1.57,1.57,0,0,1,0-1.38,1.25,1.25,0,0,1,.45-.49,1.22,1.22,0,0,1,.67-.18,1.1,1.1,0,0,1,.56.13,1,1,0,0,1,.38.34V367h.4v2.64h-.4v-.42a1,1,0,0,1-.38.33A1.1,1.1,0,0,1,178.15,369.71Zm0-.36a.82.82,0,0,0,.5-.14.9.9,0,0,0,.31-.36,1.3,1.3,0,0,0,0-1,.9.9,0,0,0-.31-.36.82.82,0,0,0-.5-.14.84.84,0,0,0-.5.14.86.86,0,0,0-.32.36,1.19,1.19,0,0,0,0,1,.86.86,0,0,0,.32.36A.84.84,0,0,0,178.2,369.35Z" transform="translate(-26.73 -54.94)" fill="#5000ff"/><path d="M181.59,369.71a1.38,1.38,0,0,1-.61-.12.87.87,0,0,1-.38-.32.83.83,0,0,1-.15-.43h.41a.67.67,0,0,0,.09.26.54.54,0,0,0,.24.2.94.94,0,0,0,.41.07h.19a1,1,0,0,0,.23-.06.46.46,0,0,0,.18-.13.3.3,0,0,0,.07-.21.31.31,0,0,0-.12-.26,1.26,1.26,0,0,0-.33-.14l-.43-.09-.42-.13a.93.93,0,0,1-.33-.21.59.59,0,0,1-.12-.39.63.63,0,0,1,.26-.55,1.2,1.2,0,0,1,.77-.2,1.35,1.35,0,0,1,.57.11.89.89,0,0,1,.33.27.87.87,0,0,1,.13.37h-.4a.45.45,0,0,0-.16-.29.77.77,0,0,0-.48-.12c-.42,0-.63.12-.63.38a.27.27,0,0,0,.13.24,1,1,0,0,0,.33.13l.42.1a2.58,2.58,0,0,1,.42.12.73.73,0,0,1,.33.23.53.53,0,0,1,.13.39.69.69,0,0,1-.29.59A1.42,1.42,0,0,1,181.59,369.71Z" transform="translate(-26.73 -54.94)" fill="#5000ff"/><path d="M184.8,369.71a1.35,1.35,0,0,1-.7-.18,1.27,1.27,0,0,1-.46-.49,1.36,1.36,0,0,1-.17-.69,1.46,1.46,0,0,1,.16-.69,1.18,1.18,0,0,1,.45-.49,1.3,1.3,0,0,1,1.85.49,1.58,1.58,0,0,1,.15.69v.16h-2.2a1.06,1.06,0,0,0,.15.42.84.84,0,0,0,.31.31,1,1,0,0,0,.47.11.86.86,0,0,0,.47-.12.89.89,0,0,0,.29-.32H186a1.4,1.4,0,0,1-.44.58A1.23,1.23,0,0,1,184.8,369.71Zm-.92-1.57h1.79a1,1,0,0,0-.28-.57.85.85,0,0,0-.61-.22.82.82,0,0,0-.61.22A1.07,1.07,0,0,0,183.88,368.14Z" transform="translate(-26.73 -54.94)" fill="#5000ff"/><path d="M187,369.67V367h.39v.41a1.53,1.53,0,0,1,.35-.32,1,1,0,0,1,.53-.13,1,1,0,0,1,.51.13,1,1,0,0,1,.39.38,1.22,1.22,0,0,1,.15.63v1.54H189v-1.53a.79.79,0,0,0-.21-.57.67.67,0,0,0-.53-.22.77.77,0,0,0-.4.1.71.71,0,0,0-.29.28.82.82,0,0,0-.11.42v1.52Zm1.47-3a.79.79,0,0,1-.29-.05l-.21-.11a.4.4,0,0,0-.22-.05.21.21,0,0,0-.18.07.46.46,0,0,0-.08.13h-.16a.64.64,0,0,1,.14-.35.4.4,0,0,1,.37-.16.61.61,0,0,1,.28.05l.21.11a.51.51,0,0,0,.22.05.23.23,0,0,0,.18-.07.5.5,0,0,0,.08-.14H189a.93.93,0,0,1-.14.36A.45.45,0,0,1,188.5,366.67Z" transform="translate(-26.73 -54.94)" fill="#5000ff"/><path d="M191.58,369.71a1.24,1.24,0,0,1-.67-.18,1.22,1.22,0,0,1-.44-.49,1.57,1.57,0,0,1,0-1.38,1.22,1.22,0,0,1,.44-.49,1.24,1.24,0,0,1,.67-.18,1.14,1.14,0,0,1,.57.13,1,1,0,0,1,.38.34V367h.39v2.64h-.39v-.42a1.1,1.1,0,0,1-.38.33A1.14,1.14,0,0,1,191.58,369.71Zm.06-.36a.84.84,0,0,0,.5-.14.88.88,0,0,0,.3-.36,1.19,1.19,0,0,0,0-1,.88.88,0,0,0-.3-.36.84.84,0,0,0-.5-.14.82.82,0,0,0-.5.14,1,1,0,0,0-.33.36,1.19,1.19,0,0,0,0,1,1,1,0,0,0,.33.36A.82.82,0,0,0,191.64,369.35Z" transform="translate(-26.73 -54.94)" fill="#5000ff"/><path d="M194.92,368.7a1,1,0,0,1,.09-.44,1.44,1.44,0,0,1,.22-.31l.26-.26a1.13,1.13,0,0,0,.22-.27.58.58,0,0,0,.09-.33.66.66,0,0,0-.06-.27.51.51,0,0,0-.21-.23.74.74,0,0,0-.4-.09.87.87,0,0,0-.44.1.68.68,0,0,0-.27.26.76.76,0,0,0-.11.35h-.38a1.15,1.15,0,0,1,.56-.93,1.17,1.17,0,0,1,.61-.15,1.26,1.26,0,0,1,.62.14,1,1,0,0,1,.35.36,1.07,1.07,0,0,1,.11.46.86.86,0,0,1-.09.41,1.29,1.29,0,0,1-.22.3l-.26.25a1,1,0,0,0-.22.28.84.84,0,0,0-.08.37Zm-.06,1v-.54h.51v.54Z" transform="translate(-26.73 -54.94)" fill="#5000ff"/></svg>