<svg xmlns="http://www.w3.org/2000/svg" xmlns:xlink="http://www.w3.org/1999/xlink" viewBox="0 0 150 150"><defs><style>.cls-1,.cls-8{fill:none;}.cls-2{isolation:isolate;}.cls-3{fill:#b3b8dd;}.cls-4{opacity:0.63;}.cls-4,.cls-5{mix-blend-mode:multiply;}.cls-5{fill:#4146a6;opacity:0.25;}.cls-6{clip-path:url(#clip-path);}.cls-7{fill:#fff;}.cls-8{stroke:#fff;stroke-miterlimit:10;stroke-width:0.59px;}</style><clipPath id="clip-path" transform="translate(0.07 -0.32)"><circle class="cls-1" cx="74.93" cy="75.32" r="66.22"/></clipPath></defs><g class="cls-2"><g id="Ic_quiénes" data-name="Ic quiénes"><circle class="cls-3" cx="74.93" cy="75.32" r="75" transform="translate(-16.13 129.62) rotate(-76.08)"/><g class="cls-4"><path class="cls-5" d="M36.1,84.28a4.68,4.68,0,0,1,3.08,1.12,3.64,3.64,0,0,1,0,5.64A4.83,4.83,0,0,1,33,91a3.65,3.65,0,0,1,0-5.64,4.72,4.72,0,0,1,3.08-1.12ZM29,101.9a.77.77,0,0,1,.77-.76.76.76,0,0,1,.76.76,2.89,2.89,0,0,1-1.09,2.22,4,4,0,0,1-4.92,0,2.89,2.89,0,0,1-1.09-2.22,5,5,0,0,1,1.91-3.85,7.18,7.18,0,0,1,8.86,0,5,5,0,0,1,1.91,3.85,7.13,7.13,0,0,1-2.73,5.48,10.41,10.41,0,0,1-12.8,0,7.13,7.13,0,0,1-2.73-5.48,9.23,9.23,0,0,1,3.55-7.11,13.14,13.14,0,0,1,8.37-2.88,13.14,13.14,0,0,1,8.37,2.88,9.23,9.23,0,0,1,3.55,7.11.77.77,0,0,1-.77.76.76.76,0,0,1-.76-.76,7.76,7.76,0,0,0-3-5.94,11.63,11.63,0,0,0-7.4-2.53A11.63,11.63,0,0,0,22.36,96a7.73,7.73,0,0,0-3,5.94,5.63,5.63,0,0,0,2.17,4.31,8.93,8.93,0,0,0,10.86,0,5.63,5.63,0,0,0,2.17-4.31,3.5,3.5,0,0,0-1.36-2.68,5.69,5.69,0,0,0-6.91,0,3.5,3.5,0,0,0-1.36,2.68,1.36,1.36,0,0,0,.54,1,2.35,2.35,0,0,0,1.49.5,2.3,2.3,0,0,0,1.48-.5,1.36,1.36,0,0,0,.54-1Zm9.2-15.35a3.24,3.24,0,0,0-2.09-.74,3.19,3.19,0,0,0-2.08.74,2.21,2.21,0,0,0-.81,1.67A2.24,2.24,0,0,0,34,89.89a3.19,3.19,0,0,0,2.08.74,3.24,3.24,0,0,0,2.09-.74,2.26,2.26,0,0,0,.8-1.67,2.23,2.23,0,0,0-.8-1.67Z" transform="translate(0.07 -0.32)"/><path class="cls-5" d="M61.8,109.23a4.72,4.72,0,0,1,3.08,1.11,3.65,3.65,0,0,1,0,5.64,4.81,4.81,0,0,1-6.17,0,3.65,3.65,0,0,1,0-5.64,4.72,4.72,0,0,1,3.09-1.11Zm-7.11,17.61a.76.76,0,0,1,.76-.76.77.77,0,0,1,.77.76,2.85,2.85,0,0,1-1.1,2.22,3.93,3.93,0,0,1-4.91,0,2.84,2.84,0,0,1-1.09-2.22A5,5,0,0,1,51,123a7.18,7.18,0,0,1,8.86,0,5,5,0,0,1,1.91,3.84,7.15,7.15,0,0,1-2.72,5.49,10.42,10.42,0,0,1-12.81,0,7.14,7.14,0,0,1-2.72-5.49,9.24,9.24,0,0,1,3.54-7.11,13.62,13.62,0,0,1,16.75,0,9.27,9.27,0,0,1,3.54,7.11.77.77,0,1,1-1.53,0,7.73,7.73,0,0,0-3-5.93,12.07,12.07,0,0,0-14.79,0,7.73,7.73,0,0,0-3,5.93,5.61,5.61,0,0,0,2.17,4.31,8.88,8.88,0,0,0,10.85,0,5.58,5.58,0,0,0,2.17-4.31,3.5,3.5,0,0,0-1.35-2.67,5.69,5.69,0,0,0-6.91,0,3.48,3.48,0,0,0-1.36,2.67,1.4,1.4,0,0,0,.54,1,2.46,2.46,0,0,0,3,0,1.4,1.4,0,0,0,.54-1Zm9.19-15.35a3.19,3.19,0,0,0-2.08-.74,3.24,3.24,0,0,0-2.09.74,2.14,2.14,0,0,0,0,3.34,3.24,3.24,0,0,0,2.09.74,3.19,3.19,0,0,0,2.08-.74,2.14,2.14,0,0,0,0-3.34Z" transform="translate(0.07 -0.32)"/><path class="cls-5" d="M72.69,11.88A4.73,4.73,0,0,1,75.78,13a3.64,3.64,0,0,1,0,5.63,4.81,4.81,0,0,1-6.17,0,3.64,3.64,0,0,1,0-5.63,4.72,4.72,0,0,1,3.08-1.12ZM79.8,29.49a1.38,1.38,0,0,0,.54,1.05,2.46,2.46,0,0,0,3,0,1.38,1.38,0,0,0,.54-1.05,3.5,3.5,0,0,0-1.36-2.67,5.69,5.69,0,0,0-6.91,0,3.52,3.52,0,0,0-1.35,2.67,5.62,5.62,0,0,0,2.17,4.32,8.92,8.92,0,0,0,10.85,0,5.65,5.65,0,0,0,2.17-4.32,7.73,7.73,0,0,0-3-5.93,12.07,12.07,0,0,0-14.79,0,7.73,7.73,0,0,0-3,5.93.77.77,0,1,1-1.53,0,9.28,9.28,0,0,1,3.54-7.11,13.65,13.65,0,0,1,16.75,0A9.25,9.25,0,0,1,91,29.49,7.14,7.14,0,0,1,88.23,35a10.42,10.42,0,0,1-12.81,0,7.15,7.15,0,0,1-2.72-5.49,5,5,0,0,1,1.91-3.84,7.18,7.18,0,0,1,8.86,0,5,5,0,0,1,1.9,3.84,2.87,2.87,0,0,1-1.09,2.23,4,4,0,0,1-4.91,0,2.88,2.88,0,0,1-1.1-2.23.77.77,0,0,1,.77-.76.77.77,0,0,1,.76.76ZM70.61,14.15a2.12,2.12,0,0,0,0,3.33,3.14,3.14,0,0,0,2.08.75,3.19,3.19,0,0,0,2.09-.75,2.13,2.13,0,0,0,0-3.33,3.18,3.18,0,0,0-2.09-.74,3.14,3.14,0,0,0-2.08.74Z" transform="translate(0.07 -0.32)"/><path class="cls-5" d="M111.51,88.23a4.72,4.72,0,0,1,3.08,1.11,3.65,3.65,0,0,1,0,5.64,4.79,4.79,0,0,1-6.16,0,3.64,3.64,0,0,1,0-5.64,4.68,4.68,0,0,1,3.08-1.11Zm7.11,17.61a1.4,1.4,0,0,0,.54,1,2.35,2.35,0,0,0,1.48.5,2.4,2.4,0,0,0,1.49-.5,1.4,1.4,0,0,0,.54-1,3.48,3.48,0,0,0-1.36-2.67,5.69,5.69,0,0,0-6.91,0,3.48,3.48,0,0,0-1.36,2.67,5.61,5.61,0,0,0,2.17,4.31,8.89,8.89,0,0,0,10.86,0,5.61,5.61,0,0,0,2.17-4.31,7.73,7.73,0,0,0-3-5.93,12.09,12.09,0,0,0-14.8,0,7.75,7.75,0,0,0-3,5.93.77.77,0,0,1-.77.77.76.76,0,0,1-.76-.77,9.24,9.24,0,0,1,3.54-7.11,13.62,13.62,0,0,1,16.75,0,9.24,9.24,0,0,1,3.54,7.11,7.15,7.15,0,0,1-2.73,5.49,10.41,10.41,0,0,1-12.8,0,7.16,7.16,0,0,1-2.73-5.49,5,5,0,0,1,1.92-3.84,7.16,7.16,0,0,1,8.85,0,5,5,0,0,1,1.91,3.84,2.87,2.87,0,0,1-1.09,2.22,3.87,3.87,0,0,1-2.46.86,3.82,3.82,0,0,1-2.45-.86,2.85,2.85,0,0,1-1.1-2.22.77.77,0,0,1,1.53,0Zm-9.2-15.35a2.14,2.14,0,0,0,0,3.34,3.24,3.24,0,0,0,2.09.74,3.19,3.19,0,0,0,2.08-.74,2.13,2.13,0,0,0,0-3.34,3.19,3.19,0,0,0-2.08-.74,3.24,3.24,0,0,0-2.09.74Z" transform="translate(0.07 -0.32)"/><path class="cls-5" d="M120.5,60.28a4.73,4.73,0,0,1,3.09,1.12,3.65,3.65,0,0,1,0,5.64,4.84,4.84,0,0,1-6.17,0,3.65,3.65,0,0,1,0-5.64,4.72,4.72,0,0,1,3.08-1.12Zm7.11,17.62a1.36,1.36,0,0,0,.54,1,2.46,2.46,0,0,0,3,0,1.36,1.36,0,0,0,.54-1,3.5,3.5,0,0,0-1.36-2.68,5.69,5.69,0,0,0-6.91,0A3.52,3.52,0,0,0,122,77.9a5.6,5.6,0,0,0,2.17,4.31,8.92,8.92,0,0,0,10.85,0,5.6,5.6,0,0,0,2.17-4.31,7.75,7.75,0,0,0-3-5.94,12.09,12.09,0,0,0-14.8,0,7.73,7.73,0,0,0-3,5.94.77.77,0,0,1-1.53,0,9.25,9.25,0,0,1,3.54-7.11,13.62,13.62,0,0,1,16.75,0,9.22,9.22,0,0,1,3.54,7.11A7.12,7.12,0,0,1,136,83.38a10.42,10.42,0,0,1-12.81,0,7.12,7.12,0,0,1-2.72-5.48,5,5,0,0,1,1.91-3.85,7.18,7.18,0,0,1,8.86,0,5,5,0,0,1,1.91,3.85,2.89,2.89,0,0,1-1.09,2.22,4,4,0,0,1-4.92,0,2.86,2.86,0,0,1-1.1-2.22.77.77,0,0,1,.77-.76.76.76,0,0,1,.76.76Zm-9.19-15.35a2.2,2.2,0,0,0-.8,1.67,2.23,2.23,0,0,0,.8,1.67,3.31,3.31,0,0,0,4.17,0,2.23,2.23,0,0,0,.8-1.67,2.2,2.2,0,0,0-.8-1.67,3.31,3.31,0,0,0-4.17,0Z" transform="translate(0.07 -0.32)"/><path class="cls-5" d="M109.85,26.52a4.67,4.67,0,0,1,3.08,1.12,3.64,3.64,0,0,1,0,5.63,4.8,4.8,0,0,1-6.16,0,3.63,3.63,0,0,1,0-5.63,4.63,4.63,0,0,1,3.08-1.12ZM117,44.13a1.35,1.35,0,0,0,.54,1,2.3,2.3,0,0,0,1.48.5,2.35,2.35,0,0,0,1.49-.5,1.37,1.37,0,0,0,.53-1,3.49,3.49,0,0,0-1.35-2.67,5.69,5.69,0,0,0-6.91,0,3.5,3.5,0,0,0-1.36,2.67,5.61,5.61,0,0,0,2.17,4.31,8.89,8.89,0,0,0,10.86,0,5.61,5.61,0,0,0,2.17-4.31,7.73,7.73,0,0,0-3-5.93,12.09,12.09,0,0,0-14.8,0,7.73,7.73,0,0,0-3,5.93.76.76,0,0,1-.76.77.77.77,0,0,1-.77-.77A9.25,9.25,0,0,1,107.82,37a13.64,13.64,0,0,1,16.74,0,9.25,9.25,0,0,1,3.55,7.11,7.15,7.15,0,0,1-2.73,5.49,10.41,10.41,0,0,1-12.8,0,7.16,7.16,0,0,1-2.73-5.49,5,5,0,0,1,1.91-3.84,7.18,7.18,0,0,1,8.86,0,5,5,0,0,1,1.91,3.84,2.87,2.87,0,0,1-1.09,2.22,3.95,3.95,0,0,1-4.92,0,2.87,2.87,0,0,1-1.09-2.22.76.76,0,0,1,.76-.76.77.77,0,0,1,.77.76Zm-9.2-15.34a2.13,2.13,0,0,0,0,3.33,3.18,3.18,0,0,0,2.09.74,3.14,3.14,0,0,0,2.08-.74,2.12,2.12,0,0,0,0-3.33,3.14,3.14,0,0,0-2.08-.75,3.19,3.19,0,0,0-2.09.75Z" transform="translate(0.07 -0.32)"/><path class="cls-5" d="M97.38,112.64a4.68,4.68,0,0,1,3.08,1.12,3.64,3.64,0,0,1,0,5.64,4.83,4.83,0,0,1-6.16,0,3.64,3.64,0,0,1,0-5.64,4.68,4.68,0,0,1,3.08-1.12Zm-7.11,17.62a.77.77,0,0,1,1.53,0,2.86,2.86,0,0,1-1.1,2.22,4,4,0,0,1-4.91,0,2.89,2.89,0,0,1-1.09-2.22,5,5,0,0,1,1.9-3.85,7.18,7.18,0,0,1,8.86,0,5,5,0,0,1,1.91,3.85,7.12,7.12,0,0,1-2.72,5.48,10.42,10.42,0,0,1-12.81,0,7.12,7.12,0,0,1-2.72-5.48,9.22,9.22,0,0,1,3.54-7.11,13.62,13.62,0,0,1,16.75,0,9.25,9.25,0,0,1,3.54,7.11.77.77,0,0,1-1.53,0,7.73,7.73,0,0,0-3-5.94,12.07,12.07,0,0,0-14.79,0,7.73,7.73,0,0,0-3,5.94,5.63,5.63,0,0,0,2.17,4.31,8.92,8.92,0,0,0,10.85,0,5.6,5.6,0,0,0,2.17-4.31,3.52,3.52,0,0,0-1.35-2.68,5.69,5.69,0,0,0-6.91,0,3.5,3.5,0,0,0-1.36,2.68,1.36,1.36,0,0,0,.54,1,2.46,2.46,0,0,0,3,0,1.36,1.36,0,0,0,.54-1Zm9.19-15.35a3.19,3.19,0,0,0-2.08-.74,3.24,3.24,0,0,0-2.09.74,2.23,2.23,0,0,0-.8,1.67,2.26,2.26,0,0,0,.8,1.67,3.24,3.24,0,0,0,2.09.74,3.19,3.19,0,0,0,2.08-.74,2.24,2.24,0,0,0,.81-1.67,2.21,2.21,0,0,0-.81-1.67Z" transform="translate(0.07 -0.32)"/><path class="cls-5" d="M45.05,20.52a4.67,4.67,0,0,1,3.08,1.12,3.64,3.64,0,0,1,0,5.63,4.81,4.81,0,0,1-6.17,0,3.64,3.64,0,0,1,0-5.63,4.68,4.68,0,0,1,3.09-1.12ZM37.94,38.13a.76.76,0,0,1,.76-.76.77.77,0,0,1,.77.76,2.85,2.85,0,0,1-1.1,2.22,3.93,3.93,0,0,1-4.91,0,2.84,2.84,0,0,1-1.09-2.22,5,5,0,0,1,1.9-3.84,7.18,7.18,0,0,1,8.86,0A5,5,0,0,1,45,38.13a7.15,7.15,0,0,1-2.72,5.49,10.42,10.42,0,0,1-12.81,0,7.14,7.14,0,0,1-2.72-5.49A9.24,9.24,0,0,1,30.33,31a13.65,13.65,0,0,1,16.75,0,9.27,9.27,0,0,1,3.54,7.11.77.77,0,1,1-1.53,0,7.73,7.73,0,0,0-3-5.93,12.07,12.07,0,0,0-14.79,0,7.73,7.73,0,0,0-3,5.93,5.61,5.61,0,0,0,2.17,4.31,8.88,8.88,0,0,0,10.85,0,5.58,5.58,0,0,0,2.17-4.31,3.52,3.52,0,0,0-1.35-2.67,5.69,5.69,0,0,0-6.91,0,3.5,3.5,0,0,0-1.36,2.67,1.38,1.38,0,0,0,.54,1,2.46,2.46,0,0,0,3,0,1.38,1.38,0,0,0,.54-1Zm9.19-15.34A3.14,3.14,0,0,0,45.05,22a3.19,3.19,0,0,0-2.09.75,2.13,2.13,0,0,0,0,3.33,3.18,3.18,0,0,0,2.09.74,3.14,3.14,0,0,0,2.08-.74,2.12,2.12,0,0,0,0-3.33Z" transform="translate(0.07 -0.32)"/><path class="cls-5" d="M29.15,55.26a4.72,4.72,0,0,1,3.08,1.12,3.72,3.72,0,0,1,1.33,2.81A3.76,3.76,0,0,1,32.23,62a4.84,4.84,0,0,1-6.17,0,3.76,3.76,0,0,1-1.33-2.83,3.72,3.72,0,0,1,1.33-2.81,4.73,4.73,0,0,1,3.09-1.12ZM22,72.88a.76.76,0,1,1,1.52,0,2.87,2.87,0,0,1-1.09,2.22,4,4,0,0,1-4.92,0,2.9,2.9,0,0,1-1.09-2.22A5,5,0,0,1,18.37,69a7.18,7.18,0,0,1,8.86,0,5,5,0,0,1,1.91,3.85,7.13,7.13,0,0,1-2.72,5.48A10.1,10.1,0,0,1,20,80.56a10.07,10.07,0,0,1-6.4-2.2,7.13,7.13,0,0,1-2.72-5.48,9.26,9.26,0,0,1,3.54-7.12,13.19,13.19,0,0,1,8.37-2.87,13.22,13.22,0,0,1,8.38,2.87,9.29,9.29,0,0,1,3.54,7.12.77.77,0,0,1-1.53,0,7.73,7.73,0,0,0-3-5.94,11.63,11.63,0,0,0-7.4-2.53,11.65,11.65,0,0,0-7.4,2.53,7.75,7.75,0,0,0-3,5.94,5.6,5.6,0,0,0,2.17,4.31A8.52,8.52,0,0,0,20,79a8.53,8.53,0,0,0,5.43-1.84,5.63,5.63,0,0,0,2.17-4.31,3.52,3.52,0,0,0-1.35-2.68,5.69,5.69,0,0,0-6.91,0A3.5,3.5,0,0,0,18,72.88a1.35,1.35,0,0,0,.54,1,2.46,2.46,0,0,0,3,0,1.38,1.38,0,0,0,.54-1Zm9.19-15.35a3.31,3.31,0,0,0-4.17,0,2.13,2.13,0,0,0,0,3.33,3.27,3.27,0,0,0,4.17,0,2.13,2.13,0,0,0,0-3.33Z" transform="translate(0.07 -0.32)"/></g><g class="cls-6"><path class="cls-7" d="M75.75,62.25A19.08,19.08,0,1,0,46.91,60.1l-5.07,5.06L34.58,57.9l-4,4,7.26,7.26-5.6,5.59,4,4,5.59-5.59,7.26,7.26,4-4-7.26-7.26,5.07-5.06A19.09,19.09,0,0,0,75.75,62.25Zm-23-23a13.41,13.41,0,1,1,0,19A13.41,13.41,0,0,1,52.77,39.28Z" transform="translate(0.07 -0.32)"/><path class="cls-7" d="M84.43,72.32a18.24,18.24,0,1,0,15.32,23l9.72,1.21-4.14,9.37,2.47.58,7.53-11.22-3.86-13.82-3-.4,1.66,10.1L100.42,90A18.26,18.26,0,0,0,84.43,72.32ZM80.6,103.15A12.82,12.82,0,1,1,94.9,92,12.82,12.82,0,0,1,80.6,103.15Z" transform="translate(0.07 -0.32)"/></g><circle class="cls-8" cx="74.93" cy="75.32" r="66.22" transform="translate(-15.36 130.88) rotate(-76.88)"/></g></g></svg>