<svg xmlns="http://www.w3.org/2000/svg" xmlns:xlink="http://www.w3.org/1999/xlink" viewBox="0 0 162.02 150.04"><defs><style>.cls-1,.cls-7{fill:none;}.cls-2{isolation:isolate;}.cls-3{fill:#88c204;}.cls-4{fill:#a6cb3a;opacity:0.25;mix-blend-mode:multiply;}.cls-5{clip-path:url(#clip-path);}.cls-6{fill:#fff;}.cls-7{stroke:#fff;stroke-miterlimit:10;stroke-width:0.59px;}</style><clipPath id="clip-path" transform="translate(4.82 0.02)"><circle class="cls-1" cx="75" cy="75" r="66.06" transform="translate(-31.07 75) rotate(-45)"/></clipPath></defs><g class="cls-2"><g id="Ic_queja-hos-aco" data-name="Ic queja-hos-aco"><circle class="cls-3" cx="79.82" cy="75.02" r="75"/><path class="cls-4" d="M36.18,83.28a4.68,4.68,0,0,1,3.08,1.12,3.64,3.64,0,0,1,0,5.64,4.83,4.83,0,0,1-6.16,0,3.65,3.65,0,0,1,0-5.64,4.72,4.72,0,0,1,3.08-1.12ZM29.07,100.9a.77.77,0,0,1,.77-.76.76.76,0,0,1,.76.76,2.89,2.89,0,0,1-1.09,2.22,4,4,0,0,1-4.92,0,2.89,2.89,0,0,1-1.09-2.22,5,5,0,0,1,1.91-3.85,7.18,7.18,0,0,1,8.86,0,5,5,0,0,1,1.91,3.85,7.13,7.13,0,0,1-2.73,5.48,10.41,10.41,0,0,1-12.8,0,7.13,7.13,0,0,1-2.73-5.48,9.23,9.23,0,0,1,3.55-7.11,13.14,13.14,0,0,1,8.37-2.88,13.14,13.14,0,0,1,8.37,2.88,9.23,9.23,0,0,1,3.55,7.11.77.77,0,0,1-.77.76.76.76,0,0,1-.76-.76,7.76,7.76,0,0,0-3-5.94,11.63,11.63,0,0,0-7.4-2.53A11.63,11.63,0,0,0,22.44,95a7.73,7.73,0,0,0-3,5.94,5.63,5.63,0,0,0,2.17,4.31,8.93,8.93,0,0,0,10.86,0,5.63,5.63,0,0,0,2.17-4.31,3.5,3.5,0,0,0-1.36-2.68,5.69,5.69,0,0,0-6.91,0A3.5,3.5,0,0,0,25,100.9a1.36,1.36,0,0,0,.54,1,2.35,2.35,0,0,0,1.49.5,2.3,2.3,0,0,0,1.48-.5,1.36,1.36,0,0,0,.54-1Zm9.2-15.35a3.24,3.24,0,0,0-2.09-.74,3.19,3.19,0,0,0-2.08.74,2.21,2.21,0,0,0-.81,1.67,2.24,2.24,0,0,0,.81,1.67,3.19,3.19,0,0,0,2.08.74,3.24,3.24,0,0,0,2.09-.74,2.26,2.26,0,0,0,.8-1.67,2.23,2.23,0,0,0-.8-1.67Z" transform="translate(4.82 0.02)"/><path class="cls-4" d="M61.88,108.23A4.72,4.72,0,0,1,65,109.34,3.65,3.65,0,0,1,65,115a4.81,4.81,0,0,1-6.17,0,3.65,3.65,0,0,1,0-5.64,4.72,4.72,0,0,1,3.09-1.11Zm-7.11,17.61a.76.76,0,0,1,.76-.76.77.77,0,0,1,.77.76,2.85,2.85,0,0,1-1.1,2.22,3.93,3.93,0,0,1-4.91,0,2.84,2.84,0,0,1-1.09-2.22A5,5,0,0,1,51.1,122,7.18,7.18,0,0,1,60,122a5,5,0,0,1,1.91,3.84,7.15,7.15,0,0,1-2.72,5.49,10.42,10.42,0,0,1-12.81,0,7.14,7.14,0,0,1-2.72-5.49,9.24,9.24,0,0,1,3.54-7.11,13.62,13.62,0,0,1,16.75,0,9.27,9.27,0,0,1,3.54,7.11.77.77,0,1,1-1.53,0,7.73,7.73,0,0,0-3-5.93,12.07,12.07,0,0,0-14.79,0,7.73,7.73,0,0,0-3,5.93,5.61,5.61,0,0,0,2.17,4.31,8.88,8.88,0,0,0,10.85,0,5.58,5.58,0,0,0,2.17-4.31A3.5,3.5,0,0,0,59,123.17a5.69,5.69,0,0,0-6.91,0,3.48,3.48,0,0,0-1.36,2.67,1.4,1.4,0,0,0,.54,1,2.46,2.46,0,0,0,3,0,1.4,1.4,0,0,0,.54-1ZM64,110.49a3.19,3.19,0,0,0-2.08-.74,3.24,3.24,0,0,0-2.09.74,2.14,2.14,0,0,0,0,3.34,3.24,3.24,0,0,0,2.09.74,3.19,3.19,0,0,0,2.08-.74,2.14,2.14,0,0,0,0-3.34Z" transform="translate(4.82 0.02)"/><path class="cls-4" d="M72.77,10.88A4.73,4.73,0,0,1,75.86,12a3.64,3.64,0,0,1,0,5.63,4.81,4.81,0,0,1-6.17,0,3.64,3.64,0,0,1,0-5.63,4.72,4.72,0,0,1,3.08-1.12Zm7.11,17.61a1.38,1.38,0,0,0,.54,1.05,2.46,2.46,0,0,0,3,0,1.38,1.38,0,0,0,.54-1.05,3.5,3.5,0,0,0-1.36-2.67,5.69,5.69,0,0,0-6.91,0,3.52,3.52,0,0,0-1.35,2.67,5.62,5.62,0,0,0,2.17,4.32,8.92,8.92,0,0,0,10.85,0,5.65,5.65,0,0,0,2.17-4.32,7.73,7.73,0,0,0-3-5.93,12.07,12.07,0,0,0-14.79,0,7.73,7.73,0,0,0-3,5.93.77.77,0,1,1-1.53,0,9.28,9.28,0,0,1,3.54-7.11,13.65,13.65,0,0,1,16.75,0A9.25,9.25,0,0,1,91,28.49,7.14,7.14,0,0,1,88.31,34,10.42,10.42,0,0,1,75.5,34a7.15,7.15,0,0,1-2.72-5.49,5,5,0,0,1,1.91-3.84,7.18,7.18,0,0,1,8.86,0,5,5,0,0,1,1.9,3.84,2.87,2.87,0,0,1-1.09,2.23,4,4,0,0,1-4.91,0,2.88,2.88,0,0,1-1.1-2.23.77.77,0,0,1,.77-.76.77.77,0,0,1,.76.76ZM70.69,13.15a2.12,2.12,0,0,0,0,3.33,3.14,3.14,0,0,0,2.08.75,3.19,3.19,0,0,0,2.09-.75,2.13,2.13,0,0,0,0-3.33,3.18,3.18,0,0,0-2.09-.74,3.14,3.14,0,0,0-2.08.74Z" transform="translate(4.82 0.02)"/><path class="cls-4" d="M111.59,87.23a4.72,4.72,0,0,1,3.08,1.11,3.65,3.65,0,0,1,0,5.64,4.79,4.79,0,0,1-6.16,0,3.64,3.64,0,0,1,0-5.64,4.68,4.68,0,0,1,3.08-1.11Zm7.11,17.61a1.4,1.4,0,0,0,.54,1,2.35,2.35,0,0,0,1.48.5,2.4,2.4,0,0,0,1.49-.5,1.4,1.4,0,0,0,.54-1,3.48,3.48,0,0,0-1.36-2.67,5.69,5.69,0,0,0-6.91,0,3.48,3.48,0,0,0-1.36,2.67,5.61,5.61,0,0,0,2.17,4.31,8.89,8.89,0,0,0,10.86,0,5.61,5.61,0,0,0,2.17-4.31,7.73,7.73,0,0,0-3-5.93,12.09,12.09,0,0,0-14.8,0,7.75,7.75,0,0,0-3,5.93.77.77,0,0,1-.77.77.76.76,0,0,1-.76-.77,9.24,9.24,0,0,1,3.54-7.11,13.62,13.62,0,0,1,16.75,0,9.24,9.24,0,0,1,3.54,7.11,7.15,7.15,0,0,1-2.73,5.49,10.41,10.41,0,0,1-12.8,0,7.16,7.16,0,0,1-2.73-5.49,5,5,0,0,1,1.92-3.84,7.16,7.16,0,0,1,8.85,0,5,5,0,0,1,1.91,3.84,2.87,2.87,0,0,1-1.09,2.22,3.87,3.87,0,0,1-2.46.86,3.82,3.82,0,0,1-2.45-.86,2.85,2.85,0,0,1-1.1-2.22.77.77,0,0,1,1.53,0Zm-9.2-15.35a2.14,2.14,0,0,0,0,3.34,3.24,3.24,0,0,0,2.09.74,3.19,3.19,0,0,0,2.08-.74,2.13,2.13,0,0,0,0-3.34,3.19,3.19,0,0,0-2.08-.74,3.24,3.24,0,0,0-2.09.74Z" transform="translate(4.82 0.02)"/><path class="cls-4" d="M120.58,59.28a4.73,4.73,0,0,1,3.09,1.12,3.65,3.65,0,0,1,0,5.64,4.84,4.84,0,0,1-6.17,0,3.65,3.65,0,0,1,0-5.64,4.72,4.72,0,0,1,3.08-1.12Zm7.11,17.62a1.36,1.36,0,0,0,.54,1,2.46,2.46,0,0,0,3,0,1.36,1.36,0,0,0,.54-1,3.5,3.5,0,0,0-1.36-2.68,5.69,5.69,0,0,0-6.91,0,3.52,3.52,0,0,0-1.35,2.68,5.6,5.6,0,0,0,2.17,4.31,8.92,8.92,0,0,0,10.85,0,5.6,5.6,0,0,0,2.17-4.31,7.75,7.75,0,0,0-3-5.94,12.09,12.09,0,0,0-14.8,0,7.73,7.73,0,0,0-3,5.94.77.77,0,0,1-1.53,0,9.25,9.25,0,0,1,3.54-7.11,13.62,13.62,0,0,1,16.75,0,9.22,9.22,0,0,1,3.54,7.11,7.12,7.12,0,0,1-2.72,5.48,10.42,10.42,0,0,1-12.81,0,7.12,7.12,0,0,1-2.72-5.48,5,5,0,0,1,1.91-3.85,7.18,7.18,0,0,1,8.86,0,5,5,0,0,1,1.91,3.85,2.89,2.89,0,0,1-1.09,2.22,4,4,0,0,1-4.92,0,2.86,2.86,0,0,1-1.1-2.22.77.77,0,0,1,.77-.76.76.76,0,0,1,.76.76ZM118.5,61.55a2.2,2.2,0,0,0-.8,1.67,2.23,2.23,0,0,0,.8,1.67,3.31,3.31,0,0,0,4.17,0,2.23,2.23,0,0,0,.8-1.67,2.2,2.2,0,0,0-.8-1.67,3.31,3.31,0,0,0-4.17,0Z" transform="translate(4.82 0.02)"/><path class="cls-4" d="M109.93,25.52A4.67,4.67,0,0,1,113,26.64a3.64,3.64,0,0,1,0,5.63,4.79,4.79,0,0,1-6.16,0,3.63,3.63,0,0,1,0-5.63,4.63,4.63,0,0,1,3.08-1.12ZM117,43.13a1.35,1.35,0,0,0,.54,1,2.3,2.3,0,0,0,1.48.5,2.35,2.35,0,0,0,1.49-.5,1.37,1.37,0,0,0,.53-1,3.49,3.49,0,0,0-1.35-2.67,5.69,5.69,0,0,0-6.91,0,3.5,3.5,0,0,0-1.36,2.67,5.61,5.61,0,0,0,2.17,4.31,8.89,8.89,0,0,0,10.86,0,5.61,5.61,0,0,0,2.17-4.31,7.73,7.73,0,0,0-3-5.93,12.09,12.09,0,0,0-14.8,0,7.73,7.73,0,0,0-3,5.93.76.76,0,0,1-.76.77.77.77,0,0,1-.77-.77A9.25,9.25,0,0,1,107.9,36a13.64,13.64,0,0,1,16.74,0,9.25,9.25,0,0,1,3.55,7.11,7.15,7.15,0,0,1-2.73,5.49,10.41,10.41,0,0,1-12.8,0,7.16,7.16,0,0,1-2.73-5.49,5,5,0,0,1,1.91-3.84,7.18,7.18,0,0,1,8.86,0,5,5,0,0,1,1.91,3.84,2.87,2.87,0,0,1-1.09,2.22,3.95,3.95,0,0,1-4.92,0,2.87,2.87,0,0,1-1.09-2.22.76.76,0,0,1,.76-.76.77.77,0,0,1,.77.76Zm-9.2-15.34a2.13,2.13,0,0,0,0,3.33,3.18,3.18,0,0,0,2.09.74,3.14,3.14,0,0,0,2.08-.74,2.12,2.12,0,0,0,0-3.33,3.14,3.14,0,0,0-2.08-.75,3.19,3.19,0,0,0-2.09.75Z" transform="translate(4.82 0.02)"/><path class="cls-4" d="M97.46,111.64a4.68,4.68,0,0,1,3.08,1.12,3.65,3.65,0,0,1,0,5.64,4.83,4.83,0,0,1-6.16,0,3.64,3.64,0,0,1,0-5.64,4.68,4.68,0,0,1,3.08-1.12Zm-7.11,17.62a.77.77,0,0,1,1.53,0,2.86,2.86,0,0,1-1.1,2.22,4,4,0,0,1-4.91,0,2.89,2.89,0,0,1-1.09-2.22,5,5,0,0,1,1.9-3.85,7.18,7.18,0,0,1,8.86,0,5,5,0,0,1,1.91,3.85,7.12,7.12,0,0,1-2.72,5.48,10.42,10.42,0,0,1-12.81,0,7.12,7.12,0,0,1-2.72-5.48,9.22,9.22,0,0,1,3.54-7.11,13.62,13.62,0,0,1,16.75,0,9.25,9.25,0,0,1,3.54,7.11.77.77,0,0,1-1.53,0,7.73,7.73,0,0,0-3-5.94,12.07,12.07,0,0,0-14.79,0,7.73,7.73,0,0,0-3,5.94,5.63,5.63,0,0,0,2.17,4.31,8.92,8.92,0,0,0,10.85,0,5.6,5.6,0,0,0,2.17-4.31,3.52,3.52,0,0,0-1.35-2.68,5.69,5.69,0,0,0-6.91,0,3.5,3.5,0,0,0-1.36,2.68,1.36,1.36,0,0,0,.54,1,2.46,2.46,0,0,0,3,0,1.36,1.36,0,0,0,.54-1Zm9.19-15.35a3.19,3.19,0,0,0-2.08-.74,3.24,3.24,0,0,0-2.09.74,2.23,2.23,0,0,0-.8,1.67,2.26,2.26,0,0,0,.8,1.67,3.24,3.24,0,0,0,2.09.74,3.19,3.19,0,0,0,2.08-.74,2.24,2.24,0,0,0,.81-1.67,2.21,2.21,0,0,0-.81-1.67Z" transform="translate(4.82 0.02)"/><path class="cls-4" d="M45.13,19.52a4.67,4.67,0,0,1,3.08,1.12,3.64,3.64,0,0,1,0,5.63,4.81,4.81,0,0,1-6.17,0,3.64,3.64,0,0,1,0-5.63,4.68,4.68,0,0,1,3.09-1.12ZM38,37.13a.76.76,0,0,1,.76-.76.77.77,0,0,1,.77.76,2.85,2.85,0,0,1-1.1,2.22,3.93,3.93,0,0,1-4.91,0,2.84,2.84,0,0,1-1.09-2.22,5,5,0,0,1,1.9-3.84,7.18,7.18,0,0,1,8.86,0,5,5,0,0,1,1.91,3.84,7.15,7.15,0,0,1-2.72,5.49,10.42,10.42,0,0,1-12.81,0,7.14,7.14,0,0,1-2.72-5.49A9.24,9.24,0,0,1,30.41,30a13.65,13.65,0,0,1,16.75,0,9.27,9.27,0,0,1,3.54,7.11.77.77,0,1,1-1.53,0,7.73,7.73,0,0,0-3-5.93,12.07,12.07,0,0,0-14.79,0,7.73,7.73,0,0,0-3,5.93,5.61,5.61,0,0,0,2.17,4.31,8.88,8.88,0,0,0,10.85,0,5.58,5.58,0,0,0,2.17-4.31,3.52,3.52,0,0,0-1.35-2.67,5.69,5.69,0,0,0-6.91,0A3.5,3.5,0,0,0,34,37.13a1.38,1.38,0,0,0,.54,1,2.46,2.46,0,0,0,3,0,1.38,1.38,0,0,0,.54-1Zm9.19-15.34A3.14,3.14,0,0,0,45.13,21a3.19,3.19,0,0,0-2.09.75,2.13,2.13,0,0,0,0,3.33,3.18,3.18,0,0,0,2.09.74,3.14,3.14,0,0,0,2.08-.74,2.13,2.13,0,0,0,0-3.33Z" transform="translate(4.82 0.02)"/><path class="cls-4" d="M29.23,54.26a4.72,4.72,0,0,1,3.08,1.12,3.72,3.72,0,0,1,1.33,2.81A3.76,3.76,0,0,1,32.31,61a4.84,4.84,0,0,1-6.17,0,3.76,3.76,0,0,1-1.33-2.83,3.72,3.72,0,0,1,1.33-2.81,4.73,4.73,0,0,1,3.09-1.12ZM22.12,71.88a.76.76,0,1,1,1.52,0,2.87,2.87,0,0,1-1.09,2.22,4,4,0,0,1-4.92,0,2.9,2.9,0,0,1-1.09-2.22A5,5,0,0,1,18.45,68a7.18,7.18,0,0,1,8.86,0,5,5,0,0,1,1.91,3.85,7.13,7.13,0,0,1-2.72,5.48,10.1,10.1,0,0,1-6.41,2.2,10.07,10.07,0,0,1-6.4-2.2A7.13,7.13,0,0,1,11,71.88a9.26,9.26,0,0,1,3.54-7.12,13.19,13.19,0,0,1,8.37-2.87,13.22,13.22,0,0,1,8.38,2.87,9.29,9.29,0,0,1,3.54,7.12.77.77,0,0,1-1.53,0,7.73,7.73,0,0,0-3-5.94,11.63,11.63,0,0,0-7.4-2.53,11.65,11.65,0,0,0-7.4,2.53,7.75,7.75,0,0,0-3,5.94,5.6,5.6,0,0,0,2.17,4.31A8.52,8.52,0,0,0,20.09,78a8.53,8.53,0,0,0,5.43-1.84,5.63,5.63,0,0,0,2.17-4.31,3.5,3.5,0,0,0-1.36-2.68,5.67,5.67,0,0,0-6.9,0,3.5,3.5,0,0,0-1.36,2.68,1.35,1.35,0,0,0,.54,1,2.46,2.46,0,0,0,3,0,1.38,1.38,0,0,0,.54-1Zm9.19-15.35a3.31,3.31,0,0,0-4.17,0,2.12,2.12,0,0,0,0,3.33,3.27,3.27,0,0,0,4.17,0,2.13,2.13,0,0,0,0-3.33Z" transform="translate(4.82 0.02)"/><g class="cls-5"><path class="cls-6" d="M154,78.39c-1.41-1.75-35.15-42.71-77.86-42.71C33.66,35.68,0,70.38-1.47,71.86L-4.5,75l-.32.33,3.67,3.15c1.42,1.21,35.06,29.63,77.31,29.63,37,0,67.44-17.2,75.07-21.91,1-.63,1.65-1,1.82-1.15l4.15-2.79ZM43.67,93.2A139.51,139.51,0,0,1,9.14,75.09l-.56-.4A132.66,132.66,0,0,1,43.85,51.86,36.38,36.38,0,0,0,59.71,97.51,109.17,109.17,0,0,1,43.67,93.2ZM54,65.76C54,53.21,63.92,43,76.16,43S98.32,53.21,98.32,65.76,88.4,88.48,76.16,88.48,54,78.31,54,65.76Zm83.1,17.94A151,151,0,0,1,94.66,97.53c-1,.16-2,.32-3,.46a35.48,35.48,0,0,0,6.71-4.44,36.18,36.18,0,0,0,12.89-27.79c0-1.05,0-2.09-.14-3.12a36.55,36.55,0,0,0-2-9.09c16.13,8.33,28.73,20.46,34.56,26.67C141.93,81.2,139.7,82.4,137.09,83.7Z" transform="translate(4.82 0.02)"/><path class="cls-6" d="M76.16,53.63A12.14,12.14,0,1,0,88,65.76,12,12,0,0,0,76.16,53.63Z" transform="translate(4.82 0.02)"/></g><circle class="cls-7" cx="75" cy="75" r="66.22" transform="translate(-10.25 131.03) rotate(-76.88)"/></g></g></svg>