<svg xmlns="http://www.w3.org/2000/svg" xmlns:xlink="http://www.w3.org/1999/xlink" viewBox="0 0 149.56 149.56"><defs><style>.cls-1,.cls-8{fill:none;}.cls-2{isolation:isolate;}.cls-3{fill:#27ccbc;}.cls-4{mix-blend-mode:darken;}.cls-5{fill:#21b3a9;opacity:0.25;mix-blend-mode:multiply;}.cls-6{clip-path:url(#clip-path);}.cls-7{fill:#fff;}.cls-8{stroke:#fff;stroke-miterlimit:10;stroke-width:0.58px;}</style><clipPath id="clip-path" transform="translate(0.02 -0.44)"><circle class="cls-1" cx="74.76" cy="75.22" r="66.01"/></clipPath></defs><g class="cls-2"><g id="Ic_jurisprudencias" data-name="Ic jurisprudencias"><circle class="cls-3" cx="74.78" cy="74.78" r="74.76"/><g class="cls-4"><path class="cls-5" d="M36.93,84.38A4.68,4.68,0,0,1,40,85.5a3.63,3.63,0,0,1,0,5.62,4.78,4.78,0,0,1-6.15,0,3.63,3.63,0,0,1,0-5.62,4.68,4.68,0,0,1,3.08-1.12ZM29.83,102a.76.76,0,0,1,1.52,0,2.83,2.83,0,0,1-1.09,2.21,3.81,3.81,0,0,1-2.45.85,3.86,3.86,0,0,1-2.46-.85A2.86,2.86,0,0,1,24.27,102a5,5,0,0,1,1.9-3.84,7.15,7.15,0,0,1,8.84,0A5,5,0,0,1,36.92,102a7.11,7.11,0,0,1-2.72,5.47,10.38,10.38,0,0,1-12.78,0A7.1,7.1,0,0,1,18.7,102a9.22,9.22,0,0,1,3.54-7.1A13.08,13.08,0,0,1,30.59,92,13.08,13.08,0,0,1,39,94.87a9.25,9.25,0,0,1,3.54,7.1A.77.77,0,0,1,41,102,7.73,7.73,0,0,0,38,96a11.59,11.59,0,0,0-7.39-2.52A11.56,11.56,0,0,0,23.21,96a7.7,7.7,0,0,0-3,5.93,5.6,5.6,0,0,0,2.16,4.3,8.9,8.9,0,0,0,10.84,0,5.6,5.6,0,0,0,2.16-4.3A3.46,3.46,0,0,0,34,99.3a5.67,5.67,0,0,0-6.9,0A3.49,3.49,0,0,0,25.79,102a1.35,1.35,0,0,0,.54,1,2.44,2.44,0,0,0,3,0,1.38,1.38,0,0,0,.54-1ZM39,86.65a3.18,3.18,0,0,0-2.08-.74,3.14,3.14,0,0,0-2.08.74A2.17,2.17,0,0,0,34,88.31,2.24,2.24,0,0,0,34.85,90a3.19,3.19,0,0,0,2.08.74A3.23,3.23,0,0,0,39,90a2.26,2.26,0,0,0,.8-1.67,2.19,2.19,0,0,0-.8-1.66Z" transform="translate(0.02 -0.44)"/><path class="cls-5" d="M62.58,109.28a4.68,4.68,0,0,1,3.07,1.12,3.63,3.63,0,0,1,0,5.62,4.78,4.78,0,0,1-6.15,0,3.63,3.63,0,0,1,0-5.62,4.68,4.68,0,0,1,3.08-1.12Zm-7.1,17.59a.76.76,0,1,1,1.52,0,2.83,2.83,0,0,1-1.09,2.21,3.81,3.81,0,0,1-2.45.85,3.86,3.86,0,0,1-2.46-.85,2.86,2.86,0,0,1-1.08-2.21,5,5,0,0,1,1.9-3.84,7.15,7.15,0,0,1,8.84,0,5,5,0,0,1,1.91,3.84,7.11,7.11,0,0,1-2.72,5.47,10.38,10.38,0,0,1-12.78,0,7.1,7.1,0,0,1-2.72-5.47,9.22,9.22,0,0,1,3.53-7.1,13.61,13.61,0,0,1,16.72,0,9.23,9.23,0,0,1,3.54,7.1.77.77,0,0,1-.77.76.76.76,0,0,1-.76-.76,7.73,7.73,0,0,0-3-5.93,12.08,12.08,0,0,0-14.77,0,7.71,7.71,0,0,0-3,5.93,5.61,5.61,0,0,0,2.17,4.3,8.9,8.9,0,0,0,10.84,0,5.6,5.6,0,0,0,2.16-4.3,3.49,3.49,0,0,0-1.35-2.67,5.67,5.67,0,0,0-6.9,0,3.49,3.49,0,0,0-1.35,2.67,1.35,1.35,0,0,0,.54,1,2.44,2.44,0,0,0,3,0,1.38,1.38,0,0,0,.54-1Zm9.18-15.32a3.27,3.27,0,0,0-4.17,0,2.19,2.19,0,0,0-.8,1.66,2.26,2.26,0,0,0,.8,1.67,3.31,3.31,0,0,0,4.17,0,2.26,2.26,0,0,0,.8-1.67,2.19,2.19,0,0,0-.8-1.66Z" transform="translate(0.02 -0.44)"/><path class="cls-5" d="M73.45,12.11a4.72,4.72,0,0,1,3.08,1.11,3.64,3.64,0,0,1,0,5.63A4.72,4.72,0,0,1,73.45,20a4.66,4.66,0,0,1-3.07-1.12,3.63,3.63,0,0,1,0-5.63,4.65,4.65,0,0,1,3.07-1.11Zm7.1,17.58a1.37,1.37,0,0,0,.54,1,2.33,2.33,0,0,0,1.48.5,2.38,2.38,0,0,0,1.48-.5,1.4,1.4,0,0,0,.54-1A3.5,3.5,0,0,0,83.23,27a5.66,5.66,0,0,0-6.89,0A3.5,3.5,0,0,0,75,29.69,5.61,5.61,0,0,0,77.15,34,8.89,8.89,0,0,0,88,34a5.61,5.61,0,0,0,2.17-4.31,7.73,7.73,0,0,0-3-5.92,12,12,0,0,0-14.77,0,7.71,7.71,0,0,0-3,5.92.76.76,0,1,1-1.52,0,9.24,9.24,0,0,1,3.53-7.1,13.61,13.61,0,0,1,16.72,0,9.22,9.22,0,0,1,3.54,7.1A7.16,7.16,0,0,1,89,35.17a10.39,10.39,0,0,1-12.79,0,7.16,7.16,0,0,1-2.72-5.48,5,5,0,0,1,1.91-3.84,7.19,7.19,0,0,1,8.84,0,5,5,0,0,1,1.91,3.84A2.87,2.87,0,0,1,85,31.91a4,4,0,0,1-4.91,0A2.87,2.87,0,0,1,79,29.69a.76.76,0,0,1,.76-.76.77.77,0,0,1,.77.76ZM71.37,14.37a2.13,2.13,0,0,0,0,3.33,3.29,3.29,0,0,0,4.16,0,2.12,2.12,0,0,0,0-3.33,3.29,3.29,0,0,0-4.16,0Z" transform="translate(0.02 -0.44)"/><path class="cls-5" d="M112.2,88.32a4.67,4.67,0,0,1,3.07,1.11,3.64,3.64,0,0,1,0,5.63,4.78,4.78,0,0,1-6.15,0,3.64,3.64,0,0,1,0-5.63,4.68,4.68,0,0,1,3.08-1.11Zm7.09,17.58a1.4,1.4,0,0,0,.54,1,2.38,2.38,0,0,0,1.48.5,2.4,2.4,0,0,0,1.49-.5,1.39,1.39,0,0,0,.53-1,3.49,3.49,0,0,0-1.35-2.67,5.67,5.67,0,0,0-6.9,0,3.52,3.52,0,0,0-1.35,2.67,5.6,5.6,0,0,0,2.16,4.31,8.9,8.9,0,0,0,10.84,0,5.61,5.61,0,0,0,2.17-4.31,7.71,7.71,0,0,0-3-5.92,12,12,0,0,0-14.77,0,7.73,7.73,0,0,0-3,5.92.76.76,0,0,1-.76.77.77.77,0,0,1-.77-.77,9.25,9.25,0,0,1,3.54-7.1,13.61,13.61,0,0,1,16.72,0,9.24,9.24,0,0,1,3.53,7.1,7.13,7.13,0,0,1-2.72,5.48,10.38,10.38,0,0,1-12.78,0,7.13,7.13,0,0,1-2.72-5.48,5,5,0,0,1,1.91-3.84,7.19,7.19,0,0,1,8.84,0,5,5,0,0,1,1.91,3.84,2.87,2.87,0,0,1-1.09,2.22,4,4,0,0,1-4.91,0,2.87,2.87,0,0,1-1.09-2.22.76.76,0,0,1,1.52,0Zm-9.17-15.32a2.12,2.12,0,0,0,0,3.33,3.29,3.29,0,0,0,4.16,0,2.13,2.13,0,0,0,0-3.33,3.29,3.29,0,0,0-4.16,0Z" transform="translate(0.02 -0.44)"/><path class="cls-5" d="M121.17,60.43a4.68,4.68,0,0,1,3.08,1.11,3.64,3.64,0,0,1,0,5.63,4.81,4.81,0,0,1-6.15,0,3.64,3.64,0,0,1,0-5.63,4.67,4.67,0,0,1,3.07-1.11ZM128.27,78a1.36,1.36,0,0,0,.54,1,2.44,2.44,0,0,0,3,0,1.33,1.33,0,0,0,.54-1A3.5,3.5,0,0,0,131,75.34a5.67,5.67,0,0,0-6.9,0A3.5,3.5,0,0,0,122.71,78a5.6,5.6,0,0,0,2.16,4.3,8.86,8.86,0,0,0,10.84,0,5.6,5.6,0,0,0,2.16-4.3,7.72,7.72,0,0,0-3-5.93,12.08,12.08,0,0,0-14.77,0,7.75,7.75,0,0,0-3,5.93.77.77,0,0,1-.76.77.78.78,0,0,1-.77-.77,9.25,9.25,0,0,1,3.54-7.1,13.61,13.61,0,0,1,16.72,0A9.24,9.24,0,0,1,139.4,78a7.1,7.1,0,0,1-2.72,5.47,10.38,10.38,0,0,1-12.78,0A7.1,7.1,0,0,1,121.18,78a5,5,0,0,1,1.91-3.84,7.15,7.15,0,0,1,8.84,0,5,5,0,0,1,1.9,3.84,2.88,2.88,0,0,1-1.08,2.22,3.92,3.92,0,0,1-2.46.85,3.87,3.87,0,0,1-2.45-.85A2.85,2.85,0,0,1,126.75,78a.76.76,0,0,1,1.52,0Zm-9.18-15.32a2.13,2.13,0,0,0,0,3.33,3.31,3.31,0,0,0,4.17,0,2.13,2.13,0,0,0,0-3.33,3.31,3.31,0,0,0-4.17,0Z" transform="translate(0.02 -0.44)"/><path class="cls-5" d="M110.54,26.72a4.72,4.72,0,0,1,3.08,1.12,3.63,3.63,0,0,1,0,5.62,4.79,4.79,0,0,1-6.16,0,3.63,3.63,0,0,1,0-5.62,4.7,4.7,0,0,1,3.08-1.12Zm7.1,17.59a1.37,1.37,0,0,0,.53,1,2.46,2.46,0,0,0,3,0,1.38,1.38,0,0,0,.54-1,3.47,3.47,0,0,0-1.36-2.67,5.67,5.67,0,0,0-6.9,0,3.49,3.49,0,0,0-1.35,2.67,5.61,5.61,0,0,0,2.17,4.3,8.89,8.89,0,0,0,10.83,0,5.61,5.61,0,0,0,2.17-4.3,7.73,7.73,0,0,0-3-5.93,12.1,12.1,0,0,0-14.78,0,7.73,7.73,0,0,0-3,5.93.76.76,0,0,1-1.52,0,9.22,9.22,0,0,1,3.53-7.1,13.61,13.61,0,0,1,16.72,0,9.22,9.22,0,0,1,3.53,7.1A7.1,7.1,0,0,1,126,49.78a10.38,10.38,0,0,1-12.78,0,7.14,7.14,0,0,1-2.72-5.47,5,5,0,0,1,1.91-3.84,7.15,7.15,0,0,1,8.84,0,5,5,0,0,1,1.91,3.84,2.87,2.87,0,0,1-1.09,2.21,4,4,0,0,1-4.91,0,2.87,2.87,0,0,1-1.09-2.21.76.76,0,0,1,.76-.76.77.77,0,0,1,.77.76ZM108.46,29a2.16,2.16,0,0,0-.8,1.66,2.23,2.23,0,0,0,.8,1.67,3.29,3.29,0,0,0,4.16,0,2.23,2.23,0,0,0,.8-1.67,2.16,2.16,0,0,0-.8-1.66,3.29,3.29,0,0,0-4.16,0Z" transform="translate(0.02 -0.44)"/><path class="cls-5" d="M98.09,112.69a4.7,4.7,0,0,1,3.08,1.12,3.63,3.63,0,0,1,0,5.62,4.79,4.79,0,0,1-6.16,0,3.63,3.63,0,0,1,0-5.62,4.72,4.72,0,0,1,3.08-1.12ZM91,130.27a.77.77,0,0,1,.77-.76.77.77,0,0,1,.76.76,2.87,2.87,0,0,1-1.09,2.22,4,4,0,0,1-4.91,0,2.87,2.87,0,0,1-1.09-2.22,5,5,0,0,1,1.91-3.83,7.15,7.15,0,0,1,8.84,0,5,5,0,0,1,1.91,3.83,7.15,7.15,0,0,1-2.72,5.48,10.38,10.38,0,0,1-12.78,0,7.1,7.1,0,0,1-2.72-5.48,9.22,9.22,0,0,1,3.53-7.09,13.61,13.61,0,0,1,16.72,0,9.22,9.22,0,0,1,3.53,7.09.76.76,0,1,1-1.52,0,7.73,7.73,0,0,0-3-5.92,12.1,12.1,0,0,0-14.78,0,7.73,7.73,0,0,0-3,5.92,5.61,5.61,0,0,0,2.17,4.31,8.89,8.89,0,0,0,10.83,0,5.61,5.61,0,0,0,2.17-4.31,3.52,3.52,0,0,0-1.35-2.67,5.71,5.71,0,0,0-6.9,0A3.5,3.5,0,0,0,87,130.27a1.38,1.38,0,0,0,.54,1,2.46,2.46,0,0,0,3,0,1.37,1.37,0,0,0,.53-1ZM100.17,115A3.29,3.29,0,0,0,96,115a2.13,2.13,0,0,0,0,3.33,3.26,3.26,0,0,0,4.16,0,2.13,2.13,0,0,0,0-3.33Z" transform="translate(0.02 -0.44)"/><path class="cls-5" d="M45.86,20.73a4.68,4.68,0,0,1,3.07,1.12,3.64,3.64,0,0,1,0,5.63,4.81,4.81,0,0,1-6.15,0,3.64,3.64,0,0,1,0-5.63,4.68,4.68,0,0,1,3.08-1.12Zm-7.1,17.59a.76.76,0,0,1,1.52,0,2.83,2.83,0,0,1-1.09,2.21,3.81,3.81,0,0,1-2.45.85,3.86,3.86,0,0,1-2.46-.85,2.86,2.86,0,0,1-1.08-2.21,5,5,0,0,1,1.9-3.84,7.15,7.15,0,0,1,8.84,0,5,5,0,0,1,1.91,3.84,7.11,7.11,0,0,1-2.72,5.47,10.38,10.38,0,0,1-12.78,0,7.1,7.1,0,0,1-2.72-5.47,9.24,9.24,0,0,1,3.53-7.1,13.61,13.61,0,0,1,16.72,0,9.25,9.25,0,0,1,3.54,7.1.77.77,0,0,1-.77.76.76.76,0,0,1-.76-.76,7.73,7.73,0,0,0-3-5.93,12.08,12.08,0,0,0-14.77,0,7.7,7.7,0,0,0-3,5.93,5.6,5.6,0,0,0,2.16,4.3,8.9,8.9,0,0,0,10.84,0,5.6,5.6,0,0,0,2.16-4.3A3.49,3.49,0,0,0,43,35.65a5.67,5.67,0,0,0-6.9,0,3.49,3.49,0,0,0-1.35,2.67,1.35,1.35,0,0,0,.54,1,2.44,2.44,0,0,0,3,0,1.38,1.38,0,0,0,.54-1ZM47.94,23a3.31,3.31,0,0,0-4.17,0,2.19,2.19,0,0,0-.8,1.66,2.26,2.26,0,0,0,.8,1.67,3.31,3.31,0,0,0,4.17,0,2.26,2.26,0,0,0,.8-1.67,2.19,2.19,0,0,0-.8-1.66Z" transform="translate(0.02 -0.44)"/><path class="cls-5" d="M30,55.41a4.7,4.7,0,0,1,3.08,1.12,3.64,3.64,0,0,1,0,5.63,4.83,4.83,0,0,1-6.16,0,3.64,3.64,0,0,1,0-5.63A4.72,4.72,0,0,1,30,55.41ZM22.88,73a.77.77,0,0,1,.77-.76.76.76,0,0,1,.76.76,2.87,2.87,0,0,1-1.09,2.21,4,4,0,0,1-4.91,0A2.87,2.87,0,0,1,17.32,73a5,5,0,0,1,1.91-3.84,7.15,7.15,0,0,1,8.84,0A5,5,0,0,1,30,73a7.14,7.14,0,0,1-2.72,5.47,10.07,10.07,0,0,1-6.4,2.2,10,10,0,0,1-6.38-2.2A7.1,7.1,0,0,1,11.76,73a9.24,9.24,0,0,1,3.53-7.1A13.18,13.18,0,0,1,23.65,63,13.18,13.18,0,0,1,32,65.9,9.24,9.24,0,0,1,35.54,73,.76.76,0,1,1,34,73a7.73,7.73,0,0,0-3-5.93,11.67,11.67,0,0,0-7.39-2.52,11.67,11.67,0,0,0-7.39,2.52,7.73,7.73,0,0,0-3,5.93,5.61,5.61,0,0,0,2.17,4.3,8.49,8.49,0,0,0,5.41,1.84,8.5,8.5,0,0,0,5.42-1.84A5.61,5.61,0,0,0,28.45,73a3.49,3.49,0,0,0-1.35-2.67,5.67,5.67,0,0,0-6.9,0A3.47,3.47,0,0,0,18.84,73a1.38,1.38,0,0,0,.54,1,2.34,2.34,0,0,0,1.48.5,2.28,2.28,0,0,0,1.48-.5,1.35,1.35,0,0,0,.54-1Zm9.18-15.32a3.29,3.29,0,0,0-4.16,0,2.16,2.16,0,0,0-.8,1.66A2.23,2.23,0,0,0,27.9,61a3.29,3.29,0,0,0,4.16,0,2.23,2.23,0,0,0,.8-1.67,2.16,2.16,0,0,0-.8-1.66Z" transform="translate(0.02 -0.44)"/></g><g class="cls-6"><polygon class="cls-7" points="127.58 82.03 82.75 82.03 82.75 84.13 127.58 84.13 127.58 79.76 127.58 79.76 127.58 82.03"/><polygon class="cls-7" points="127.58 51.46 82.75 51.46 82.75 53.55 127.58 53.55 127.58 49.19 127.58 49.19 127.58 51.46"/><polygon class="cls-7" points="127.58 66.75 82.75 66.75 82.75 68.84 127.58 68.84 127.58 64.47 127.58 64.47 127.58 66.75"/><path class="cls-7" d="M139.63,38.59H135.1c0-8.09-15.26-12.32-30.33-12.32-13.3,0-26.73,3.31-29.69,9.66h-.64a8.28,8.28,0,0,0-1.67-2.34C70.31,31.12,66,29.26,60.9,28a71.44,71.44,0,0,0-16.15-1.76c-15.06,0-30.32,4.23-30.32,12.32H7.54v68.49H60.9v17.09l5.89-5.93,6,5.93V107.08H142V38.59ZM60.9,40.8v8.83h0V51.9H22V54H60.9V64.92h0v2.27H22v2.09H60.9V80.2h0v2.28H22v2.09H60.9v19.12H16.64V40.8c0-5.58,12.59-10.11,28.11-10.11A67,67,0,0,1,60.9,32.53Zm72,62.89H76.76V40.1c1-5.26,13.14-9.41,28-9.41,15.53,0,28.12,4.53,28.12,10.11Z" transform="translate(0.02 -0.44)"/><polygon class="cls-7" points="21.98 77.67 21.98 82.03 21.98 82.03 21.98 79.76 60.91 79.76 60.91 77.67 21.98 77.67"/><polygon class="cls-7" points="21.98 62.38 21.98 66.75 21.98 66.75 21.98 64.47 60.91 64.47 60.91 62.38 21.98 62.38"/><polygon class="cls-7" points="21.98 47.09 21.98 51.46 21.98 51.46 21.98 49.19 60.91 49.19 60.91 47.09 21.98 47.09"/><polygon class="cls-7" points="127.58 64.47 127.58 62.38 82.75 62.38 82.75 66.75 82.75 66.75 82.75 64.47 127.58 64.47"/><polygon class="cls-7" points="127.58 49.19 127.58 47.09 82.75 47.09 82.75 51.46 82.75 51.46 82.75 49.19 127.58 49.19"/><polygon class="cls-7" points="127.58 79.76 127.58 77.67 82.75 77.67 82.75 82.03 82.75 82.03 82.75 79.76 127.58 79.76"/></g><circle class="cls-8" cx="74.78" cy="74.78" r="66.01"/></g></g></svg>