<svg xmlns="http://www.w3.org/2000/svg" xmlns:xlink="http://www.w3.org/1999/xlink" viewBox="0 0 149.79 149.79"><defs><style>.cls-1,.cls-11{fill:none;}.cls-2{isolation:isolate;}.cls-3{fill:#e5c745;}.cls-4{fill:#fead34;opacity:0.25;mix-blend-mode:multiply;}.cls-5{clip-path:url(#clip-path);}.cls-6{mix-blend-mode:luminosity;}.cls-7{fill:#5a6e7f;}.cls-8{fill:#97d5c9;}.cls-9{fill:#5cbfab;}.cls-10{fill:#fff;}.cls-11{stroke:#fff;stroke-miterlimit:10;stroke-width:0.58px;}</style><clipPath id="clip-path" transform="translate(0.26 -0.4)"><circle class="cls-1" cx="73.64" cy="75.29" r="66.13"/></clipPath></defs><g class="cls-2"><g id="Ic_biblioteca" data-name="Ic biblioteca"><circle class="cls-3" cx="74.64" cy="75.29" r="74.89" transform="translate(-16.14 129.23) rotate(-76.08)"/><path class="cls-4" d="M34.57,82.63a4.68,4.68,0,0,1,3.08,1.12,3.64,3.64,0,0,1,0,5.64,4.83,4.83,0,0,1-6.16,0,3.64,3.64,0,0,1,0-5.64,4.68,4.68,0,0,1,3.08-1.12Zm-7.11,17.62a.77.77,0,1,1,1.53,0,2.88,2.88,0,0,1-1.1,2.22,4,4,0,0,1-4.91,0,2.9,2.9,0,0,1-1.09-2.22A5,5,0,0,1,23.8,96.4a7.16,7.16,0,0,1,8.85,0,5,5,0,0,1,1.92,3.85,7.14,7.14,0,0,1-2.73,5.48,10.41,10.41,0,0,1-12.8,0,7.14,7.14,0,0,1-2.73-5.48,9.22,9.22,0,0,1,3.54-7.11,13.17,13.17,0,0,1,8.38-2.88,13.14,13.14,0,0,1,8.37,2.88,9.25,9.25,0,0,1,3.54,7.11.77.77,0,0,1-1.53,0,7.75,7.75,0,0,0-3-5.94,11.65,11.65,0,0,0-7.4-2.53,11.61,11.61,0,0,0-7.4,2.53,7.73,7.73,0,0,0-3,5.94A5.63,5.63,0,0,0,20,104.56a8.53,8.53,0,0,0,5.43,1.84,8.55,8.55,0,0,0,5.43-1.84A5.63,5.63,0,0,0,33,100.25a3.5,3.5,0,0,0-1.36-2.68,5.69,5.69,0,0,0-6.91,0,3.5,3.5,0,0,0-1.36,2.68,1.36,1.36,0,0,0,.54,1,2.35,2.35,0,0,0,1.49.5,2.3,2.3,0,0,0,1.48-.5,1.36,1.36,0,0,0,.54-1ZM36.65,84.9a3.29,3.29,0,0,0-4.16,0,2.2,2.2,0,0,0-.81,1.66,2.24,2.24,0,0,0,.81,1.68,3.29,3.29,0,0,0,4.16,0,2.24,2.24,0,0,0,.81-1.68,2.2,2.2,0,0,0-.81-1.66Z" transform="translate(0.26 -0.4)"/><path class="cls-4" d="M60.27,107.58a4.67,4.67,0,0,1,3.07,1.11,3.64,3.64,0,0,1,0,5.64,4.68,4.68,0,0,1-3.07,1.12,4.73,4.73,0,0,1-3.09-1.12,3.65,3.65,0,0,1,0-5.64,4.72,4.72,0,0,1,3.09-1.11Zm-7.12,17.61a.77.77,0,0,1,.77-.76.76.76,0,0,1,.76.76,2.87,2.87,0,0,1-1.09,2.22,4,4,0,0,1-4.92,0,2.87,2.87,0,0,1-1.09-2.22,5,5,0,0,1,1.91-3.84,7.18,7.18,0,0,1,8.86,0,5,5,0,0,1,1.91,3.84,7.13,7.13,0,0,1-2.73,5.49,10.41,10.41,0,0,1-12.8,0A7.14,7.14,0,0,1,42,125.19a9.22,9.22,0,0,1,3.54-7.11,13.6,13.6,0,0,1,16.74,0,9.23,9.23,0,0,1,3.55,7.11.78.78,0,0,1-.77.77.77.77,0,0,1-.76-.77,7.7,7.7,0,0,0-3-5.93,12.09,12.09,0,0,0-14.8,0,7.73,7.73,0,0,0-3,5.93,5.59,5.59,0,0,0,2.18,4.31,8.88,8.88,0,0,0,10.85,0,5.61,5.61,0,0,0,2.17-4.31,3.48,3.48,0,0,0-1.36-2.67,5.69,5.69,0,0,0-6.91,0,3.5,3.5,0,0,0-1.35,2.67,1.37,1.37,0,0,0,.54,1,2.44,2.44,0,0,0,3,0,1.37,1.37,0,0,0,.54-1Zm9.2-15.35a3.31,3.31,0,0,0-4.17,0,2.13,2.13,0,0,0,0,3.34,3.31,3.31,0,0,0,4.17,0,2.14,2.14,0,0,0,0-3.34Z" transform="translate(0.26 -0.4)"/><path class="cls-4" d="M71.16,10.23a4.67,4.67,0,0,1,3.08,1.12,3.64,3.64,0,0,1,0,5.63,4.8,4.8,0,0,1-6.16,0,3.63,3.63,0,0,1,0-5.63,4.63,4.63,0,0,1,3.08-1.12Zm7.11,17.61a1.38,1.38,0,0,0,.54,1.05,2.3,2.3,0,0,0,1.48.5,2.35,2.35,0,0,0,1.49-.5,1.38,1.38,0,0,0,.54-1.05A3.5,3.5,0,0,0,81,25.17a5.69,5.69,0,0,0-6.91,0,3.5,3.5,0,0,0-1.36,2.67,5.61,5.61,0,0,0,2.17,4.31,8.89,8.89,0,0,0,10.86,0,5.61,5.61,0,0,0,2.17-4.31,7.73,7.73,0,0,0-3-5.93,12.09,12.09,0,0,0-14.8,0,7.75,7.75,0,0,0-3,5.93.77.77,0,0,1-.77.77.76.76,0,0,1-.76-.77,9.24,9.24,0,0,1,3.54-7.11,13.65,13.65,0,0,1,16.75,0,9.24,9.24,0,0,1,3.54,7.11,7.15,7.15,0,0,1-2.73,5.49,10.41,10.41,0,0,1-12.8,0,7.16,7.16,0,0,1-2.73-5.49A5,5,0,0,1,73.08,24a7.16,7.16,0,0,1,8.85,0,5,5,0,0,1,1.91,3.84,2.87,2.87,0,0,1-1.09,2.22,3.93,3.93,0,0,1-4.91,0,2.85,2.85,0,0,1-1.1-2.22.77.77,0,0,1,1.53,0ZM69.07,12.5a2.13,2.13,0,0,0,0,3.33,3.18,3.18,0,0,0,2.09.74,3.14,3.14,0,0,0,2.08-.74,2.12,2.12,0,0,0,0-3.33,3.14,3.14,0,0,0-2.08-.75,3.19,3.19,0,0,0-2.09.75Z" transform="translate(0.26 -0.4)"/><path class="cls-4" d="M110,86.58a4.72,4.72,0,0,1,3.08,1.11,3.65,3.65,0,0,1,0,5.64,4.8,4.8,0,0,1-6.16,0,3.64,3.64,0,0,1,0-5.64A4.68,4.68,0,0,1,110,86.58Zm7.11,17.61a1.37,1.37,0,0,0,.54,1,2.44,2.44,0,0,0,3,0,1.37,1.37,0,0,0,.54-1,3.5,3.5,0,0,0-1.35-2.67,5.69,5.69,0,0,0-6.91,0,3.48,3.48,0,0,0-1.36,2.67,5.61,5.61,0,0,0,2.17,4.31,8.89,8.89,0,0,0,10.86,0,5.61,5.61,0,0,0,2.17-4.31,7.7,7.7,0,0,0-3-5.93,12.09,12.09,0,0,0-14.8,0,7.7,7.7,0,0,0-3,5.93.77.77,0,0,1-.76.77.78.78,0,0,1-.77-.77A9.23,9.23,0,0,1,108,97.08a13.6,13.6,0,0,1,16.74,0,9.22,9.22,0,0,1,3.54,7.11,7.14,7.14,0,0,1-2.72,5.49,10.41,10.41,0,0,1-12.8,0,7.16,7.16,0,0,1-2.73-5.49,5,5,0,0,1,1.91-3.84,7.18,7.18,0,0,1,8.86,0,5,5,0,0,1,1.91,3.84,2.87,2.87,0,0,1-1.09,2.22,4,4,0,0,1-4.92,0,2.87,2.87,0,0,1-1.09-2.22.76.76,0,0,1,.76-.76.77.77,0,0,1,.77.76Zm-9.2-15.35a2.14,2.14,0,0,0,0,3.34,3.31,3.31,0,0,0,4.17,0,2.13,2.13,0,0,0,0-3.34,3.31,3.31,0,0,0-4.17,0Z" transform="translate(0.26 -0.4)"/><path class="cls-4" d="M119,58.63a4.68,4.68,0,0,1,3.08,1.12,3.64,3.64,0,0,1,0,5.64,4.83,4.83,0,0,1-6.16,0,3.64,3.64,0,0,1,0-5.64A4.68,4.68,0,0,1,119,58.63Zm7.11,17.62a1.36,1.36,0,0,0,.54,1,2.3,2.3,0,0,0,1.48.5,2.35,2.35,0,0,0,1.49-.5,1.36,1.36,0,0,0,.54-1,3.5,3.5,0,0,0-1.36-2.68,5.69,5.69,0,0,0-6.91,0,3.5,3.5,0,0,0-1.36,2.68,5.63,5.63,0,0,0,2.17,4.31,8.93,8.93,0,0,0,10.86,0,5.63,5.63,0,0,0,2.17-4.31,7.73,7.73,0,0,0-3-5.94,12.09,12.09,0,0,0-14.8,0,7.75,7.75,0,0,0-3,5.94.77.77,0,0,1-.77.76.76.76,0,0,1-.76-.76,9.25,9.25,0,0,1,3.54-7.11,13.62,13.62,0,0,1,16.75,0,9.22,9.22,0,0,1,3.54,7.11,7.14,7.14,0,0,1-2.73,5.48,10.41,10.41,0,0,1-12.8,0A7.14,7.14,0,0,1,119,76.25a5,5,0,0,1,1.92-3.85,7.16,7.16,0,0,1,8.85,0,5,5,0,0,1,1.91,3.85,2.9,2.9,0,0,1-1.09,2.22,4,4,0,0,1-4.91,0,2.88,2.88,0,0,1-1.1-2.22.77.77,0,1,1,1.53,0Zm-9.2-15.35a2.22,2.22,0,0,0-.8,1.66,2.27,2.27,0,0,0,.8,1.68A3.24,3.24,0,0,0,119,65a3.19,3.19,0,0,0,2.08-.74,2.24,2.24,0,0,0,.81-1.68,2.2,2.2,0,0,0-.81-1.66,3.19,3.19,0,0,0-2.08-.74,3.24,3.24,0,0,0-2.09.74Z" transform="translate(0.26 -0.4)"/><path class="cls-4" d="M108.31,24.87A4.72,4.72,0,0,1,111.4,26a3.65,3.65,0,0,1,0,5.64,4.73,4.73,0,0,1-3.09,1.12,4.68,4.68,0,0,1-3.07-1.12,3.64,3.64,0,0,1,0-5.64,4.67,4.67,0,0,1,3.07-1.11Zm7.11,17.61a1.38,1.38,0,0,0,.54,1.05,2.46,2.46,0,0,0,3,0,1.35,1.35,0,0,0,.54-1.05,3.48,3.48,0,0,0-1.36-2.67,5.67,5.67,0,0,0-6.9,0,3.48,3.48,0,0,0-1.36,2.67A5.61,5.61,0,0,0,112,46.79a8.88,8.88,0,0,0,10.85,0A5.58,5.58,0,0,0,125,42.48a7.75,7.75,0,0,0-3-5.93,12.09,12.09,0,0,0-14.8,0,7.73,7.73,0,0,0-3,5.93.77.77,0,1,1-1.53,0,9.27,9.27,0,0,1,3.54-7.11,13.65,13.65,0,0,1,16.75,0,9.24,9.24,0,0,1,3.54,7.11A7.14,7.14,0,0,1,123.85,48,10.42,10.42,0,0,1,111,48a7.15,7.15,0,0,1-2.72-5.49,5,5,0,0,1,1.91-3.84,7.18,7.18,0,0,1,8.86,0A5,5,0,0,1,121,42.48a2.87,2.87,0,0,1-1.09,2.22,3.95,3.95,0,0,1-4.92,0,2.84,2.84,0,0,1-1.09-2.22.76.76,0,0,1,1.52,0Zm-9.19-15.34a2.16,2.16,0,0,0-.8,1.66,2.2,2.2,0,0,0,.8,1.67,3.31,3.31,0,0,0,4.17,0,2.21,2.21,0,0,0,.81-1.67,2.17,2.17,0,0,0-.81-1.66,3.27,3.27,0,0,0-4.17,0Z" transform="translate(0.26 -0.4)"/><path class="cls-4" d="M95.85,111a4.68,4.68,0,0,1,3.07,1.12,3.69,3.69,0,0,1,1.34,2.81,3.74,3.74,0,0,1-1.34,2.83,4.67,4.67,0,0,1-3.07,1.11,4.72,4.72,0,0,1-3.09-1.11,3.76,3.76,0,0,1-1.33-2.83,3.72,3.72,0,0,1,1.33-2.81A4.73,4.73,0,0,1,95.85,111Zm-7.11,17.62a.76.76,0,1,1,1.52,0,2.87,2.87,0,0,1-1.09,2.22,4,4,0,0,1-4.92,0,2.9,2.9,0,0,1-1.09-2.22,5,5,0,0,1,1.91-3.85,7.18,7.18,0,0,1,8.86,0,5,5,0,0,1,1.91,3.85,7.13,7.13,0,0,1-2.72,5.48,10.42,10.42,0,0,1-12.81,0,7.13,7.13,0,0,1-2.72-5.48,9.22,9.22,0,0,1,3.54-7.11,13.6,13.6,0,0,1,16.74,0,9.23,9.23,0,0,1,3.55,7.11.77.77,0,0,1-.77.76.76.76,0,0,1-.76-.76,7.73,7.73,0,0,0-3-5.94,12.09,12.09,0,0,0-14.8,0,7.75,7.75,0,0,0-3,5.94,5.6,5.6,0,0,0,2.17,4.31,8.92,8.92,0,0,0,10.85,0,5.63,5.63,0,0,0,2.17-4.31A3.5,3.5,0,0,0,93,125.93a5.69,5.69,0,0,0-6.91,0,3.52,3.52,0,0,0-1.35,2.68,1.33,1.33,0,0,0,.54,1,2.46,2.46,0,0,0,3,0,1.36,1.36,0,0,0,.54-1Zm9.19-15.35a3.31,3.31,0,0,0-4.17,0,2.12,2.12,0,0,0,0,3.33,3.27,3.27,0,0,0,4.17,0,2.13,2.13,0,0,0,0-3.33Z" transform="translate(0.26 -0.4)"/><path class="cls-4" d="M43.52,18.87A4.67,4.67,0,0,1,46.59,20a3.64,3.64,0,0,1,0,5.64,4.68,4.68,0,0,1-3.07,1.12,4.73,4.73,0,0,1-3.09-1.12,3.65,3.65,0,0,1,0-5.64,4.72,4.72,0,0,1,3.09-1.11ZM36.4,36.48a.77.77,0,0,1,.77-.76.76.76,0,0,1,.76.76,2.87,2.87,0,0,1-1.09,2.22,3.95,3.95,0,0,1-4.92,0,2.87,2.87,0,0,1-1.09-2.22,5,5,0,0,1,1.91-3.84,7.18,7.18,0,0,1,8.86,0,5,5,0,0,1,1.91,3.84A7.13,7.13,0,0,1,40.78,42,10.41,10.41,0,0,1,28,42a7.14,7.14,0,0,1-2.72-5.49,9.24,9.24,0,0,1,3.54-7.11,13.64,13.64,0,0,1,16.74,0,9.25,9.25,0,0,1,3.55,7.11.77.77,0,0,1-.77.77.76.76,0,0,1-.76-.77,7.73,7.73,0,0,0-3-5.93,12.09,12.09,0,0,0-14.8,0,7.75,7.75,0,0,0-3,5.93A5.58,5.58,0,0,0,29,40.79a8.88,8.88,0,0,0,10.85,0A5.61,5.61,0,0,0,42,36.48a3.48,3.48,0,0,0-1.36-2.67,5.69,5.69,0,0,0-6.91,0,3.5,3.5,0,0,0-1.35,2.67,1.35,1.35,0,0,0,.54,1.05,2.32,2.32,0,0,0,1.48.5,2.28,2.28,0,0,0,1.48-.5,1.35,1.35,0,0,0,.54-1.05Zm9.2-15.34a3.27,3.27,0,0,0-4.17,0,2.17,2.17,0,0,0-.81,1.66,2.21,2.21,0,0,0,.81,1.67,3.31,3.31,0,0,0,4.17,0,2.23,2.23,0,0,0,.8-1.67,2.19,2.19,0,0,0-.8-1.66Z" transform="translate(0.26 -0.4)"/><path class="cls-4" d="M27.61,53.61a4.68,4.68,0,0,1,3.08,1.12,3.63,3.63,0,0,1,0,5.63,4.79,4.79,0,0,1-6.16,0,3.64,3.64,0,0,1,0-5.63,4.72,4.72,0,0,1,3.08-1.12ZM20.5,71.23a.78.78,0,0,1,.77-.77.77.77,0,0,1,.76.77,2.9,2.9,0,0,1-1.09,2.22,4,4,0,0,1-4.92,0,2.9,2.9,0,0,1-1.09-2.22,5,5,0,0,1,1.91-3.85,7.18,7.18,0,0,1,8.86,0,5,5,0,0,1,1.91,3.85,7.14,7.14,0,0,1-2.73,5.48,10,10,0,0,1-6.4,2.2,10,10,0,0,1-6.4-2.2,7.14,7.14,0,0,1-2.73-5.48,9.27,9.27,0,0,1,3.55-7.12,13.19,13.19,0,0,1,8.37-2.87,13.19,13.19,0,0,1,8.37,2.87,9.27,9.27,0,0,1,3.55,7.12.77.77,0,0,1-.77.76.76.76,0,0,1-.76-.76,7.73,7.73,0,0,0-3-5.94,11.63,11.63,0,0,0-7.4-2.53,11.63,11.63,0,0,0-7.4,2.53,7.73,7.73,0,0,0-3,5.94,5.63,5.63,0,0,0,2.17,4.31,8.55,8.55,0,0,0,5.43,1.84,8.53,8.53,0,0,0,5.43-1.84,5.63,5.63,0,0,0,2.17-4.31,3.5,3.5,0,0,0-1.36-2.68,5.69,5.69,0,0,0-6.91,0,3.52,3.52,0,0,0-1.35,2.68,1.35,1.35,0,0,0,.54,1,2.44,2.44,0,0,0,3,0,1.35,1.35,0,0,0,.54-1Zm9.2-15.35a3.18,3.18,0,0,0-2.09-.74,3.14,3.14,0,0,0-2.08.74,2.12,2.12,0,0,0,0,3.33,3.14,3.14,0,0,0,2.08.75,3.19,3.19,0,0,0,2.09-.75,2.13,2.13,0,0,0,0-3.33Z" transform="translate(0.26 -0.4)"/><g class="cls-5"><g class="cls-6"><path class="cls-7" d="M29.34,122.19a1.18,1.18,0,0,0,0,2.35h83.25a11.74,11.74,0,0,0,0-23.47H29.34a1.18,1.18,0,0,0,0,2.35,9.39,9.39,0,1,1,0,18.77Z" transform="translate(0.26 -0.4)"/><path class="cls-8" d="M112.59,124.54H29.34a1.17,1.17,0,0,1-1.17-1.18v4.53a4.47,4.47,0,0,0,1.17.17h83.25a15.26,15.26,0,0,0,0-30.51H29.34a4.93,4.93,0,0,0-1.17.16v4.53a1.17,1.17,0,0,1,1.17-1.17h83.25a11.74,11.74,0,0,1,0,23.47Z" transform="translate(0.26 -0.4)"/><path class="cls-9" d="M19.18,91.68a1.18,1.18,0,1,0,0,2.35h83.24a11.74,11.74,0,1,0,0-23.47H19.18a1.18,1.18,0,1,0,0,2.35,9.39,9.39,0,0,1,0,18.77Z" transform="translate(0.26 -0.4)"/><path class="cls-7" d="M102.42,94H19.18A1.18,1.18,0,0,1,18,92.86v4.52a4.61,4.61,0,0,0,1.18.17h83.24a15.26,15.26,0,1,0,0-30.51H19.18a4.61,4.61,0,0,0-1.18.17v4.52a1.18,1.18,0,0,1,1.18-1.17h83.24a11.74,11.74,0,1,1,0,23.47Z" transform="translate(0.26 -0.4)"/><path class="cls-7" d="M41.5,61.18a1.17,1.17,0,0,0,0,2.34h83.25a11.73,11.73,0,0,0,0-23.46H41.5a1.17,1.17,0,1,0,0,2.34,9.39,9.39,0,0,1,0,18.78Z" transform="translate(0.26 -0.4)"/><path class="cls-8" d="M124.75,63.52H41.5a1.17,1.17,0,0,1-1.17-1.17v4.52A4.53,4.53,0,0,0,41.5,67h83.25a15.25,15.25,0,0,0,0-30.5H41.5a4.53,4.53,0,0,0-1.17.16v4.53a1.17,1.17,0,0,1,1.17-1.17h83.25a11.73,11.73,0,0,1,0,23.46Z" transform="translate(0.26 -0.4)"/></g></g><path class="cls-10" d="M63.18,84.49c-.37-.23-.77-.44-1.15-.66a8.66,8.66,0,0,1-1.54-1c-2.8-2.8-5.67-5.55-8.44-8.21A245.38,245.38,0,0,1,33.39,55.37a15.56,15.56,0,0,1-2.46-15.79c1.38-2.75,3-5.51,5.37-7.22A20.51,20.51,0,0,1,46.75,29c4,.21,7.22,1.44,9.43,3.66l.1.08c8.37,7.64,17.19,16.33,27,26.55.28.4.55.77.82,1.12a9.48,9.48,0,0,1,1.2,1.79,16,16,0,0,0,.87,2.18c2.62,6.7-.13,14.9-6.42,19.11a2.9,2.9,0,0,0,3.23,4.82c8.55-5.72,12.22-17,8.53-26.18l-.09-.22a12.12,12.12,0,0,1-.67-1.67,1.55,1.55,0,0,0-.08-.23,14.07,14.07,0,0,0-2-3.12c-.28-.36-.54-.7-.76-1a2.5,2.5,0,0,0-.31-.4c-9.92-10.37-18.87-19.19-27.37-27-3.28-3.25-7.77-5-13.34-5.3h-.28A26.27,26.27,0,0,0,33,27.56l-.07.05c-3.46,2.47-5.54,6-7.27,9.47,0,.06-.05.12-.08.17A21.43,21.43,0,0,0,28.94,59.1,250.33,250.33,0,0,0,48,78.84c2.75,2.64,5.59,5.37,8.35,8.13a12,12,0,0,0,2.86,2c.32.18.62.34.85.48a2.9,2.9,0,0,0,3.08-4.91Z" transform="translate(0.26 -0.4)"/><path class="cls-10" d="M128.94,95.32c0-.08,0-.19,0-.26a2.93,2.93,0,0,0,.09-.88A20.8,20.8,0,0,0,125.39,83l-.11-.14c-5.86-7.26-12.7-13.62-19.31-19.79-3.27-3.05-6.66-6.2-9.87-9.41A2.9,2.9,0,1,0,92,57.78c3.28,3.29,6.7,6.48,10,9.56,6.44,6,13.1,12.22,18.69,19.13a14.68,14.68,0,0,1,2.47,7.64,6.6,6.6,0,0,0,0,1.77c0,.15,0,.29,0,.41-.62,6.37-3.65,11.37-8.34,13.77a12.18,12.18,0,0,0-2.73,1.15l-.27.14A15.36,15.36,0,0,1,100,110.23l-.18-.08c-3.36-1.48-6-4.08-8.86-6.83-1-1-2-1.95-3.05-2.9-6.8-6.39-13.31-13.77-19-20.27a15.51,15.51,0,0,1-3.19-9.05A19.33,19.33,0,0,1,67,64.18a16.92,16.92,0,0,1,6.63-7,2.9,2.9,0,0,0-2.73-5.12,22.6,22.6,0,0,0-9.11,9.57c0,.11-.1.21-.14.32a25.33,25.33,0,0,0-1.84,9.24s0,.1,0,.15a21.07,21.07,0,0,0,4.59,12.61s0,0,0,0c5.84,6.61,12.46,14.11,19.47,20.7l0,0c1,.88,2,1.84,2.91,2.76,3.05,3,6.2,6,10.48,8a21.57,21.57,0,0,0,9.9,2.45,21,21,0,0,0,6.63-1.08l.38-.16.55-.28a7.66,7.66,0,0,1,1.6-.71,2.44,2.44,0,0,0,.69-.23c6.66-3.22,11.1-10.23,11.88-18.75a2.17,2.17,0,0,0,0-.26C129,96,129,95.61,128.94,95.32Z" transform="translate(0.26 -0.4)"/><circle class="cls-11" cx="73.81" cy="74.72" r="66.13"/></g></g></svg>