<svg xmlns="http://www.w3.org/2000/svg" xmlns:xlink="http://www.w3.org/1999/xlink" viewBox="0 0 150 150"><defs><style>.cls-1,.cls-11{fill:none;}.cls-2{isolation:isolate;}.cls-3{fill:#d1a473;}.cls-4{opacity:0.63;}.cls-4,.cls-5{mix-blend-mode:multiply;}.cls-5{fill:#8c5627;opacity:0.25;}.cls-6{clip-path:url(#clip-path);}.cls-7{mix-blend-mode:luminosity;}.cls-8{fill:#5a6e7f;}.cls-9{fill:#97d5c9;}.cls-10{fill:#5cbfab;}.cls-11{stroke:#fff;stroke-miterlimit:10;stroke-width:0.58px;}</style><clipPath id="clip-path"><circle class="cls-1" cx="75" cy="74.54" r="66.13"/></clipPath></defs><g class="cls-2"><g id="Ic_actividades" data-name="Ic actividades"><circle class="cls-3" cx="75" cy="75" r="75" transform="translate(-14.49 131.94) rotate(-77.47)"/><g class="cls-4"><path class="cls-5" d="M36,83.1A4.7,4.7,0,0,1,39,84.22a3.65,3.65,0,0,1,0,5.65,4.84,4.84,0,0,1-6.17,0,3.65,3.65,0,0,1,0-5.65A4.73,4.73,0,0,1,36,83.1Zm-7.13,17.64a.77.77,0,0,1,1.54,0,2.88,2.88,0,0,1-1.1,2.23,4,4,0,0,1-4.92,0,2.87,2.87,0,0,1-1.09-2.23,5,5,0,0,1,1.91-3.85,7.19,7.19,0,0,1,8.87,0A5,5,0,0,1,36,100.74a7.17,7.17,0,0,1-2.73,5.5,10.44,10.44,0,0,1-12.82,0,7.17,7.17,0,0,1-2.73-5.5,9.27,9.27,0,0,1,3.55-7.12,13.17,13.17,0,0,1,8.38-2.88A13.2,13.2,0,0,1,38,93.62a9.27,9.27,0,0,1,3.55,7.12.77.77,0,0,1-1.54,0,7.73,7.73,0,0,0-3-5.94,11.65,11.65,0,0,0-7.41-2.53,11.65,11.65,0,0,0-7.41,2.53,7.73,7.73,0,0,0-3,5.94,5.61,5.61,0,0,0,2.18,4.32,8.91,8.91,0,0,0,10.87,0,5.63,5.63,0,0,0,2.17-4.32,3.52,3.52,0,0,0-1.36-2.68,5.7,5.7,0,0,0-6.92,0,3.52,3.52,0,0,0-1.36,2.68,1.38,1.38,0,0,0,.54,1.05,2.35,2.35,0,0,0,1.49.5,2.28,2.28,0,0,0,1.48-.5,1.35,1.35,0,0,0,.54-1.05ZM38,85.37a3.31,3.31,0,0,0-4.17,0,2.14,2.14,0,0,0,0,3.35,3.31,3.31,0,0,0,4.17,0,2.14,2.14,0,0,0,0-3.35Z"/><path class="cls-5" d="M61.69,108.08a4.68,4.68,0,0,1,3.08,1.12,3.65,3.65,0,0,1,0,5.65,4.84,4.84,0,0,1-6.17,0,3.65,3.65,0,0,1,0-5.65,4.73,4.73,0,0,1,3.09-1.12Zm-7.12,17.64a.76.76,0,0,1,.76-.76.77.77,0,0,1,.77.76A2.88,2.88,0,0,1,55,128a4,4,0,0,1-4.92,0A2.91,2.91,0,0,1,49,125.72a5,5,0,0,1,1.91-3.85,7.19,7.19,0,0,1,8.87,0,5,5,0,0,1,1.91,3.85,7.13,7.13,0,0,1-2.73,5.5,10.44,10.44,0,0,1-12.82,0,7.17,7.17,0,0,1-2.73-5.5A9.27,9.27,0,0,1,47,118.6a13.65,13.65,0,0,1,16.77,0,9.27,9.27,0,0,1,3.55,7.12.77.77,0,0,1-.77.77.76.76,0,0,1-.76-.77,7.74,7.74,0,0,0-3-5.94,12.12,12.12,0,0,0-14.82,0,7.76,7.76,0,0,0-3,5.94A5.61,5.61,0,0,0,47.11,130,8.91,8.91,0,0,0,58,130a5.63,5.63,0,0,0,2.17-4.32A3.52,3.52,0,0,0,58.79,123a5.7,5.7,0,0,0-6.92,0,3.52,3.52,0,0,0-1.36,2.68,1.38,1.38,0,0,0,.54,1,2.47,2.47,0,0,0,3,0,1.38,1.38,0,0,0,.54-1Zm9.2-15.37a3.31,3.31,0,0,0-4.17,0,2.13,2.13,0,0,0,0,3.34,3.27,3.27,0,0,0,4.17,0,2.13,2.13,0,0,0,0-3.34Z"/><path class="cls-5" d="M72.6,10.6a4.72,4.72,0,0,1,3.08,1.12,3.64,3.64,0,0,1,0,5.64,4.81,4.81,0,0,1-6.17,0,3.64,3.64,0,0,1,0-5.64A4.73,4.73,0,0,1,72.6,10.6Zm7.12,17.64a1.37,1.37,0,0,0,.54,1.05,2.35,2.35,0,0,0,1.48.5,2.38,2.38,0,0,0,1.49-.5,1.4,1.4,0,0,0,.54-1.05,3.5,3.5,0,0,0-1.36-2.68,5.7,5.7,0,0,0-6.92,0,3.5,3.5,0,0,0-1.36,2.68,5.63,5.63,0,0,0,2.18,4.32,8.91,8.91,0,0,0,10.87,0,5.65,5.65,0,0,0,2.17-4.32,7.73,7.73,0,0,0-3-5.94,12.08,12.08,0,0,0-14.82,0,7.73,7.73,0,0,0-3,5.94.78.78,0,0,1-.77.77.77.77,0,0,1-.76-.77,9.27,9.27,0,0,1,3.54-7.12,13.65,13.65,0,0,1,16.77,0,9.22,9.22,0,0,1,3.55,7.12,7.15,7.15,0,0,1-2.73,5.49,10.4,10.4,0,0,1-12.82,0,7.16,7.16,0,0,1-2.73-5.49,5,5,0,0,1,1.92-3.85,7.19,7.19,0,0,1,8.87,0,5,5,0,0,1,1.91,3.85,2.85,2.85,0,0,1-1.1,2.22,3.95,3.95,0,0,1-4.92,0,2.84,2.84,0,0,1-1.09-2.22.76.76,0,0,1,.76-.76.77.77,0,0,1,.77.76ZM70.51,12.87a2.14,2.14,0,0,0,0,3.34,3.31,3.31,0,0,0,4.17,0,2.13,2.13,0,0,0,0-3.34,3.31,3.31,0,0,0-4.17,0Z"/><path class="cls-5" d="M111.47,87.05a4.75,4.75,0,0,1,3.09,1.12,3.67,3.67,0,0,1,0,5.65,4.86,4.86,0,0,1-6.18,0,3.65,3.65,0,0,1,0-5.65,4.73,4.73,0,0,1,3.09-1.12Zm7.12,17.64a1.38,1.38,0,0,0,.54,1,2.3,2.3,0,0,0,1.48.5,2.33,2.33,0,0,0,1.49-.5,1.38,1.38,0,0,0,.54-1,3.52,3.52,0,0,0-1.36-2.68,5.7,5.7,0,0,0-6.92,0,3.52,3.52,0,0,0-1.36,2.68,5.61,5.61,0,0,0,2.18,4.32,8.91,8.91,0,0,0,10.87,0,5.63,5.63,0,0,0,2.17-4.32,7.73,7.73,0,0,0-3-5.94,12.12,12.12,0,0,0-14.82,0,7.73,7.73,0,0,0-3,5.94.77.77,0,1,1-1.53,0,9.27,9.27,0,0,1,3.55-7.12,13.63,13.63,0,0,1,16.76,0,9.23,9.23,0,0,1,3.55,7.12,7.13,7.13,0,0,1-2.73,5.5,10.44,10.44,0,0,1-12.82,0,7.17,7.17,0,0,1-2.73-5.5,5,5,0,0,1,1.92-3.85,7.19,7.19,0,0,1,8.87,0,5,5,0,0,1,1.91,3.85,2.91,2.91,0,0,1-1.09,2.23,4,4,0,0,1-4.93,0,2.91,2.91,0,0,1-1.09-2.23.76.76,0,0,1,.76-.76.77.77,0,0,1,.77.76Zm-9.21-15.37a2.14,2.14,0,0,0,0,3.34,3.19,3.19,0,0,0,2.09.75,3.14,3.14,0,0,0,2.08-.75,2.13,2.13,0,0,0,0-3.34,3.19,3.19,0,0,0-2.08-.74,3.24,3.24,0,0,0-2.09.74Z"/><path class="cls-5" d="M120.47,59.07a4.73,4.73,0,0,1,3.09,1.12,3.64,3.64,0,0,1,0,5.64,4.81,4.81,0,0,1-6.17,0,3.64,3.64,0,0,1,0-5.64,4.7,4.7,0,0,1,3.08-1.12Zm7.13,17.64a1.37,1.37,0,0,0,.54,1.05,2.33,2.33,0,0,0,1.48.5,2.4,2.4,0,0,0,1.49-.5,1.4,1.4,0,0,0,.54-1.05A3.5,3.5,0,0,0,130.29,74a5.7,5.7,0,0,0-6.92,0A3.5,3.5,0,0,0,122,76.71,5.65,5.65,0,0,0,124.18,81a8.91,8.91,0,0,0,10.87,0,5.63,5.63,0,0,0,2.18-4.32,7.73,7.73,0,0,0-3-5.94,12.08,12.08,0,0,0-14.82,0,7.73,7.73,0,0,0-3,5.94.77.77,0,1,1-1.54,0,9.25,9.25,0,0,1,3.55-7.12,13.65,13.65,0,0,1,16.77,0,9.25,9.25,0,0,1,3.55,7.12A7.15,7.15,0,0,1,136,82.2a10.4,10.4,0,0,1-12.82,0,7.16,7.16,0,0,1-2.73-5.49,5,5,0,0,1,1.91-3.85,7.19,7.19,0,0,1,8.87,0,5,5,0,0,1,1.91,3.85,2.87,2.87,0,0,1-1.09,2.22,3.95,3.95,0,0,1-4.92,0,2.85,2.85,0,0,1-1.1-2.22.77.77,0,0,1,1.54,0Zm-9.21-15.37a2.13,2.13,0,0,0,0,3.34,3.31,3.31,0,0,0,4.17,0,2.13,2.13,0,0,0,0-3.34,3.31,3.31,0,0,0-4.17,0Z"/><path class="cls-5" d="M109.8,25.26a4.68,4.68,0,0,1,3.09,1.12,3.64,3.64,0,0,1,0,5.64,4.81,4.81,0,0,1-6.17,0,3.64,3.64,0,0,1,0-5.64,4.65,4.65,0,0,1,3.08-1.12Zm7.12,17.64a1.36,1.36,0,0,0,.54,1,2.43,2.43,0,0,0,3,0,1.36,1.36,0,0,0,.54-1,3.5,3.5,0,0,0-1.36-2.68,5.7,5.7,0,0,0-6.92,0,3.5,3.5,0,0,0-1.36,2.68,5.61,5.61,0,0,0,2.17,4.31,8.91,8.91,0,0,0,10.87,0,5.59,5.59,0,0,0,2.18-4.31,7.76,7.76,0,0,0-3-5.94,12.08,12.08,0,0,0-14.82,0,7.74,7.74,0,0,0-3,5.94.77.77,0,0,1-.76.77.78.78,0,0,1-.77-.77,9.25,9.25,0,0,1,3.55-7.12,13.65,13.65,0,0,1,16.77,0,9.25,9.25,0,0,1,3.55,7.12,7.15,7.15,0,0,1-2.73,5.49,10.4,10.4,0,0,1-12.82,0,7.13,7.13,0,0,1-2.73-5.49,5,5,0,0,1,1.91-3.85,7.19,7.19,0,0,1,8.87,0,5,5,0,0,1,1.91,3.85,2.87,2.87,0,0,1-1.09,2.22,3.95,3.95,0,0,1-4.92,0,2.85,2.85,0,0,1-1.1-2.22.77.77,0,0,1,.77-.76.76.76,0,0,1,.76.76Zm-9.2-15.37a2.13,2.13,0,0,0,0,3.34,3.31,3.31,0,0,0,4.17,0,2.13,2.13,0,0,0,0-3.34,3.31,3.31,0,0,0-4.17,0Z"/><path class="cls-5" d="M97.32,111.5a4.68,4.68,0,0,1,3.08,1.12,3.65,3.65,0,0,1,0,5.65,4.84,4.84,0,0,1-6.17,0,3.67,3.67,0,0,1,0-5.65,4.73,4.73,0,0,1,3.09-1.12ZM90.2,129.14a.77.77,0,0,1,1.53,0,2.88,2.88,0,0,1-1.1,2.23,4,4,0,0,1-4.92,0,2.91,2.91,0,0,1-1.09-2.23,5,5,0,0,1,1.91-3.85,7.19,7.19,0,0,1,8.87,0,5,5,0,0,1,1.91,3.85,7.13,7.13,0,0,1-2.73,5.5,10.44,10.44,0,0,1-12.82,0,7.17,7.17,0,0,1-2.73-5.5A9.27,9.27,0,0,1,82.58,122a13.65,13.65,0,0,1,16.77,0,9.27,9.27,0,0,1,3.55,7.12.77.77,0,0,1-.77.77.76.76,0,0,1-.76-.77,7.74,7.74,0,0,0-3-5.94,12.1,12.1,0,0,0-14.81,0,7.74,7.74,0,0,0-3,5.94,5.61,5.61,0,0,0,2.18,4.32,8.91,8.91,0,0,0,10.87,0,5.63,5.63,0,0,0,2.17-4.32,3.52,3.52,0,0,0-1.36-2.68A5.44,5.44,0,0,0,91,125.29a5.5,5.5,0,0,0-3.47,1.17,3.52,3.52,0,0,0-1.36,2.68,1.38,1.38,0,0,0,.54,1.05,2.47,2.47,0,0,0,3,0,1.38,1.38,0,0,0,.54-1.05Zm9.21-15.37a3.32,3.32,0,0,0-4.18,0,2.13,2.13,0,0,0,0,3.34,3.29,3.29,0,0,0,4.18,0,2.14,2.14,0,0,0,0-3.34Z"/><path class="cls-5" d="M44.91,19.25A4.73,4.73,0,0,1,48,20.37,3.64,3.64,0,0,1,48,26a4.81,4.81,0,0,1-6.17,0,3.64,3.64,0,0,1,0-5.64,4.7,4.7,0,0,1,3.08-1.12ZM37.79,36.89a.77.77,0,0,1,.77-.76.76.76,0,0,1,.76.76,2.87,2.87,0,0,1-1.09,2.22,4,4,0,0,1-4.93,0,2.87,2.87,0,0,1-1.09-2.22A5,5,0,0,1,34.12,33,7.19,7.19,0,0,1,43,33a5,5,0,0,1,1.92,3.85,7.16,7.16,0,0,1-2.73,5.49,10.4,10.4,0,0,1-12.82,0,7.11,7.11,0,0,1-2.73-5.49,9.22,9.22,0,0,1,3.55-7.12,13.65,13.65,0,0,1,16.77,0,9.27,9.27,0,0,1,3.54,7.12.77.77,0,0,1-.76.77.78.78,0,0,1-.77-.77A7.73,7.73,0,0,0,46,31a12.08,12.08,0,0,0-14.82,0,7.73,7.73,0,0,0-3,5.94,5.65,5.65,0,0,0,2.17,4.32,8.91,8.91,0,0,0,10.87,0,5.63,5.63,0,0,0,2.18-4.32A3.5,3.5,0,0,0,42,34.21a5.7,5.7,0,0,0-6.92,0,3.5,3.5,0,0,0-1.36,2.68,1.4,1.4,0,0,0,.54,1,2.38,2.38,0,0,0,1.49.5,2.35,2.35,0,0,0,1.48-.5,1.37,1.37,0,0,0,.54-1ZM47,21.52a3.31,3.31,0,0,0-4.17,0,2.13,2.13,0,0,0,0,3.34,3.31,3.31,0,0,0,4.17,0,2.14,2.14,0,0,0,0-3.34Z"/><path class="cls-5" d="M29,54a4.68,4.68,0,0,1,3.08,1.12,3.65,3.65,0,0,1,0,5.65,4.84,4.84,0,0,1-6.17,0,3.67,3.67,0,0,1,0-5.65A4.73,4.73,0,0,1,29,54ZM21.87,71.68a.77.77,0,0,1,1.53,0,2.85,2.85,0,0,1-1.1,2.22,3.82,3.82,0,0,1-2.46.86,3.87,3.87,0,0,1-2.46-.86,2.87,2.87,0,0,1-1.09-2.22,5,5,0,0,1,1.91-3.85,7.19,7.19,0,0,1,8.87,0A5,5,0,0,1,29,71.68a7.14,7.14,0,0,1-2.72,5.49,10.11,10.11,0,0,1-6.42,2.21,10.1,10.1,0,0,1-6.41-2.21,7.13,7.13,0,0,1-2.73-5.49,9.25,9.25,0,0,1,3.55-7.12,13.18,13.18,0,0,1,8.39-2.88A13.17,13.17,0,0,1,31,64.56a9.25,9.25,0,0,1,3.55,7.12.77.77,0,1,1-1.53,0,7.73,7.73,0,0,0-3-5.94,11.65,11.65,0,0,0-7.41-2.53,11.65,11.65,0,0,0-7.41,2.53,7.73,7.73,0,0,0-3,5.94A5.6,5.6,0,0,0,14.41,76a8.54,8.54,0,0,0,5.43,1.85A8.56,8.56,0,0,0,25.28,76a5.63,5.63,0,0,0,2.17-4.32A3.52,3.52,0,0,0,26.09,69a5.42,5.42,0,0,0-3.45-1.17A5.5,5.5,0,0,0,19.17,69a3.54,3.54,0,0,0-1.35,2.68,1.37,1.37,0,0,0,.54,1,2.46,2.46,0,0,0,3,0,1.4,1.4,0,0,0,.54-1Zm9.21-15.37a3.32,3.32,0,0,0-4.18,0,2.13,2.13,0,0,0,0,3.34,3.29,3.29,0,0,0,4.18,0,2.14,2.14,0,0,0,0-3.34Z"/></g><g class="cls-6"><g class="cls-7"><path class="cls-8" d="M21.24,120.71a7,7,0,0,0,4.9,2h97.72a6.91,6.91,0,0,0,6.92-6.92V58.6H19.22v57.22A7,7,0,0,0,21.24,120.71Zm87.08-57.47h16V77.45h-16Zm0,18.13h16V95.58h-16ZM87.67,63.24h16V77.45h-16Zm0,18.13h16V95.58h-16Zm0,18.14h16v14.21h-16ZM67,63.24H83V77.45H67Zm0,18.13H83V95.58H67Zm0,18.14H83v14.21H67ZM46.36,63.24h16V77.45h-16Zm0,18.13h16V95.58h-16Zm0,18.14h16v14.21h-16ZM25.71,81.37h16V95.58h-16Zm0,18.14h16v14.21h-16Z"/><rect class="cls-9" x="19.22" y="52" width="111.57" height="4.1"/><path class="cls-9" d="M30.69,32.31H26.14a6.9,6.9,0,0,0-6.92,6.91v8H130.78v-8a6.9,6.9,0,0,0-6.92-6.91H112.13v9a3.06,3.06,0,0,1-3.07,3.06h-6.45a3.06,3.06,0,0,1-3.06-3.06v-9H50.45v9a3.06,3.06,0,0,1-3.06,3.06H40.94a3.05,3.05,0,0,1-3.06-3.06v-9Z"/><rect class="cls-10" x="19.22" y="47.26" width="111.57" height="4.74"/><polygon class="cls-8" points="40.94 41.36 47.39 41.36 47.39 32.31 47.39 24.34 40.94 24.34 40.94 32.31 40.94 41.36"/><polygon class="cls-8" points="102.61 41.36 109.06 41.36 109.06 32.31 109.06 24.34 102.61 24.34 102.61 32.31 102.61 41.36"/><rect class="cls-10" x="46.36" y="63.24" width="15.97" height="14.21"/><rect class="cls-10" x="67.01" y="63.24" width="15.97" height="14.21"/><rect class="cls-10" x="87.67" y="63.24" width="15.97" height="14.21"/><rect class="cls-10" x="108.32" y="63.24" width="15.97" height="14.21"/><rect class="cls-10" x="25.71" y="81.37" width="15.97" height="14.21"/><rect class="cls-10" x="46.36" y="81.37" width="15.97" height="14.21"/><rect class="cls-10" x="67.01" y="81.37" width="15.97" height="14.21"/><rect class="cls-9" x="87.67" y="81.37" width="15.97" height="14.21"/><rect class="cls-10" x="108.32" y="81.37" width="15.97" height="14.21"/><rect class="cls-10" x="25.71" y="99.51" width="15.97" height="14.21"/><rect class="cls-9" x="46.36" y="99.51" width="15.97" height="14.21"/><rect class="cls-10" x="67.01" y="99.51" width="15.97" height="14.21"/><rect class="cls-10" x="87.67" y="99.51" width="15.97" height="14.21"/></g></g><circle class="cls-11" cx="75" cy="74.54" r="66.13" transform="translate(-14.62 130.66) rotate(-76.88)"/></g></g></svg>