<svg xmlns="http://www.w3.org/2000/svg" xmlns:xlink="http://www.w3.org/1999/xlink" viewBox="0 0 149.82 149.82"><defs><style>.cls-1,.cls-7{fill:none;}.cls-2{isolation:isolate;}.cls-3{fill:#3f95e0;}.cls-4{fill:#23a9e1;opacity:0.25;mix-blend-mode:multiply;}.cls-5{clip-path:url(#clip-path);}.cls-6{fill:#fff;}.cls-7{stroke:#fff;stroke-miterlimit:10;stroke-width:0.58px;}</style><clipPath id="clip-path" transform="translate(-0.19 -0.19)"><circle class="cls-1" cx="75.2" cy="74.79" r="66.13"/></clipPath></defs><g class="cls-2"><g id="Ic_documentos" data-name="Ic documentos"><circle class="cls-3" cx="74.91" cy="74.91" r="74.89"/><path class="cls-4" d="M37.2,84.28a4.68,4.68,0,0,1,3.08,1.12,3.64,3.64,0,0,1,0,5.64,4.83,4.83,0,0,1-6.16,0,3.65,3.65,0,0,1,0-5.64,4.72,4.72,0,0,1,3.08-1.12ZM30.09,101.9a.77.77,0,0,1,1.53,0,2.89,2.89,0,0,1-1.09,2.22,4,4,0,0,1-4.92,0,2.89,2.89,0,0,1-1.09-2.22,5,5,0,0,1,1.91-3.85,7.16,7.16,0,0,1,8.85,0,5,5,0,0,1,1.92,3.85,7.13,7.13,0,0,1-2.73,5.48,10.41,10.41,0,0,1-12.8,0,7.13,7.13,0,0,1-2.73-5.48,9.23,9.23,0,0,1,3.55-7.11,13.14,13.14,0,0,1,8.37-2.88,13.14,13.14,0,0,1,8.37,2.88,9.22,9.22,0,0,1,3.54,7.11.76.76,0,0,1-.76.76.77.77,0,0,1-.77-.76,7.75,7.75,0,0,0-3-5.94,11.63,11.63,0,0,0-7.4-2.53A11.63,11.63,0,0,0,23.46,96a7.73,7.73,0,0,0-3,5.94,5.63,5.63,0,0,0,2.17,4.31,8.93,8.93,0,0,0,10.86,0,5.63,5.63,0,0,0,2.17-4.31,3.5,3.5,0,0,0-1.36-2.68,5.69,5.69,0,0,0-6.91,0A3.5,3.5,0,0,0,26,101.9a1.36,1.36,0,0,0,.54,1,2.35,2.35,0,0,0,1.49.5,2.3,2.3,0,0,0,1.48-.5,1.36,1.36,0,0,0,.54-1Zm9.2-15.35a3.24,3.24,0,0,0-2.09-.74,3.19,3.19,0,0,0-2.08.74,2.21,2.21,0,0,0-.81,1.67,2.24,2.24,0,0,0,.81,1.67,3.19,3.19,0,0,0,2.08.74,3.24,3.24,0,0,0,2.09-.74,2.26,2.26,0,0,0,.8-1.67,2.23,2.23,0,0,0-.8-1.67Z" transform="translate(-0.19 -0.19)"/><path class="cls-4" d="M62.9,109.23A4.72,4.72,0,0,1,66,110.34,3.65,3.65,0,0,1,66,116a4.81,4.81,0,0,1-6.17,0,3.65,3.65,0,0,1,0-5.64,4.72,4.72,0,0,1,3.09-1.11Zm-7.11,17.61a.76.76,0,0,1,.76-.76.77.77,0,0,1,.77.76,2.85,2.85,0,0,1-1.1,2.22,3.95,3.95,0,0,1-4.92,0,2.87,2.87,0,0,1-1.09-2.22A5,5,0,0,1,52.12,123,7.18,7.18,0,0,1,61,123a5,5,0,0,1,1.91,3.84,7.15,7.15,0,0,1-2.72,5.49,10.42,10.42,0,0,1-12.81,0,7.14,7.14,0,0,1-2.72-5.49,9.24,9.24,0,0,1,3.54-7.11,13.62,13.62,0,0,1,16.75,0,9.27,9.27,0,0,1,3.54,7.11.77.77,0,1,1-1.53,0,7.73,7.73,0,0,0-3-5.93,12.09,12.09,0,0,0-14.8,0,7.75,7.75,0,0,0-3,5.93,5.58,5.58,0,0,0,2.17,4.31,8.88,8.88,0,0,0,10.85,0,5.58,5.58,0,0,0,2.17-4.31A3.5,3.5,0,0,0,60,124.17a5.69,5.69,0,0,0-6.91,0,3.48,3.48,0,0,0-1.36,2.67,1.4,1.4,0,0,0,.54,1,2.46,2.46,0,0,0,3,0,1.4,1.4,0,0,0,.54-1ZM65,111.49a3.31,3.31,0,0,0-4.17,0,2.14,2.14,0,0,0,0,3.34,3.31,3.31,0,0,0,4.17,0,2.14,2.14,0,0,0,0-3.34Z" transform="translate(-0.19 -0.19)"/><path class="cls-4" d="M73.79,11.88A4.68,4.68,0,0,1,76.87,13a3.63,3.63,0,0,1,0,5.63,4.79,4.79,0,0,1-6.16,0,3.63,3.63,0,0,1,0-5.63,4.68,4.68,0,0,1,3.08-1.12ZM80.9,29.49a1.38,1.38,0,0,0,.54,1.05,2.46,2.46,0,0,0,3,0A1.38,1.38,0,0,0,85,29.49a3.5,3.5,0,0,0-1.36-2.67,5.69,5.69,0,0,0-6.91,0,3.5,3.5,0,0,0-1.36,2.67,5.65,5.65,0,0,0,2.17,4.32,8.93,8.93,0,0,0,10.86,0,5.65,5.65,0,0,0,2.17-4.32,7.73,7.73,0,0,0-3-5.93,12.07,12.07,0,0,0-14.79,0,7.73,7.73,0,0,0-3,5.93.77.77,0,1,1-1.53,0,9.28,9.28,0,0,1,3.54-7.11,13.65,13.65,0,0,1,16.75,0,9.25,9.25,0,0,1,3.54,7.11A7.11,7.11,0,0,1,89.32,35a10.41,10.41,0,0,1-12.8,0,7.15,7.15,0,0,1-2.72-5.49,5,5,0,0,1,1.91-3.84,7.18,7.18,0,0,1,8.86,0,5,5,0,0,1,1.9,3.84,2.91,2.91,0,0,1-1.09,2.23,4,4,0,0,1-4.91,0,2.88,2.88,0,0,1-1.1-2.23.77.77,0,0,1,1.53,0ZM71.71,14.15a2.12,2.12,0,0,0,0,3.33,3.26,3.26,0,0,0,4.16,0,2.12,2.12,0,0,0,0-3.33,3.29,3.29,0,0,0-4.16,0Z" transform="translate(-0.19 -0.19)"/><path class="cls-4" d="M112.61,88.23a4.72,4.72,0,0,1,3.08,1.11,3.65,3.65,0,0,1,0,5.64,4.79,4.79,0,0,1-6.16,0,3.64,3.64,0,0,1,0-5.64,4.68,4.68,0,0,1,3.08-1.11Zm7.11,17.61a1.4,1.4,0,0,0,.54,1,2.35,2.35,0,0,0,1.48.5,2.4,2.4,0,0,0,1.49-.5,1.4,1.4,0,0,0,.54-1,3.48,3.48,0,0,0-1.36-2.67,5.69,5.69,0,0,0-6.91,0,3.48,3.48,0,0,0-1.36,2.67,5.61,5.61,0,0,0,2.17,4.31,8.89,8.89,0,0,0,10.86,0,5.61,5.61,0,0,0,2.17-4.31,7.73,7.73,0,0,0-3-5.93,12.09,12.09,0,0,0-14.8,0,7.76,7.76,0,0,0-3,5.93.76.76,0,1,1-1.52,0,9.24,9.24,0,0,1,3.54-7.11,13.6,13.6,0,0,1,16.74,0,9.25,9.25,0,0,1,3.55,7.11,7.15,7.15,0,0,1-2.73,5.49,10.41,10.41,0,0,1-12.8,0,7.16,7.16,0,0,1-2.73-5.49,5,5,0,0,1,1.91-3.84,7.18,7.18,0,0,1,8.86,0,5,5,0,0,1,1.91,3.84,2.87,2.87,0,0,1-1.09,2.22,3.95,3.95,0,0,1-4.92,0,2.87,2.87,0,0,1-1.09-2.22.76.76,0,0,1,.76-.76.77.77,0,0,1,.77.76Zm-9.2-15.35a2.14,2.14,0,0,0,0,3.34,3.24,3.24,0,0,0,2.09.74,3.19,3.19,0,0,0,2.08-.74,2.13,2.13,0,0,0,0-3.34,3.19,3.19,0,0,0-2.08-.74,3.24,3.24,0,0,0-2.09.74Z" transform="translate(-0.19 -0.19)"/><path class="cls-4" d="M121.6,60.28a4.73,4.73,0,0,1,3.09,1.12,3.65,3.65,0,0,1,0,5.64,4.84,4.84,0,0,1-6.17,0,3.65,3.65,0,0,1,0-5.64,4.72,4.72,0,0,1,3.08-1.12Zm7.11,17.62a1.36,1.36,0,0,0,.54,1,2.46,2.46,0,0,0,3,0,1.36,1.36,0,0,0,.54-1,3.5,3.5,0,0,0-1.36-2.68,5.69,5.69,0,0,0-6.91,0,3.52,3.52,0,0,0-1.35,2.68,5.6,5.6,0,0,0,2.17,4.31,8.92,8.92,0,0,0,10.85,0,5.63,5.63,0,0,0,2.17-4.31,7.73,7.73,0,0,0-3-5.94,12.07,12.07,0,0,0-14.79,0,7.73,7.73,0,0,0-3,5.94.77.77,0,0,1-1.53,0,9.25,9.25,0,0,1,3.54-7.11,13.62,13.62,0,0,1,16.75,0,9.22,9.22,0,0,1,3.54,7.11,7.12,7.12,0,0,1-2.72,5.48,10.42,10.42,0,0,1-12.81,0,7.12,7.12,0,0,1-2.72-5.48,5,5,0,0,1,1.91-3.85,7.18,7.18,0,0,1,8.86,0,5,5,0,0,1,1.9,3.85,2.85,2.85,0,0,1-1.09,2.22,4,4,0,0,1-4.91,0,2.86,2.86,0,0,1-1.1-2.22.77.77,0,0,1,.77-.76.76.76,0,0,1,.76.76Zm-9.19-15.35a2.21,2.21,0,0,0-.81,1.67,2.24,2.24,0,0,0,.81,1.67,3.19,3.19,0,0,0,2.08.74,3.24,3.24,0,0,0,2.09-.74,2.23,2.23,0,0,0,.8-1.67,2.2,2.2,0,0,0-.8-1.67,3.24,3.24,0,0,0-2.09-.74,3.19,3.19,0,0,0-2.08.74Z" transform="translate(-0.19 -0.19)"/><path class="cls-4" d="M111,26.52A4.67,4.67,0,0,1,114,27.64a3.64,3.64,0,0,1,0,5.63,4.79,4.79,0,0,1-6.16,0,3.63,3.63,0,0,1,0-5.63A4.63,4.63,0,0,1,111,26.52Zm7.11,17.61a1.35,1.35,0,0,0,.54,1,2.44,2.44,0,0,0,3,0,1.35,1.35,0,0,0,.54-1,3.52,3.52,0,0,0-1.35-2.67,5.69,5.69,0,0,0-6.91,0,3.5,3.5,0,0,0-1.36,2.67,5.61,5.61,0,0,0,2.17,4.31,8.89,8.89,0,0,0,10.86,0,5.61,5.61,0,0,0,2.17-4.31,7.73,7.73,0,0,0-3-5.93,12.09,12.09,0,0,0-14.8,0,7.73,7.73,0,0,0-3,5.93.76.76,0,0,1-.76.77.77.77,0,0,1-.77-.77A9.25,9.25,0,0,1,108.92,37a13.64,13.64,0,0,1,16.74,0,9.25,9.25,0,0,1,3.55,7.11,7.15,7.15,0,0,1-2.73,5.49,10.41,10.41,0,0,1-12.8,0A7.16,7.16,0,0,1,111,44.13a5,5,0,0,1,1.91-3.84,7.18,7.18,0,0,1,8.86,0,5,5,0,0,1,1.91,3.84,2.87,2.87,0,0,1-1.09,2.22,3.95,3.95,0,0,1-4.92,0,2.87,2.87,0,0,1-1.09-2.22.76.76,0,0,1,.76-.76.77.77,0,0,1,.77.76Zm-9.2-15.34a2.13,2.13,0,0,0,0,3.33,3.18,3.18,0,0,0,2.09.74,3.14,3.14,0,0,0,2.08-.74,2.12,2.12,0,0,0,0-3.33A3.14,3.14,0,0,0,111,28a3.19,3.19,0,0,0-2.09.75Z" transform="translate(-0.19 -0.19)"/><path class="cls-4" d="M98.48,112.64a4.72,4.72,0,0,1,3.08,1.12,3.65,3.65,0,0,1,0,5.64,4.84,4.84,0,0,1-6.17,0,3.65,3.65,0,0,1,0-5.64,4.73,4.73,0,0,1,3.09-1.12Zm-7.11,17.62a.76.76,0,0,1,.76-.76.77.77,0,0,1,.77.76,2.86,2.86,0,0,1-1.1,2.22,4,4,0,0,1-4.91,0,2.85,2.85,0,0,1-1.09-2.22,5,5,0,0,1,1.9-3.85,7.18,7.18,0,0,1,8.86,0,5,5,0,0,1,1.91,3.85,7.12,7.12,0,0,1-2.72,5.48,10.42,10.42,0,0,1-12.81,0,7.12,7.12,0,0,1-2.72-5.48,9.22,9.22,0,0,1,3.54-7.11,13.62,13.62,0,0,1,16.75,0,9.25,9.25,0,0,1,3.54,7.11.77.77,0,0,1-1.53,0,7.73,7.73,0,0,0-3-5.94,12.09,12.09,0,0,0-14.8,0,7.75,7.75,0,0,0-3,5.94,5.63,5.63,0,0,0,2.17,4.31,8.92,8.92,0,0,0,10.85,0,5.6,5.6,0,0,0,2.17-4.31,3.52,3.52,0,0,0-1.35-2.68,5.69,5.69,0,0,0-6.91,0,3.5,3.5,0,0,0-1.36,2.68,1.36,1.36,0,0,0,.54,1,2.46,2.46,0,0,0,3,0,1.36,1.36,0,0,0,.54-1Zm9.19-15.35a3.19,3.19,0,0,0-2.08-.74,3.24,3.24,0,0,0-2.09.74,2.2,2.2,0,0,0-.8,1.67,2.23,2.23,0,0,0,.8,1.67,3.24,3.24,0,0,0,2.09.74,3.19,3.19,0,0,0,2.08-.74,2.23,2.23,0,0,0,.8-1.67,2.2,2.2,0,0,0-.8-1.67Z" transform="translate(-0.19 -0.19)"/><path class="cls-4" d="M46.15,20.52a4.67,4.67,0,0,1,3.08,1.12,3.64,3.64,0,0,1,0,5.63,4.81,4.81,0,0,1-6.17,0,3.64,3.64,0,0,1,0-5.63,4.68,4.68,0,0,1,3.09-1.12ZM39,38.13a.76.76,0,0,1,.76-.76.77.77,0,0,1,.77.76,2.85,2.85,0,0,1-1.1,2.22,3.95,3.95,0,0,1-4.92,0,2.87,2.87,0,0,1-1.09-2.22,5,5,0,0,1,1.91-3.84,7.18,7.18,0,0,1,8.86,0,5,5,0,0,1,1.91,3.84,7.15,7.15,0,0,1-2.72,5.49,10.42,10.42,0,0,1-12.81,0,7.14,7.14,0,0,1-2.72-5.49A9.24,9.24,0,0,1,31.43,31a13.65,13.65,0,0,1,16.75,0,9.27,9.27,0,0,1,3.54,7.11.77.77,0,1,1-1.53,0,7.73,7.73,0,0,0-3-5.93,12.09,12.09,0,0,0-14.8,0,7.75,7.75,0,0,0-3,5.93,5.58,5.58,0,0,0,2.17,4.31,8.88,8.88,0,0,0,10.85,0,5.58,5.58,0,0,0,2.17-4.31,3.52,3.52,0,0,0-1.35-2.67,5.69,5.69,0,0,0-6.91,0A3.5,3.5,0,0,0,35,38.13a1.38,1.38,0,0,0,.54,1,2.46,2.46,0,0,0,3,0,1.38,1.38,0,0,0,.54-1Zm9.19-15.34a3.27,3.27,0,0,0-4.17,0,2.13,2.13,0,0,0,0,3.33,3.31,3.31,0,0,0,4.17,0,2.13,2.13,0,0,0,0-3.33Z" transform="translate(-0.19 -0.19)"/><path class="cls-4" d="M30.25,55.26a4.68,4.68,0,0,1,3.07,1.12,3.69,3.69,0,0,1,1.34,2.81A3.74,3.74,0,0,1,33.32,62a4.67,4.67,0,0,1-3.07,1.11A4.72,4.72,0,0,1,27.16,62a3.76,3.76,0,0,1-1.33-2.83,3.72,3.72,0,0,1,1.33-2.81,4.73,4.73,0,0,1,3.09-1.12ZM23.13,72.88a.78.78,0,0,1,.77-.77.77.77,0,0,1,.76.77,2.9,2.9,0,0,1-1.09,2.22,4,4,0,0,1-4.92,0,2.9,2.9,0,0,1-1.09-2.22A5,5,0,0,1,19.47,69a7.18,7.18,0,0,1,8.86,0,5,5,0,0,1,1.91,3.85,7.11,7.11,0,0,1-2.73,5.48,10,10,0,0,1-6.4,2.2,10.07,10.07,0,0,1-6.4-2.2A7.13,7.13,0,0,1,12,72.88a9.26,9.26,0,0,1,3.54-7.12,13.19,13.19,0,0,1,8.37-2.87,13.19,13.19,0,0,1,8.37,2.87,9.27,9.27,0,0,1,3.55,7.12.77.77,0,0,1-.77.76.76.76,0,0,1-.76-.76,7.73,7.73,0,0,0-3-5.94,11.63,11.63,0,0,0-7.4-2.53,11.63,11.63,0,0,0-7.4,2.53,7.75,7.75,0,0,0-3,5.94,5.6,5.6,0,0,0,2.17,4.31A8.52,8.52,0,0,0,21.11,79a8.53,8.53,0,0,0,5.43-1.84,5.63,5.63,0,0,0,2.17-4.31,3.5,3.5,0,0,0-1.36-2.68,5.69,5.69,0,0,0-6.91,0,3.52,3.52,0,0,0-1.35,2.68,1.35,1.35,0,0,0,.54,1,2.32,2.32,0,0,0,1.48.5,2.28,2.28,0,0,0,1.48-.5,1.35,1.35,0,0,0,.54-1Zm9.2-15.35a3.31,3.31,0,0,0-4.17,0,2.12,2.12,0,0,0,0,3.33,3.27,3.27,0,0,0,4.17,0,2.13,2.13,0,0,0,0-3.33Z" transform="translate(-0.19 -0.19)"/><g class="cls-5"><polygon class="cls-6" points="101.35 120.1 38.82 120.1 40.86 122.41 42.6 124.37 103.31 124.37 107.58 124.37 109.93 124.37 111.86 124.37 111.86 30.54 111.86 22.41 107.58 18.42 107.58 26.68 107.58 120.1 103.31 120.1 101.35 120.1"/><polygon class="cls-6" points="114.2 24.47 114.2 32.73 114.2 126.72 109.93 126.72 107.58 126.72 44.44 126.72 46.14 128.65 48.22 131 109.93 131 114.2 131 118.47 131 118.47 28.46 114.2 24.47"/><path class="cls-6" d="M37.54,118.33h68.27V15.79H35.56s-4.75,2.13-5.45,4.88a2.91,2.91,0,0,0-.09.65V112.8a5.54,5.54,0,0,0,5.54,5.53ZM39.73,48.4a8.58,8.58,0,0,1,8.55-8.55H90.54a8.58,8.58,0,0,1,8.55,8.55v9.42a8.57,8.57,0,0,1-8.55,8.55H48.28a8.57,8.57,0,0,1-8.55-8.55Z" transform="translate(-0.19 -0.19)"/><path class="cls-6" d="M43.08,128.84l-3.81-4.27-1.75-2-1.67-1.89H32l1.6,1.89,1.67,2,3.62,4.27.49.57a13.06,13.06,0,0,0,3,1.78,10,10,0,0,0,3.42.81l-.72-.81Z" transform="translate(-0.19 -0.19)"/></g><circle class="cls-7" cx="74.91" cy="74.91" r="66.13"/></g></g></svg>