<svg xmlns="http://www.w3.org/2000/svg" xmlns:xlink="http://www.w3.org/1999/xlink" viewBox="0 0 150 150"><defs><style>.cls-1,.cls-10{fill:none;}.cls-2{isolation:isolate;}.cls-3{fill:#f2bbc9;}.cls-4{opacity:0.63;}.cls-4,.cls-5,.cls-8{mix-blend-mode:multiply;}.cls-5{fill:#ff8787;opacity:0.25;}.cls-6{clip-path:url(#clip-path);}.cls-7{fill:#fff;}.cls-8{opacity:0.56;}.cls-9{fill:#ebd3e0;}.cls-10{stroke:#fff;stroke-miterlimit:10;stroke-width:0.59px;}</style><clipPath id="clip-path" transform="translate(0.07 -0.32)"><circle class="cls-1" cx="74.93" cy="75.32" r="66.22" transform="translate(-1.07 1.08) rotate(-0.82)"/></clipPath></defs><g class="cls-2"><g id="Ic_sabías_que" data-name="Ic sabías que"><circle class="cls-3" cx="74.93" cy="75.32" r="75" transform="translate(-31.25 74.73) rotate(-45)"/><g class="cls-4"><path class="cls-5" d="M36.44,84a4.68,4.68,0,0,1,3.08,1.11,3.64,3.64,0,0,1,0,5.64,4.83,4.83,0,0,1-6.16,0,3.65,3.65,0,0,1,0-5.64A4.72,4.72,0,0,1,36.44,84Zm-7.11,17.61a.77.77,0,0,1,1.53,0,2.89,2.89,0,0,1-1.09,2.22,4,4,0,0,1-4.92,0,2.89,2.89,0,0,1-1.09-2.22,5,5,0,0,1,1.91-3.85,7.18,7.18,0,0,1,8.86,0,5,5,0,0,1,1.91,3.85,7.13,7.13,0,0,1-2.73,5.48,10.37,10.37,0,0,1-12.8,0,7.13,7.13,0,0,1-2.73-5.48,9.23,9.23,0,0,1,3.55-7.11,13.14,13.14,0,0,1,8.37-2.88,13.14,13.14,0,0,1,8.37,2.88A9.22,9.22,0,0,1,42,101.57a.77.77,0,0,1-.76.77.78.78,0,0,1-.77-.77,7.75,7.75,0,0,0-3-5.94,11.62,11.62,0,0,0-7.4-2.52,11.62,11.62,0,0,0-7.4,2.52,7.73,7.73,0,0,0-3,5.94,5.63,5.63,0,0,0,2.17,4.31,8.89,8.89,0,0,0,10.86,0,5.63,5.63,0,0,0,2.17-4.31,3.5,3.5,0,0,0-1.36-2.68,5.69,5.69,0,0,0-6.91,0,3.5,3.5,0,0,0-1.36,2.68,1.36,1.36,0,0,0,.54,1,2.35,2.35,0,0,0,1.49.5,2.3,2.3,0,0,0,1.48-.5,1.36,1.36,0,0,0,.54-1Zm9.2-15.35a3.24,3.24,0,0,0-2.09-.74,3.19,3.19,0,0,0-2.08.74,2.21,2.21,0,0,0-.81,1.67,2.24,2.24,0,0,0,.81,1.67,3.19,3.19,0,0,0,2.08.74,3.24,3.24,0,0,0,2.09-.74,2.26,2.26,0,0,0,.8-1.67,2.23,2.23,0,0,0-.8-1.67Z" transform="translate(0.07 -0.32)"/><path class="cls-5" d="M62.14,108.9A4.67,4.67,0,0,1,65.22,110a3.64,3.64,0,0,1,0,5.63,4.81,4.81,0,0,1-6.17,0,3.64,3.64,0,0,1,0-5.63,4.68,4.68,0,0,1,3.09-1.12ZM55,126.51a.76.76,0,0,1,.76-.76.77.77,0,0,1,.77.76,2.85,2.85,0,0,1-1.1,2.22,3.95,3.95,0,0,1-4.92,0,2.87,2.87,0,0,1-1.09-2.22,5,5,0,0,1,1.91-3.84,7.18,7.18,0,0,1,8.86,0,5,5,0,0,1,1.91,3.84A7.15,7.15,0,0,1,59.41,132a10.42,10.42,0,0,1-12.81,0,7.14,7.14,0,0,1-2.72-5.49,9.24,9.24,0,0,1,3.54-7.11,13.65,13.65,0,0,1,16.75,0,9.27,9.27,0,0,1,3.54,7.11.77.77,0,1,1-1.53,0,7.73,7.73,0,0,0-3-5.93,12.09,12.09,0,0,0-14.8,0,7.75,7.75,0,0,0-3,5.93,5.58,5.58,0,0,0,2.17,4.31,8.88,8.88,0,0,0,10.85,0,5.58,5.58,0,0,0,2.17-4.31,3.5,3.5,0,0,0-1.35-2.67,5.69,5.69,0,0,0-6.91,0A3.48,3.48,0,0,0,51,126.51a1.38,1.38,0,0,0,.54,1,2.46,2.46,0,0,0,3,0,1.38,1.38,0,0,0,.54-1Zm9.19-15.34a3.27,3.27,0,0,0-4.17,0,2.13,2.13,0,0,0,0,3.33,3.31,3.31,0,0,0,4.17,0,2.13,2.13,0,0,0,0-3.33Z" transform="translate(0.07 -0.32)"/><path class="cls-5" d="M73,11.55a4.68,4.68,0,0,1,3.08,1.12,3.64,3.64,0,0,1,0,5.64,4.83,4.83,0,0,1-6.16,0,3.64,3.64,0,0,1,0-5.64A4.68,4.68,0,0,1,73,11.55Zm7.11,17.62a1.36,1.36,0,0,0,.54,1,2.46,2.46,0,0,0,3,0,1.36,1.36,0,0,0,.54-1,3.5,3.5,0,0,0-1.36-2.68,5.69,5.69,0,0,0-6.91,0,3.52,3.52,0,0,0-1.35,2.68,5.6,5.6,0,0,0,2.17,4.31,8.92,8.92,0,0,0,10.85,0,5.63,5.63,0,0,0,2.17-4.31,7.73,7.73,0,0,0-3-5.94,12.07,12.07,0,0,0-14.79,0,7.73,7.73,0,0,0-3,5.94.77.77,0,0,1-1.53,0A9.25,9.25,0,0,1,71,22.06a13.62,13.62,0,0,1,16.75,0,9.22,9.22,0,0,1,3.54,7.11,7.11,7.11,0,0,1-2.73,5.48,10.41,10.41,0,0,1-12.8,0A7.13,7.13,0,0,1,73,29.17,5,5,0,0,1,75,25.32a7.18,7.18,0,0,1,8.86,0,5,5,0,0,1,1.9,3.85,2.9,2.9,0,0,1-1.09,2.22,4,4,0,0,1-4.91,0,2.88,2.88,0,0,1-1.1-2.22.77.77,0,1,1,1.53,0ZM71,13.82a2.2,2.2,0,0,0-.81,1.66A2.24,2.24,0,0,0,71,17.16,3.19,3.19,0,0,0,73,17.9a3.24,3.24,0,0,0,2.09-.74,2.27,2.27,0,0,0,.8-1.68,2.22,2.22,0,0,0-.8-1.66A3.18,3.18,0,0,0,73,13.08a3.14,3.14,0,0,0-2.08.74Z" transform="translate(0.07 -0.32)"/><path class="cls-5" d="M111.85,87.9A4.67,4.67,0,0,1,114.93,89a3.64,3.64,0,0,1,0,5.63,4.79,4.79,0,0,1-6.16,0,3.63,3.63,0,0,1,0-5.63,4.63,4.63,0,0,1,3.08-1.12ZM119,105.51a1.38,1.38,0,0,0,.54,1,2.3,2.3,0,0,0,1.48.5,2.35,2.35,0,0,0,1.49-.5,1.38,1.38,0,0,0,.54-1,3.48,3.48,0,0,0-1.36-2.67,5.69,5.69,0,0,0-6.91,0,3.48,3.48,0,0,0-1.36,2.67,5.61,5.61,0,0,0,2.17,4.31,8.89,8.89,0,0,0,10.86,0,5.61,5.61,0,0,0,2.17-4.31,7.73,7.73,0,0,0-3-5.93,12.09,12.09,0,0,0-14.8,0,7.76,7.76,0,0,0-3,5.93.76.76,0,1,1-1.52,0,9.24,9.24,0,0,1,3.54-7.11,13.64,13.64,0,0,1,16.74,0,9.25,9.25,0,0,1,3.55,7.11,7.15,7.15,0,0,1-2.73,5.49,10.41,10.41,0,0,1-12.8,0,7.16,7.16,0,0,1-2.73-5.49,5,5,0,0,1,1.91-3.84,7.18,7.18,0,0,1,8.86,0,5,5,0,0,1,1.91,3.84,2.87,2.87,0,0,1-1.09,2.22,3.95,3.95,0,0,1-4.92,0,2.87,2.87,0,0,1-1.09-2.22.77.77,0,0,1,1.53,0Zm-9.2-15.34a2.13,2.13,0,0,0,0,3.33,3.18,3.18,0,0,0,2.09.74,3.14,3.14,0,0,0,2.08-.74,2.12,2.12,0,0,0,0-3.33,3.14,3.14,0,0,0-2.08-.75,3.19,3.19,0,0,0-2.09.75Z" transform="translate(0.07 -0.32)"/><path class="cls-5" d="M120.84,60a4.72,4.72,0,0,1,3.09,1.11,3.65,3.65,0,0,1,0,5.64,4.84,4.84,0,0,1-6.17,0,3.65,3.65,0,0,1,0-5.64A4.72,4.72,0,0,1,120.84,60ZM128,77.57a1.36,1.36,0,0,0,.54,1,2.46,2.46,0,0,0,3,0,1.36,1.36,0,0,0,.54-1,3.5,3.5,0,0,0-1.36-2.68,5.69,5.69,0,0,0-6.91,0,3.52,3.52,0,0,0-1.35,2.68,5.6,5.6,0,0,0,2.17,4.31,8.88,8.88,0,0,0,10.85,0,5.63,5.63,0,0,0,2.17-4.31,7.73,7.73,0,0,0-3-5.94,12.11,12.11,0,0,0-14.79,0,7.73,7.73,0,0,0-3,5.94.77.77,0,1,1-1.53,0,9.25,9.25,0,0,1,3.54-7.11,13.62,13.62,0,0,1,16.75,0,9.22,9.22,0,0,1,3.54,7.11,7.12,7.12,0,0,1-2.72,5.48,10.39,10.39,0,0,1-12.81,0,7.12,7.12,0,0,1-2.72-5.48,5,5,0,0,1,1.91-3.85,7.18,7.18,0,0,1,8.86,0,5,5,0,0,1,1.9,3.85,2.85,2.85,0,0,1-1.09,2.22,4,4,0,0,1-4.91,0,2.86,2.86,0,0,1-1.1-2.22.77.77,0,0,1,.77-.76.76.76,0,0,1,.76.76Zm-9.19-15.35a2.2,2.2,0,0,0-.8,1.67,2.23,2.23,0,0,0,.8,1.67,3.19,3.19,0,0,0,2.08.74,3.24,3.24,0,0,0,2.09-.74,2.23,2.23,0,0,0,.8-1.67,2.2,2.2,0,0,0-.8-1.67,3.24,3.24,0,0,0-2.09-.74,3.19,3.19,0,0,0-2.08.74Z" transform="translate(0.07 -0.32)"/><path class="cls-5" d="M110.19,26.19a4.72,4.72,0,0,1,3.08,1.12,3.64,3.64,0,0,1,0,5.63,4.8,4.8,0,0,1-6.16,0,3.63,3.63,0,0,1,0-5.63,4.68,4.68,0,0,1,3.08-1.12Zm7.11,17.62a1.35,1.35,0,0,0,.54,1,2.44,2.44,0,0,0,3,0,1.35,1.35,0,0,0,.54-1A3.52,3.52,0,0,0,120,41.13a5.69,5.69,0,0,0-6.91,0,3.5,3.5,0,0,0-1.36,2.68,5.63,5.63,0,0,0,2.17,4.31,8.93,8.93,0,0,0,10.86,0,5.63,5.63,0,0,0,2.17-4.31,7.73,7.73,0,0,0-3-5.94,12.09,12.09,0,0,0-14.8,0,7.73,7.73,0,0,0-3,5.94.76.76,0,0,1-.76.76.77.77,0,0,1-.77-.76,9.27,9.27,0,0,1,3.55-7.12,13.64,13.64,0,0,1,16.74,0,9.27,9.27,0,0,1,3.55,7.12,7.14,7.14,0,0,1-2.73,5.48,10.41,10.41,0,0,1-12.8,0,7.14,7.14,0,0,1-2.73-5.48A5,5,0,0,1,112.1,40,7.18,7.18,0,0,1,121,40a5,5,0,0,1,1.91,3.85A2.9,2.9,0,0,1,121.78,46a4,4,0,0,1-4.92,0,2.9,2.9,0,0,1-1.09-2.22.77.77,0,0,1,.76-.77.78.78,0,0,1,.77.77Zm-9.2-15.35a2.13,2.13,0,0,0,0,3.33,3.19,3.19,0,0,0,2.09.75,3.14,3.14,0,0,0,2.08-.75,2.12,2.12,0,0,0,0-3.33,3.14,3.14,0,0,0-2.08-.74,3.18,3.18,0,0,0-2.09.74Z" transform="translate(0.07 -0.32)"/><path class="cls-5" d="M97.72,112.31a4.72,4.72,0,0,1,3.08,1.12,3.65,3.65,0,0,1,0,5.64,4.84,4.84,0,0,1-6.17,0,3.65,3.65,0,0,1,0-5.64,4.73,4.73,0,0,1,3.09-1.12Zm-7.11,17.62a.76.76,0,0,1,.76-.76.77.77,0,0,1,.77.76,2.86,2.86,0,0,1-1.1,2.22,4,4,0,0,1-4.91,0A2.85,2.85,0,0,1,85,129.93a5,5,0,0,1,1.9-3.85,7.18,7.18,0,0,1,8.86,0,5,5,0,0,1,1.91,3.85A7.12,7.12,0,0,1,95,135.41a10.39,10.39,0,0,1-12.81,0,7.12,7.12,0,0,1-2.72-5.48A9.22,9.22,0,0,1,83,122.82a13.62,13.62,0,0,1,16.75,0,9.25,9.25,0,0,1,3.54,7.11.77.77,0,1,1-1.53,0,7.73,7.73,0,0,0-3-5.94A12.11,12.11,0,0,0,84,124a7.73,7.73,0,0,0-3,5.94,5.63,5.63,0,0,0,2.17,4.31,8.88,8.88,0,0,0,10.85,0,5.6,5.6,0,0,0,2.17-4.31,3.52,3.52,0,0,0-1.35-2.68,5.69,5.69,0,0,0-6.91,0,3.5,3.5,0,0,0-1.36,2.68,1.36,1.36,0,0,0,.54,1,2.46,2.46,0,0,0,3,0,1.36,1.36,0,0,0,.54-1Zm9.19-15.35a3.19,3.19,0,0,0-2.08-.74,3.24,3.24,0,0,0-2.09.74,2.2,2.2,0,0,0-.8,1.67,2.23,2.23,0,0,0,.8,1.67,3.24,3.24,0,0,0,2.09.74,3.19,3.19,0,0,0,2.08-.74,2.23,2.23,0,0,0,.8-1.67,2.2,2.2,0,0,0-.8-1.67Z" transform="translate(0.07 -0.32)"/><path class="cls-5" d="M45.39,20.19a4.72,4.72,0,0,1,3.08,1.12,3.64,3.64,0,0,1,0,5.63,4.81,4.81,0,0,1-6.17,0,3.64,3.64,0,0,1,0-5.63,4.73,4.73,0,0,1,3.09-1.12ZM38.28,37.81A.77.77,0,0,1,39,37a.78.78,0,0,1,.77.77A2.88,2.88,0,0,1,38.71,40a4,4,0,0,1-4.91,0,2.88,2.88,0,0,1-1.1-2.22A5,5,0,0,1,34.61,34a7.18,7.18,0,0,1,8.86,0,5,5,0,0,1,1.91,3.85,7.13,7.13,0,0,1-2.72,5.48,10.42,10.42,0,0,1-12.81,0,7.13,7.13,0,0,1-2.72-5.48,9.26,9.26,0,0,1,3.54-7.12,13.65,13.65,0,0,1,16.75,0A9.29,9.29,0,0,1,51,37.81a.77.77,0,0,1-1.53,0,7.73,7.73,0,0,0-3-5.94,12.09,12.09,0,0,0-14.8,0,7.75,7.75,0,0,0-3,5.94,5.63,5.63,0,0,0,2.17,4.31,8.92,8.92,0,0,0,10.85,0,5.6,5.6,0,0,0,2.17-4.31,3.52,3.52,0,0,0-1.35-2.68,5.69,5.69,0,0,0-6.91,0,3.5,3.5,0,0,0-1.36,2.68,1.38,1.38,0,0,0,.54,1,2.46,2.46,0,0,0,3,0,1.38,1.38,0,0,0,.54-1Zm9.19-15.35a3.14,3.14,0,0,0-2.08-.74,3.18,3.18,0,0,0-2.09.74,2.13,2.13,0,0,0,0,3.33,3.19,3.19,0,0,0,2.09.75,3.14,3.14,0,0,0,2.08-.75,2.13,2.13,0,0,0,0-3.33Z" transform="translate(0.07 -0.32)"/><path class="cls-5" d="M29.49,54.93a4.68,4.68,0,0,1,3.07,1.12,3.64,3.64,0,0,1,0,5.64,4.67,4.67,0,0,1-3.07,1.11,4.72,4.72,0,0,1-3.09-1.11,3.65,3.65,0,0,1,0-5.64,4.73,4.73,0,0,1,3.09-1.12ZM22.37,72.55a.77.77,0,0,1,.77-.76.76.76,0,0,1,.76.76,2.85,2.85,0,0,1-1.09,2.22,4,4,0,0,1-4.92,0,2.89,2.89,0,0,1-1.09-2.22,5,5,0,0,1,1.91-3.85,7.18,7.18,0,0,1,8.86,0,5,5,0,0,1,1.91,3.85A7.12,7.12,0,0,1,26.76,78a10.1,10.1,0,0,1-6.41,2.2A10.07,10.07,0,0,1,14,78a7.12,7.12,0,0,1-2.72-5.48,9.22,9.22,0,0,1,3.54-7.11,13.14,13.14,0,0,1,8.37-2.88,13.14,13.14,0,0,1,8.37,2.88,9.23,9.23,0,0,1,3.55,7.11.77.77,0,0,1-.77.76.76.76,0,0,1-.76-.76,7.73,7.73,0,0,0-3-5.94,11.63,11.63,0,0,0-7.4-2.53,11.63,11.63,0,0,0-7.4,2.53,7.75,7.75,0,0,0-3,5.94,5.6,5.6,0,0,0,2.17,4.31,8.52,8.52,0,0,0,5.42,1.84,8.53,8.53,0,0,0,5.43-1.84A5.63,5.63,0,0,0,28,72.55a3.5,3.5,0,0,0-1.36-2.68,5.69,5.69,0,0,0-6.91,0,3.52,3.52,0,0,0-1.35,2.68,1.33,1.33,0,0,0,.54,1,2.32,2.32,0,0,0,1.48.5,2.28,2.28,0,0,0,1.48-.5,1.33,1.33,0,0,0,.54-1Zm9.2-15.35a3.31,3.31,0,0,0-4.17,0,2.21,2.21,0,0,0-.81,1.67,2.24,2.24,0,0,0,.81,1.67,3.31,3.31,0,0,0,4.17,0,2.26,2.26,0,0,0,.8-1.67,2.23,2.23,0,0,0-.8-1.67Z" transform="translate(0.07 -0.32)"/></g><g class="cls-6"><path class="cls-7" d="M74.12,34C57.59,34,46.05,45.15,46.05,61.15c0,10,4.56,15.69,9.4,21.69,4.52,5.6,9.19,11.41,9.19,20.57,0,8.49.1,14.71,1.47,17.85h6.81l.19-11.37a1,1,0,0,1,.42-.8L76.42,107l-6.91-5a1,1,0,0,1,0-1.63l6.91-5-6.91-5a1,1,0,0,1,0-1.64l8-5.79a1,1,0,0,1,1.18,1.64l-6.91,5,6.91,5a1,1,0,0,1,.42.81,1,1,0,0,1-.42.82l-6.91,5,6.91,5a1,1,0,0,1,.42.82,1,1,0,0,1-.42.82l-3.61,2.6-.19,10.84h7.19c1.38-3.14,1.48-9.36,1.48-17.85,0-9.16,4.67-15,9.19-20.57,4.83-6,9.4-11.68,9.4-21.69C102.19,45.15,90.64,34,74.12,34Z" transform="translate(0.07 -0.32)"/><polygon class="cls-7" points="66.61 128.03 66.61 130.2 74.49 127.08 69.04 127.08 66.61 128.03"/><polygon class="cls-7" points="66.61 132.39 66.61 134.55 81.74 128.55 81.74 127.08 80.01 127.08 66.61 132.39"/><polygon class="cls-7" points="66.61 138.9 81.74 132.9 81.74 130.74 66.61 136.74 66.61 138.9"/><polygon class="cls-7" points="66.61 143.24 81.74 137.25 81.74 135.08 66.61 141.08 66.61 143.24"/><polygon class="cls-7" points="76.56 143.65 81.74 141.59 81.74 139.43 71.1 143.65 76.56 143.65"/><g class="cls-8"><path class="cls-9" d="M112.05,30.16c-3.67-4.45-10.8-9.74-23.93-9.74-8.87,0-16.65,3.52-21.72,9.73-.49.6-1,1.22-1.41,1.87-4.57,6.79-3.31,16-3.31,16a5.29,5.29,0,0,0,7.57,4.4l2.38-1a10.81,10.81,0,0,0,1.44-.73c2.87-1.71,4.78-4.7,4.41-7.17l.86-1.27.61-.91c1.79-2.65,5.13-4.17,9.17-4.17,8.78,0,13,3.37,13,10.31,0,3.87-2.33,8-8.62,15a58.49,58.49,0,0,0-8.91,12.45,37,37,0,0,0-3.83,16.1l0,1.1c0,1.21,3.18,2.19,7.1,2.19h2.57a22.39,22.39,0,0,0,3.65-.28c2.09-.34,3.5-1,3.51-1.66l0-1c.15-7.14,2.75-11.24,8.51-17.75,6.22-7,12.85-15.41,12.85-26.2A27.56,27.56,0,0,0,112.05,30.16Z" transform="translate(0.07 -0.32)"/><path class="cls-9" d="M96.58,113.25c0-3.1-3.24-5.63-7.17-5.63H86.85c-3.24,0-6,1.79-6.83,4.22a4.67,4.67,0,0,0-.27,1.62l0,2.54,0,2.3c0,2.23,3.23,4,7.15,4h2.57a10.91,10.91,0,0,0,3.54-.56c2.14-.72,3.58-2.07,3.57-3.61l0-2.33Z" transform="translate(0.07 -0.32)"/></g></g><circle class="cls-10" cx="74.95" cy="75.32" r="66.22" transform="translate(-31.24 74.74) rotate(-45)"/></g></g></svg>