<svg xmlns="http://www.w3.org/2000/svg" xmlns:xlink="http://www.w3.org/1999/xlink" viewBox="0 0 149.85 151.12"><defs><style>.cls-1,.cls-7{fill:none;}.cls-2{isolation:isolate;}.cls-3{fill:#e27e7e;}.cls-4{clip-path:url(#clip-path);}.cls-5{fill:#ff8787;opacity:0.25;mix-blend-mode:multiply;}.cls-6{fill:#fff;fill-rule:evenodd;}.cls-7{stroke:#fff;stroke-miterlimit:10;stroke-width:0.58px;}</style><clipPath id="clip-path" transform="translate(0 1.12)"><circle class="cls-1" cx="75" cy="75" r="66" transform="translate(-31.07 75) rotate(-45)"/></clipPath></defs><g class="cls-2"><g id="Ic_capcitaciones" data-name="Ic capcitaciones"><circle class="cls-3" cx="74.93" cy="75.07" r="74.93" transform="translate(-0.26 151) rotate(-89.91)"/><g class="cls-4"><path class="cls-5" d="M36.57,82.63a4.68,4.68,0,0,1,3.08,1.12,3.64,3.64,0,0,1,0,5.64,4.83,4.83,0,0,1-6.16,0,3.64,3.64,0,0,1,0-5.64,4.68,4.68,0,0,1,3.08-1.12Zm-7.11,17.62a.77.77,0,1,1,1.53,0,2.88,2.88,0,0,1-1.1,2.22,4,4,0,0,1-4.91,0,2.9,2.9,0,0,1-1.09-2.22A5,5,0,0,1,25.8,96.4a7.16,7.16,0,0,1,8.85,0,5,5,0,0,1,1.92,3.85,7.14,7.14,0,0,1-2.73,5.48,10.41,10.41,0,0,1-12.8,0,7.14,7.14,0,0,1-2.73-5.48,9.22,9.22,0,0,1,3.54-7.11,13.17,13.17,0,0,1,8.38-2.88,13.14,13.14,0,0,1,8.37,2.88,9.25,9.25,0,0,1,3.54,7.11.77.77,0,0,1-1.53,0,7.75,7.75,0,0,0-3-5.94,11.65,11.65,0,0,0-7.4-2.53,11.61,11.61,0,0,0-7.4,2.53,7.73,7.73,0,0,0-3,5.94A5.63,5.63,0,0,0,22,104.56a8.93,8.93,0,0,0,10.86,0A5.63,5.63,0,0,0,35,100.25a3.5,3.5,0,0,0-1.36-2.68,5.69,5.69,0,0,0-6.91,0,3.5,3.5,0,0,0-1.36,2.68,1.36,1.36,0,0,0,.54,1,2.35,2.35,0,0,0,1.49.5,2.3,2.3,0,0,0,1.48-.5,1.36,1.36,0,0,0,.54-1ZM38.65,84.9a3.29,3.29,0,0,0-4.16,0,2.2,2.2,0,0,0-.81,1.66,2.24,2.24,0,0,0,.81,1.68,3.29,3.29,0,0,0,4.16,0,2.24,2.24,0,0,0,.81-1.68,2.2,2.2,0,0,0-.81-1.66Z" transform="translate(0 1.12)"/><path class="cls-5" d="M62.27,107.58a4.67,4.67,0,0,1,3.07,1.11,3.64,3.64,0,0,1,0,5.64,4.68,4.68,0,0,1-3.07,1.12,4.73,4.73,0,0,1-3.09-1.12,3.65,3.65,0,0,1,0-5.64,4.72,4.72,0,0,1,3.09-1.11Zm-7.12,17.61a.77.77,0,0,1,.77-.76.76.76,0,0,1,.76.76,2.87,2.87,0,0,1-1.09,2.22,4,4,0,0,1-4.92,0,2.87,2.87,0,0,1-1.09-2.22,5,5,0,0,1,1.91-3.84,7.18,7.18,0,0,1,8.86,0,5,5,0,0,1,1.91,3.84,7.13,7.13,0,0,1-2.73,5.49,10.41,10.41,0,0,1-12.8,0A7.14,7.14,0,0,1,44,125.19a9.22,9.22,0,0,1,3.54-7.11,13.6,13.6,0,0,1,16.74,0,9.23,9.23,0,0,1,3.55,7.11.78.78,0,0,1-.77.77.77.77,0,0,1-.76-.77,7.7,7.7,0,0,0-3-5.93,12.09,12.09,0,0,0-14.8,0,7.73,7.73,0,0,0-3,5.93,5.59,5.59,0,0,0,2.18,4.31,8.88,8.88,0,0,0,10.85,0,5.61,5.61,0,0,0,2.17-4.31,3.48,3.48,0,0,0-1.36-2.67,5.69,5.69,0,0,0-6.91,0,3.5,3.5,0,0,0-1.35,2.67,1.37,1.37,0,0,0,.54,1,2.44,2.44,0,0,0,3,0,1.37,1.37,0,0,0,.54-1Zm9.2-15.35a3.31,3.31,0,0,0-4.17,0,2.13,2.13,0,0,0,0,3.34,3.31,3.31,0,0,0,4.17,0,2.14,2.14,0,0,0,0-3.34Z" transform="translate(0 1.12)"/><path class="cls-5" d="M73.16,10.23a4.67,4.67,0,0,1,3.08,1.12,3.64,3.64,0,0,1,0,5.63,4.8,4.8,0,0,1-6.16,0,3.63,3.63,0,0,1,0-5.63,4.63,4.63,0,0,1,3.08-1.12Zm7.11,17.61a1.38,1.38,0,0,0,.54,1.05,2.3,2.3,0,0,0,1.48.5,2.35,2.35,0,0,0,1.49-.5,1.38,1.38,0,0,0,.54-1.05A3.5,3.5,0,0,0,83,25.17a5.69,5.69,0,0,0-6.91,0,3.5,3.5,0,0,0-1.36,2.67,5.61,5.61,0,0,0,2.17,4.31,8.89,8.89,0,0,0,10.86,0,5.61,5.61,0,0,0,2.17-4.31,7.73,7.73,0,0,0-3-5.93,12.09,12.09,0,0,0-14.8,0,7.75,7.75,0,0,0-3,5.93.77.77,0,0,1-.77.77.76.76,0,0,1-.76-.77,9.24,9.24,0,0,1,3.54-7.11,13.65,13.65,0,0,1,16.75,0,9.24,9.24,0,0,1,3.54,7.11,7.15,7.15,0,0,1-2.73,5.49,10.41,10.41,0,0,1-12.8,0,7.16,7.16,0,0,1-2.73-5.49A5,5,0,0,1,75.08,24a7.16,7.16,0,0,1,8.85,0,5,5,0,0,1,1.91,3.84,2.87,2.87,0,0,1-1.09,2.22,3.93,3.93,0,0,1-4.91,0,2.85,2.85,0,0,1-1.1-2.22.77.77,0,0,1,1.53,0ZM71.07,12.5a2.13,2.13,0,0,0,0,3.33,3.18,3.18,0,0,0,2.09.74,3.14,3.14,0,0,0,2.08-.74,2.12,2.12,0,0,0,0-3.33,3.14,3.14,0,0,0-2.08-.75,3.19,3.19,0,0,0-2.09.75Z" transform="translate(0 1.12)"/><path class="cls-5" d="M112,86.58a4.72,4.72,0,0,1,3.08,1.11,3.65,3.65,0,0,1,0,5.64,4.8,4.8,0,0,1-6.16,0,3.64,3.64,0,0,1,0-5.64A4.68,4.68,0,0,1,112,86.58Zm7.11,17.61a1.37,1.37,0,0,0,.54,1,2.44,2.44,0,0,0,3,0,1.37,1.37,0,0,0,.54-1,3.5,3.5,0,0,0-1.35-2.67,5.69,5.69,0,0,0-6.91,0,3.48,3.48,0,0,0-1.36,2.67,5.61,5.61,0,0,0,2.17,4.31,8.89,8.89,0,0,0,10.86,0,5.61,5.61,0,0,0,2.17-4.31,7.7,7.7,0,0,0-3-5.93,12.09,12.09,0,0,0-14.8,0,7.7,7.7,0,0,0-3,5.93.77.77,0,0,1-.76.77.78.78,0,0,1-.77-.77A9.23,9.23,0,0,1,110,97.08a13.6,13.6,0,0,1,16.74,0,9.22,9.22,0,0,1,3.54,7.11,7.14,7.14,0,0,1-2.72,5.49,10.41,10.41,0,0,1-12.8,0,7.16,7.16,0,0,1-2.73-5.49,5,5,0,0,1,1.91-3.84,7.18,7.18,0,0,1,8.86,0,5,5,0,0,1,1.91,3.84,2.87,2.87,0,0,1-1.09,2.22,4,4,0,0,1-4.92,0,2.87,2.87,0,0,1-1.09-2.22.76.76,0,0,1,.76-.76.77.77,0,0,1,.77.76Zm-9.2-15.35a2.14,2.14,0,0,0,0,3.34,3.31,3.31,0,0,0,4.17,0,2.13,2.13,0,0,0,0-3.34,3.31,3.31,0,0,0-4.17,0Z" transform="translate(0 1.12)"/><path class="cls-5" d="M121,58.63a4.68,4.68,0,0,1,3.08,1.12,3.64,3.64,0,0,1,0,5.64,4.83,4.83,0,0,1-6.16,0,3.64,3.64,0,0,1,0-5.64A4.68,4.68,0,0,1,121,58.63Zm7.11,17.62a1.36,1.36,0,0,0,.54,1,2.3,2.3,0,0,0,1.48.5,2.35,2.35,0,0,0,1.49-.5,1.36,1.36,0,0,0,.54-1,3.5,3.5,0,0,0-1.36-2.68,5.69,5.69,0,0,0-6.91,0,3.5,3.5,0,0,0-1.36,2.68,5.63,5.63,0,0,0,2.17,4.31,8.93,8.93,0,0,0,10.86,0,5.63,5.63,0,0,0,2.17-4.31,7.73,7.73,0,0,0-3-5.94,12.09,12.09,0,0,0-14.8,0,7.75,7.75,0,0,0-3,5.94.77.77,0,0,1-.77.76.76.76,0,0,1-.76-.76,9.25,9.25,0,0,1,3.54-7.11,13.62,13.62,0,0,1,16.75,0,9.22,9.22,0,0,1,3.54,7.11,7.14,7.14,0,0,1-2.73,5.48,10.41,10.41,0,0,1-12.8,0A7.14,7.14,0,0,1,121,76.25a5,5,0,0,1,1.92-3.85,7.16,7.16,0,0,1,8.85,0,5,5,0,0,1,1.91,3.85,2.9,2.9,0,0,1-1.09,2.22,4,4,0,0,1-4.91,0,2.88,2.88,0,0,1-1.1-2.22.77.77,0,1,1,1.53,0Zm-9.2-15.35a2.22,2.22,0,0,0-.8,1.66,2.27,2.27,0,0,0,.8,1.68A3.24,3.24,0,0,0,121,65a3.19,3.19,0,0,0,2.08-.74,2.24,2.24,0,0,0,.81-1.68,2.2,2.2,0,0,0-.81-1.66,3.19,3.19,0,0,0-2.08-.74,3.24,3.24,0,0,0-2.09.74Z" transform="translate(0 1.12)"/><path class="cls-5" d="M110.31,24.87A4.72,4.72,0,0,1,113.4,26a3.65,3.65,0,0,1,0,5.64,4.73,4.73,0,0,1-3.09,1.12,4.68,4.68,0,0,1-3.07-1.12,3.64,3.64,0,0,1,0-5.64,4.67,4.67,0,0,1,3.07-1.11Zm7.11,17.61a1.38,1.38,0,0,0,.54,1.05,2.46,2.46,0,0,0,3,0,1.35,1.35,0,0,0,.54-1.05,3.48,3.48,0,0,0-1.36-2.67,5.67,5.67,0,0,0-6.9,0,3.48,3.48,0,0,0-1.36,2.67A5.61,5.61,0,0,0,114,46.79a8.88,8.88,0,0,0,10.85,0A5.58,5.58,0,0,0,127,42.48a7.75,7.75,0,0,0-3-5.93,12.09,12.09,0,0,0-14.8,0,7.73,7.73,0,0,0-3,5.93.77.77,0,1,1-1.53,0,9.27,9.27,0,0,1,3.54-7.11,13.65,13.65,0,0,1,16.75,0,9.24,9.24,0,0,1,3.54,7.11A7.14,7.14,0,0,1,125.85,48,10.42,10.42,0,0,1,113,48a7.15,7.15,0,0,1-2.72-5.49,5,5,0,0,1,1.91-3.84,7.18,7.18,0,0,1,8.86,0A5,5,0,0,1,123,42.48a2.87,2.87,0,0,1-1.09,2.22,3.95,3.95,0,0,1-4.92,0,2.84,2.84,0,0,1-1.09-2.22.76.76,0,0,1,1.52,0Zm-9.19-15.34a2.16,2.16,0,0,0-.8,1.66,2.2,2.2,0,0,0,.8,1.67,3.31,3.31,0,0,0,4.17,0,2.21,2.21,0,0,0,.81-1.67,2.17,2.17,0,0,0-.81-1.66,3.27,3.27,0,0,0-4.17,0Z" transform="translate(0 1.12)"/><path class="cls-5" d="M97.85,111a4.68,4.68,0,0,1,3.07,1.12,3.69,3.69,0,0,1,1.34,2.81,3.74,3.74,0,0,1-1.34,2.83,4.67,4.67,0,0,1-3.07,1.11,4.72,4.72,0,0,1-3.09-1.11,3.76,3.76,0,0,1-1.33-2.83,3.72,3.72,0,0,1,1.33-2.81A4.73,4.73,0,0,1,97.85,111Zm-7.11,17.62a.76.76,0,1,1,1.52,0,2.87,2.87,0,0,1-1.09,2.22,4,4,0,0,1-4.92,0,2.9,2.9,0,0,1-1.09-2.22,5,5,0,0,1,1.91-3.85,7.18,7.18,0,0,1,8.86,0,5,5,0,0,1,1.91,3.85,7.13,7.13,0,0,1-2.72,5.48,10.42,10.42,0,0,1-12.81,0,7.13,7.13,0,0,1-2.72-5.48,9.22,9.22,0,0,1,3.54-7.11,13.6,13.6,0,0,1,16.74,0,9.23,9.23,0,0,1,3.55,7.11.77.77,0,0,1-.77.76.76.76,0,0,1-.76-.76,7.73,7.73,0,0,0-3-5.94,12.09,12.09,0,0,0-14.8,0,7.75,7.75,0,0,0-3,5.94,5.6,5.6,0,0,0,2.17,4.31,8.92,8.92,0,0,0,10.85,0,5.63,5.63,0,0,0,2.17-4.31A3.5,3.5,0,0,0,95,125.93a5.69,5.69,0,0,0-6.91,0,3.52,3.52,0,0,0-1.35,2.68,1.33,1.33,0,0,0,.54,1,2.46,2.46,0,0,0,3,0,1.36,1.36,0,0,0,.54-1Zm9.19-15.35a3.31,3.31,0,0,0-4.17,0,2.12,2.12,0,0,0,0,3.33,3.27,3.27,0,0,0,4.17,0,2.13,2.13,0,0,0,0-3.33Z" transform="translate(0 1.12)"/><path class="cls-5" d="M45.52,18.87A4.67,4.67,0,0,1,48.59,20a3.64,3.64,0,0,1,0,5.64,4.68,4.68,0,0,1-3.07,1.12,4.73,4.73,0,0,1-3.09-1.12,3.65,3.65,0,0,1,0-5.64,4.72,4.72,0,0,1,3.09-1.11ZM38.4,36.48a.77.77,0,0,1,.77-.76.76.76,0,0,1,.76.76,2.87,2.87,0,0,1-1.09,2.22,3.95,3.95,0,0,1-4.92,0,2.87,2.87,0,0,1-1.09-2.22,5,5,0,0,1,1.91-3.84,7.18,7.18,0,0,1,8.86,0,5,5,0,0,1,1.91,3.84A7.13,7.13,0,0,1,42.78,42,10.41,10.41,0,0,1,30,42a7.14,7.14,0,0,1-2.72-5.49,9.24,9.24,0,0,1,3.54-7.11,13.64,13.64,0,0,1,16.74,0,9.25,9.25,0,0,1,3.55,7.11.77.77,0,0,1-.77.77.76.76,0,0,1-.76-.77,7.73,7.73,0,0,0-3-5.93,12.09,12.09,0,0,0-14.8,0,7.75,7.75,0,0,0-3,5.93A5.58,5.58,0,0,0,31,40.79a8.88,8.88,0,0,0,10.85,0A5.61,5.61,0,0,0,44,36.48a3.48,3.48,0,0,0-1.36-2.67,5.69,5.69,0,0,0-6.91,0,3.5,3.5,0,0,0-1.35,2.67,1.35,1.35,0,0,0,.54,1.05,2.32,2.32,0,0,0,1.48.5,2.28,2.28,0,0,0,1.48-.5,1.35,1.35,0,0,0,.54-1.05Zm9.2-15.34a3.27,3.27,0,0,0-4.17,0,2.17,2.17,0,0,0-.81,1.66,2.21,2.21,0,0,0,.81,1.67,3.31,3.31,0,0,0,4.17,0,2.23,2.23,0,0,0,.8-1.67,2.19,2.19,0,0,0-.8-1.66Z" transform="translate(0 1.12)"/><path class="cls-5" d="M29.61,53.61a4.68,4.68,0,0,1,3.08,1.12,3.63,3.63,0,0,1,0,5.63,4.79,4.79,0,0,1-6.16,0,3.64,3.64,0,0,1,0-5.63,4.72,4.72,0,0,1,3.08-1.12ZM22.5,71.23a.78.78,0,0,1,.77-.77.77.77,0,0,1,.76.77,2.9,2.9,0,0,1-1.09,2.22,4,4,0,0,1-4.92,0,2.9,2.9,0,0,1-1.09-2.22,5,5,0,0,1,1.91-3.85,7.18,7.18,0,0,1,8.86,0,5,5,0,0,1,1.91,3.85,7.14,7.14,0,0,1-2.73,5.48,10,10,0,0,1-6.4,2.2,10,10,0,0,1-6.4-2.2,7.14,7.14,0,0,1-2.73-5.48,9.27,9.27,0,0,1,3.55-7.12,13.19,13.19,0,0,1,8.37-2.87,13.19,13.19,0,0,1,8.37,2.87,9.27,9.27,0,0,1,3.55,7.12.77.77,0,0,1-.77.76.76.76,0,0,1-.76-.76,7.73,7.73,0,0,0-3-5.94,11.63,11.63,0,0,0-7.4-2.53,11.63,11.63,0,0,0-7.4,2.53,7.73,7.73,0,0,0-3,5.94,5.63,5.63,0,0,0,2.17,4.31,8.55,8.55,0,0,0,5.43,1.84,8.53,8.53,0,0,0,5.43-1.84,5.63,5.63,0,0,0,2.17-4.31,3.5,3.5,0,0,0-1.36-2.68,5.69,5.69,0,0,0-6.91,0,3.52,3.52,0,0,0-1.35,2.68,1.35,1.35,0,0,0,.54,1,2.44,2.44,0,0,0,3,0,1.35,1.35,0,0,0,.54-1Zm9.2-15.35a3.18,3.18,0,0,0-2.09-.74,3.14,3.14,0,0,0-2.08.74,2.12,2.12,0,0,0,0,3.33,3.14,3.14,0,0,0,2.08.75,3.19,3.19,0,0,0,2.09-.75,2.13,2.13,0,0,0,0-3.33Z" transform="translate(0 1.12)"/><path class="cls-6" d="M129.91,10.09,112.33,0c-3.54-2.05-7.17-1.1-9.24,2.47l-5.36,9.29H23.38C16,11.71,9.86,18.38,9.86,25.8v80.68A13.44,13.44,0,0,0,23.3,119.93h80.62c7.43,0,14.15-6.1,14.15-13.53V44.12l14.31-24.79C134.45,15.76,133.45,12.14,129.91,10.09Zm-18.6,96.31c0,3.72-3.68,6.81-7.39,6.81H23.3a6.72,6.72,0,0,1-6.72-6.72V25.8c0-3.72,3.09-7.32,6.8-7.32H93.83L86.2,31.69H36.91a3.39,3.39,0,0,0,0,6.77H82.29L74.48,52H36.91a3.39,3.39,0,0,0,0,6.77H70.58l-5,8.72,0,4.8H36.91a3.39,3.39,0,0,0,0,6.77H65.44l-.11,13.53H36.91a3.38,3.38,0,0,0,0,6.76H67.82a10.64,10.64,0,0,0,3.35-1L94.82,84.38l16.49-28.55Zm13.52-87.52-6.76,11.71L100.5,20.45l6.76-11.72c1.58-2.94,1.81-3,4.62-1.23l11.72,6.76C126.45,15.93,126.59,15.86,124.83,18.88Z" transform="translate(0 1.12)"/></g><circle class="cls-7" cx="74.94" cy="75.07" r="66.15" transform="translate(-31.13 76.1) rotate(-45)"/></g></g></svg>