<svg xmlns="http://www.w3.org/2000/svg" xmlns:xlink="http://www.w3.org/1999/xlink" viewBox="0 0 150 150"><defs><style>.cls-1,.cls-8{fill:none;}.cls-2{isolation:isolate;}.cls-3{fill:#f05628;}.cls-4{fill:#da3c3d;opacity:0.25;mix-blend-mode:multiply;}.cls-5{mix-blend-mode:screen;}.cls-6{clip-path:url(#clip-path);}.cls-7{fill:#fff;}.cls-8{stroke:#fff;stroke-miterlimit:10;stroke-width:0.59px;}</style><clipPath id="clip-path" transform="translate(0 0)"><circle class="cls-1" cx="74.93" cy="75.26" r="66.22" transform="translate(-1.07 1.08) rotate(-0.82)"/></clipPath></defs><g class="cls-2"><g id="Ic_videos" data-name="Ic videos"><circle class="cls-3" cx="75" cy="75" r="75"/><path class="cls-4" d="M36,84a4.68,4.68,0,0,1,3.08,1.11,3.64,3.64,0,0,1,0,5.64,4.8,4.8,0,0,1-6.16,0,3.64,3.64,0,0,1,0-5.64A4.68,4.68,0,0,1,36,84Zm-7.11,17.61a.77.77,0,0,1,1.53,0,2.85,2.85,0,0,1-1.1,2.22,3.93,3.93,0,0,1-4.91,0,2.87,2.87,0,0,1-1.09-2.22,5,5,0,0,1,1.9-3.84,7.18,7.18,0,0,1,8.86,0A5,5,0,0,1,36,101.58a7.16,7.16,0,0,1-2.73,5.49,10.41,10.41,0,0,1-12.8,0,7.15,7.15,0,0,1-2.73-5.49,9.24,9.24,0,0,1,3.54-7.11,13.17,13.17,0,0,1,8.38-2.88A13.14,13.14,0,0,1,38,94.47a9.27,9.27,0,0,1,3.54,7.11.77.77,0,1,1-1.53,0,7.73,7.73,0,0,0-3-5.93,11.6,11.6,0,0,0-7.39-2.53,11.61,11.61,0,0,0-7.4,2.53,7.73,7.73,0,0,0-3,5.93,5.61,5.61,0,0,0,2.17,4.31,8.89,8.89,0,0,0,10.86,0,5.61,5.61,0,0,0,2.17-4.31,3.48,3.48,0,0,0-1.36-2.67,5.69,5.69,0,0,0-6.91,0,3.48,3.48,0,0,0-1.36,2.67,1.4,1.4,0,0,0,.54,1,2.38,2.38,0,0,0,1.49.5,2.35,2.35,0,0,0,1.48-.5,1.4,1.4,0,0,0,.54-1Zm9.19-15.35a3.29,3.29,0,0,0-4.16,0,2.13,2.13,0,0,0,0,3.34,3.29,3.29,0,0,0,4.16,0,2.13,2.13,0,0,0,0-3.34Z" transform="translate(0 0)"/><path class="cls-4" d="M61.68,108.91A4.68,4.68,0,0,1,64.76,110a3.63,3.63,0,0,1,0,5.63,4.8,4.8,0,0,1-6.16,0,3.64,3.64,0,0,1,0-5.63,4.72,4.72,0,0,1,3.08-1.12Zm-7.11,17.62a.78.78,0,0,1,.77-.77.77.77,0,0,1,.76.77A2.9,2.9,0,0,1,55,128.75a4,4,0,0,1-4.92,0A2.9,2.9,0,0,1,49,126.53a5,5,0,0,1,1.91-3.85,7.18,7.18,0,0,1,8.86,0,5,5,0,0,1,1.91,3.85A7.11,7.11,0,0,1,59,132a10.41,10.41,0,0,1-12.8,0,7.13,7.13,0,0,1-2.72-5.48A9.26,9.26,0,0,1,47,119.41a13.64,13.64,0,0,1,16.74,0,9.27,9.27,0,0,1,3.55,7.12.77.77,0,0,1-.77.76.76.76,0,0,1-.76-.76,7.73,7.73,0,0,0-3-5.94,12.09,12.09,0,0,0-14.8,0,7.76,7.76,0,0,0-3,5.94,5.63,5.63,0,0,0,2.17,4.31,8.93,8.93,0,0,0,10.86,0,5.63,5.63,0,0,0,2.17-4.31,3.5,3.5,0,0,0-1.36-2.68,5.69,5.69,0,0,0-6.91,0,3.52,3.52,0,0,0-1.35,2.68,1.35,1.35,0,0,0,.54,1,2.44,2.44,0,0,0,3,0,1.35,1.35,0,0,0,.54-1Zm9.2-15.35a3.31,3.31,0,0,0-4.17,0,2.12,2.12,0,0,0,0,3.33,3.27,3.27,0,0,0,4.17,0,2.13,2.13,0,0,0,0-3.33Z" transform="translate(0 0)"/><path class="cls-4" d="M72.58,11.57a4.72,4.72,0,0,1,3.08,1.11,3.65,3.65,0,0,1,0,5.64,4.83,4.83,0,0,1-6.16,0,3.64,3.64,0,0,1,0-5.64,4.68,4.68,0,0,1,3.08-1.11Zm7.11,17.61a1.36,1.36,0,0,0,.54,1,2.3,2.3,0,0,0,1.48.5,2.35,2.35,0,0,0,1.49-.5,1.36,1.36,0,0,0,.54-1,3.5,3.5,0,0,0-1.36-2.68,5.69,5.69,0,0,0-6.91,0,3.5,3.5,0,0,0-1.36,2.68,5.63,5.63,0,0,0,2.17,4.31,8.89,8.89,0,0,0,10.86,0,5.63,5.63,0,0,0,2.17-4.31,7.73,7.73,0,0,0-3-5.94,12.13,12.13,0,0,0-14.8,0,7.75,7.75,0,0,0-3,5.94.78.78,0,0,1-.77.77.77.77,0,0,1-.76-.77,9.22,9.22,0,0,1,3.54-7.11,13.62,13.62,0,0,1,16.75,0,9.22,9.22,0,0,1,3.54,7.11,7.13,7.13,0,0,1-2.73,5.48,10.37,10.37,0,0,1-12.8,0,7.13,7.13,0,0,1-2.73-5.48,5,5,0,0,1,1.92-3.85,7.16,7.16,0,0,1,8.85,0,5,5,0,0,1,1.91,3.85,2.89,2.89,0,0,1-1.09,2.22,3.92,3.92,0,0,1-2.46.85,3.87,3.87,0,0,1-2.45-.85,2.86,2.86,0,0,1-1.1-2.22.77.77,0,0,1,1.53,0Zm-9.2-15.35a2.23,2.23,0,0,0-.8,1.67,2.26,2.26,0,0,0,.8,1.67,3.24,3.24,0,0,0,2.09.74,3.19,3.19,0,0,0,2.08-.74,2.24,2.24,0,0,0,.81-1.67,2.21,2.21,0,0,0-.81-1.67,3.19,3.19,0,0,0-2.08-.74,3.24,3.24,0,0,0-2.09.74Z" transform="translate(0 0)"/><path class="cls-4" d="M111.39,87.91A4.73,4.73,0,0,1,114.48,89a3.64,3.64,0,0,1,0,5.63,4.68,4.68,0,0,1-3.09,1.12,4.62,4.62,0,0,1-3.07-1.12,3.63,3.63,0,0,1,0-5.63,4.68,4.68,0,0,1,3.07-1.12Zm7.12,17.62a1.35,1.35,0,0,0,.54,1,2.44,2.44,0,0,0,3,0,1.35,1.35,0,0,0,.54-1,3.52,3.52,0,0,0-1.35-2.68,5.69,5.69,0,0,0-6.91,0,3.5,3.5,0,0,0-1.36,2.68,5.63,5.63,0,0,0,2.17,4.31,8.93,8.93,0,0,0,10.86,0,5.63,5.63,0,0,0,2.17-4.31,7.76,7.76,0,0,0-3-5.94,12.09,12.09,0,0,0-14.8,0,7.73,7.73,0,0,0-3,5.94.76.76,0,0,1-.76.76.77.77,0,0,1-.77-.76,9.27,9.27,0,0,1,3.55-7.12,13.64,13.64,0,0,1,16.74,0,9.26,9.26,0,0,1,3.54,7.12,7.13,7.13,0,0,1-2.72,5.48,10.41,10.41,0,0,1-12.8,0,7.11,7.11,0,0,1-2.73-5.48,5,5,0,0,1,1.91-3.85,7.18,7.18,0,0,1,8.86,0,5,5,0,0,1,1.91,3.85,2.9,2.9,0,0,1-1.09,2.22,4,4,0,0,1-4.92,0,2.9,2.9,0,0,1-1.09-2.22.77.77,0,0,1,.76-.77.78.78,0,0,1,.77.77Zm-9.2-15.35a2.13,2.13,0,0,0,0,3.33,3.27,3.27,0,0,0,4.17,0,2.12,2.12,0,0,0,0-3.33,3.31,3.31,0,0,0-4.17,0Z" transform="translate(0 0)"/><path class="cls-4" d="M120.39,60a4.68,4.68,0,0,1,3.08,1.11,3.64,3.64,0,0,1,0,5.64,4.8,4.8,0,0,1-6.16,0,3.64,3.64,0,0,1,0-5.64A4.68,4.68,0,0,1,120.39,60Zm7.11,17.61a1.4,1.4,0,0,0,.54,1,2.35,2.35,0,0,0,1.48.5,2.4,2.4,0,0,0,1.49-.5,1.4,1.4,0,0,0,.54-1,3.48,3.48,0,0,0-1.36-2.67,5.69,5.69,0,0,0-6.91,0,3.48,3.48,0,0,0-1.36,2.67,5.61,5.61,0,0,0,2.17,4.31,8.89,8.89,0,0,0,10.86,0,5.61,5.61,0,0,0,2.17-4.31,7.73,7.73,0,0,0-3-5.93,12.09,12.09,0,0,0-14.8,0,7.75,7.75,0,0,0-3,5.93.77.77,0,0,1-.77.77.76.76,0,0,1-.76-.77,9.27,9.27,0,0,1,3.54-7.11,13.62,13.62,0,0,1,16.75,0,9.24,9.24,0,0,1,3.54,7.11,7.15,7.15,0,0,1-2.73,5.49,10.41,10.41,0,0,1-12.8,0,7.16,7.16,0,0,1-2.73-5.49,5,5,0,0,1,1.92-3.84,7.16,7.16,0,0,1,8.85,0,4.94,4.94,0,0,1,1.91,3.84A2.87,2.87,0,0,1,132,79.8a3.93,3.93,0,0,1-4.91,0,2.85,2.85,0,0,1-1.1-2.22.77.77,0,0,1,1.53,0Zm-9.2-15.35a2.14,2.14,0,0,0,0,3.34,3.24,3.24,0,0,0,2.09.74,3.19,3.19,0,0,0,2.08-.74,2.13,2.13,0,0,0,0-3.34,3.19,3.19,0,0,0-2.08-.74,3.24,3.24,0,0,0-2.09.74Z" transform="translate(0 0)"/><path class="cls-4" d="M109.73,26.2a4.73,4.73,0,0,1,3.09,1.12,3.65,3.65,0,0,1,0,5.64,4.84,4.84,0,0,1-6.17,0,3.65,3.65,0,0,1,0-5.64,4.72,4.72,0,0,1,3.08-1.12Zm7.11,17.62a1.36,1.36,0,0,0,.54,1,2.46,2.46,0,0,0,3,0,1.33,1.33,0,0,0,.54-1,3.5,3.5,0,0,0-1.36-2.68,5.69,5.69,0,0,0-6.91,0,3.52,3.52,0,0,0-1.35,2.68,5.63,5.63,0,0,0,2.17,4.31,8.88,8.88,0,0,0,10.85,0,5.6,5.6,0,0,0,2.17-4.31,7.75,7.75,0,0,0-3-5.94,12.09,12.09,0,0,0-14.8,0,7.73,7.73,0,0,0-3,5.94.77.77,0,1,1-1.53,0,9.25,9.25,0,0,1,3.54-7.11,13.62,13.62,0,0,1,16.75,0A9.22,9.22,0,0,1,128,43.82a7.12,7.12,0,0,1-2.72,5.48,10.42,10.42,0,0,1-12.81,0,7.12,7.12,0,0,1-2.72-5.48A5,5,0,0,1,111.65,40a7.18,7.18,0,0,1,8.86,0,5,5,0,0,1,1.91,3.85A2.89,2.89,0,0,1,121.33,46a4,4,0,0,1-4.92,0,2.85,2.85,0,0,1-1.09-2.22.76.76,0,0,1,1.52,0Zm-9.19-15.35a2.2,2.2,0,0,0-.8,1.67,2.23,2.23,0,0,0,.8,1.67,3.31,3.31,0,0,0,4.17,0,2.23,2.23,0,0,0,.8-1.67,2.2,2.2,0,0,0-.8-1.67,3.31,3.31,0,0,0-4.17,0Z" transform="translate(0 0)"/><path class="cls-4" d="M97.27,112.33a4.67,4.67,0,0,1,3.07,1.11,3.64,3.64,0,0,1,0,5.64,4.68,4.68,0,0,1-3.07,1.12,4.73,4.73,0,0,1-3.09-1.12,3.65,3.65,0,0,1,0-5.64,4.72,4.72,0,0,1,3.09-1.11Zm-7.12,17.61a.77.77,0,0,1,.77-.76.76.76,0,0,1,.76.76,2.84,2.84,0,0,1-1.09,2.22,4,4,0,0,1-4.92,0,2.87,2.87,0,0,1-1.09-2.22,5,5,0,0,1,1.91-3.84,7.18,7.18,0,0,1,8.86,0,5,5,0,0,1,1.91,3.84,7.15,7.15,0,0,1-2.72,5.49,10.42,10.42,0,0,1-12.81,0A7.14,7.14,0,0,1,79,129.94a9.24,9.24,0,0,1,3.54-7.11,13.6,13.6,0,0,1,16.74,0,9.25,9.25,0,0,1,3.55,7.11.78.78,0,0,1-.77.77.77.77,0,0,1-.76-.77,7.71,7.71,0,0,0-3-5.93,12.09,12.09,0,0,0-14.8,0,7.73,7.73,0,0,0-3,5.93,5.58,5.58,0,0,0,2.17,4.31,8.88,8.88,0,0,0,10.85,0,5.61,5.61,0,0,0,2.17-4.31,3.48,3.48,0,0,0-1.36-2.67,5.69,5.69,0,0,0-6.91,0,3.5,3.5,0,0,0-1.35,2.67,1.37,1.37,0,0,0,.54,1.05,2.38,2.38,0,0,0,1.48.5,2.33,2.33,0,0,0,1.48-.5,1.37,1.37,0,0,0,.54-1.05Zm9.2-15.35a3.31,3.31,0,0,0-4.17,0,2.13,2.13,0,0,0,0,3.34,3.31,3.31,0,0,0,4.17,0,2.14,2.14,0,0,0,0-3.34Z" transform="translate(0 0)"/><path class="cls-4" d="M44.94,20.2A4.68,4.68,0,0,1,48,21.32,3.64,3.64,0,0,1,48,27a4.67,4.67,0,0,1-3.07,1.11A4.72,4.72,0,0,1,41.85,27a3.65,3.65,0,0,1,0-5.64,4.73,4.73,0,0,1,3.09-1.12ZM37.82,37.82a.77.77,0,0,1,.77-.76.76.76,0,0,1,.76.76A2.89,2.89,0,0,1,38.26,40a4,4,0,0,1-4.92,0,2.89,2.89,0,0,1-1.09-2.22A5,5,0,0,1,34.16,34,7.18,7.18,0,0,1,43,34a5,5,0,0,1,1.91,3.85A7.09,7.09,0,0,1,42.2,43.3a10.41,10.41,0,0,1-12.8,0,7.12,7.12,0,0,1-2.72-5.48,9.22,9.22,0,0,1,3.54-7.11,13.6,13.6,0,0,1,16.74,0,9.23,9.23,0,0,1,3.55,7.11.78.78,0,0,1-.77.77.77.77,0,0,1-.76-.77,7.73,7.73,0,0,0-3-5.94,12.09,12.09,0,0,0-14.8,0,7.76,7.76,0,0,0-3,5.94,5.63,5.63,0,0,0,2.17,4.31,8.89,8.89,0,0,0,10.86,0,5.63,5.63,0,0,0,2.17-4.31A3.5,3.5,0,0,0,42,35.14a5.69,5.69,0,0,0-6.91,0,3.52,3.52,0,0,0-1.35,2.68,1.33,1.33,0,0,0,.54,1,2.44,2.44,0,0,0,3,0,1.33,1.33,0,0,0,.54-1ZM47,22.47a3.31,3.31,0,0,0-4.17,0A2.21,2.21,0,0,0,42,24.14a2.24,2.24,0,0,0,.81,1.67,3.31,3.31,0,0,0,4.17,0,2.26,2.26,0,0,0,.8-1.67,2.23,2.23,0,0,0-.8-1.67Z" transform="translate(0 0)"/><path class="cls-4" d="M29,55a4.68,4.68,0,0,1,3.08,1.11,3.64,3.64,0,0,1,0,5.64,4.83,4.83,0,0,1-6.16,0,3.65,3.65,0,0,1,0-5.64A4.72,4.72,0,0,1,29,55ZM21.92,72.56a.77.77,0,0,1,.77-.76.76.76,0,0,1,.76.76,2.87,2.87,0,0,1-1.09,2.22,4,4,0,0,1-4.92,0,2.87,2.87,0,0,1-1.09-2.22,5,5,0,0,1,1.91-3.85,7.22,7.22,0,0,1,8.86,0A5,5,0,0,1,29,72.56a7.16,7.16,0,0,1-2.73,5.49,10.11,10.11,0,0,1-6.4,2.2,10.11,10.11,0,0,1-6.4-2.2,7.15,7.15,0,0,1-2.73-5.49,9.23,9.23,0,0,1,3.55-7.11,13.14,13.14,0,0,1,8.37-2.88,13.14,13.14,0,0,1,8.37,2.88,9.23,9.23,0,0,1,3.55,7.11.78.78,0,0,1-.77.77.77.77,0,0,1-.76-.77,7.7,7.7,0,0,0-3-5.93,11.63,11.63,0,0,0-7.4-2.53,11.63,11.63,0,0,0-7.4,2.53,7.7,7.7,0,0,0-3,5.93,5.61,5.61,0,0,0,2.17,4.31,8.56,8.56,0,0,0,5.43,1.85,8.54,8.54,0,0,0,5.43-1.85,5.61,5.61,0,0,0,2.17-4.31,3.48,3.48,0,0,0-1.36-2.67,5.65,5.65,0,0,0-6.91,0,3.48,3.48,0,0,0-1.36,2.67,1.36,1.36,0,0,0,.54,1,2.35,2.35,0,0,0,1.49.5,2.3,2.3,0,0,0,1.48-.5,1.33,1.33,0,0,0,.54-1Zm9.2-15.35A3.24,3.24,0,0,0,29,56.47a3.19,3.19,0,0,0-2.08.74,2.21,2.21,0,0,0-.81,1.67A2.24,2.24,0,0,0,27,60.55a3.19,3.19,0,0,0,2.08.74,3.24,3.24,0,0,0,2.09-.74,2.26,2.26,0,0,0,.8-1.67,2.23,2.23,0,0,0-.8-1.67Z" transform="translate(0 0)"/><g class="cls-5"><g class="cls-6"><path class="cls-7" d="M119.09,19.6H27.21a9.08,9.08,0,0,0-9.06,9v91.89a9.08,9.08,0,0,0,9.06,9.06h91.88a9.09,9.09,0,0,0,9.06-9.06V28.65A9.08,9.08,0,0,0,119.09,19.6ZM36,125.71H27.18v-9.6H36Zm0-15.44H27.18v-9.59H36Zm0-15.44H27.18V85.24H36ZM36,79.4H27.18V69.8H36ZM36,64H27.18v-9.6H36Zm0-15.44H27.18v-9.6H36Zm0-15.44H27.18v-9.6H36Zm6.67-10.56H103.6v44H42.69ZM103.6,126.68H42.69v-44H103.6Zm15.52-1h-8.84v-9.6h8.84Zm0-15.44h-8.84v-9.59h8.84Zm0-15.44h-8.84V85.24h8.84Zm0-15.43h-8.84V69.8h8.84Zm0-15.44h-8.84v-9.6h8.84Zm0-15.44h-8.84v-9.6h8.84Zm0-15.44h-8.84v-9.6h8.84Z" transform="translate(0 0)"/></g></g><circle class="cls-8" cx="75.02" cy="75" r="66.22" transform="translate(-31.06 75.01) rotate(-45)"/></g></g></svg>