<svg width="149.56" height="149.56" xmlns="http://www.w3.org/2000/svg">
 <defs>
  <style>.cls-1,.cls-8{fill:none;}.cls-2{isolation:isolate;}.cls-3{fill:#27ccbc;}.cls-4{mix-blend-mode:darken;}.cls-5{fill:#21b3a9;opacity:0.25;mix-blend-mode:multiply;}.cls-6{clip-path:url(#clip-path);}.cls-7{fill:#fff;}.cls-8{stroke:#fff;stroke-miterlimit:10;stroke-width:0.58px;}</style>
  <clipPath id="clip-path">
   <circle class="cls-1" cx="74.76" cy="75.22" r="66.01" id="svg_1"/>
  </clipPath>
 </defs>
 <g>
  <title>background</title>
  <rect x="-1" y="-1" width="151.56" height="151.56" id="canvas_background" fill="none"/>
 </g>
 <g>
  <title>Layer 1</title>
  <ellipse fill="#174a73" stroke="#174a73" stroke-width="1.5" cx="74.78" cy="74.93625" id="svg_26" rx="73.59347" ry="73.59347"/>
  <g class="cls-2" id="svg_2">
   <g id="Ic_jurisprudencias">
    <g class="cls-4" id="svg_4">
     <path class="cls-5" d="m36.95,84.565a4.68,4.68 0 0 1 3.07,1.12a3.63,3.63 0 0 1 0,5.62a4.78,4.78 0 0 1 -6.15,0a3.63,3.63 0 0 1 0,-5.62a4.68,4.68 0 0 1 3.08,-1.12zm-7.1,17.62a0.76,0.76 0 0 1 1.52,0a2.83,2.83 0 0 1 -1.09,2.21a3.81,3.81 0 0 1 -2.45,0.85a3.86,3.86 0 0 1 -2.46,-0.85a2.86,2.86 0 0 1 -1.08,-2.21a5,5 0 0 1 1.9,-3.84a7.15,7.15 0 0 1 8.84,0a5,5 0 0 1 1.91,3.84a7.11,7.11 0 0 1 -2.72,5.47a10.38,10.38 0 0 1 -12.78,0a7.1,7.1 0 0 1 -2.72,-5.47a9.22,9.22 0 0 1 3.54,-7.1a13.08,13.08 0 0 1 8.35,-2.9a13.08,13.08 0 0 1 8.41,2.87a9.25,9.25 0 0 1 3.54,7.1a0.77,0.77 0 0 1 -1.54,0.03a7.73,7.73 0 0 0 -3,-6a11.59,11.59 0 0 0 -7.39,-2.52a11.56,11.56 0 0 0 -7.4,2.52a7.7,7.7 0 0 0 -3,5.93a5.6,5.6 0 0 0 2.16,4.3a8.9,8.9 0 0 0 10.84,0a5.6,5.6 0 0 0 2.16,-4.3a3.46,3.46 0 0 0 -1.37,-2.63a5.67,5.67 0 0 0 -6.9,0a3.49,3.49 0 0 0 -1.31,2.7a1.35,1.35 0 0 0 0.54,1a2.44,2.44 0 0 0 3,0a1.38,1.38 0 0 0 0.54,-1l-0.04,0zm9.17,-15.35a3.18,3.18 0 0 0 -2.08,-0.74a3.14,3.14 0 0 0 -2.08,0.74a2.17,2.17 0 0 0 -0.84,1.66a2.24,2.24 0 0 0 0.85,1.69a3.19,3.19 0 0 0 2.08,0.74a3.23,3.23 0 0 0 2.07,-0.74a2.26,2.26 0 0 0 0.8,-1.67a2.19,2.19 0 0 0 -0.8,-1.66l0,-0.02z" id="svg_5"/>
     <path class="cls-5" d="m62.6,109.465a4.68,4.68 0 0 1 3.07,1.12a3.63,3.63 0 0 1 0,5.62a4.78,4.78 0 0 1 -6.15,0a3.63,3.63 0 0 1 0,-5.62a4.68,4.68 0 0 1 3.08,-1.12zm-7.1,17.59a0.76,0.76 0 1 1 1.52,0a2.83,2.83 0 0 1 -1.09,2.21a3.81,3.81 0 0 1 -2.45,0.85a3.86,3.86 0 0 1 -2.46,-0.85a2.86,2.86 0 0 1 -1.08,-2.21a5,5 0 0 1 1.9,-3.84a7.15,7.15 0 0 1 8.84,0a5,5 0 0 1 1.91,3.84a7.11,7.11 0 0 1 -2.72,5.47a10.38,10.38 0 0 1 -12.78,0a7.1,7.1 0 0 1 -2.72,-5.47a9.22,9.22 0 0 1 3.53,-7.1a13.61,13.61 0 0 1 16.72,0a9.23,9.23 0 0 1 3.54,7.1a0.77,0.77 0 0 1 -0.77,0.76a0.76,0.76 0 0 1 -0.76,-0.76a7.73,7.73 0 0 0 -3,-5.93a12.08,12.08 0 0 0 -14.77,0a7.71,7.71 0 0 0 -3,5.93a5.61,5.61 0 0 0 2.17,4.3a8.9,8.9 0 0 0 10.84,0a5.6,5.6 0 0 0 2.16,-4.3a3.49,3.49 0 0 0 -1.35,-2.67a5.67,5.67 0 0 0 -6.9,0a3.49,3.49 0 0 0 -1.35,2.67a1.35,1.35 0 0 0 0.54,1a2.44,2.44 0 0 0 3,0a1.38,1.38 0 0 0 0.54,-1l-0.01,0zm9.18,-15.32a3.27,3.27 0 0 0 -4.17,0a2.19,2.19 0 0 0 -0.8,1.66a2.26,2.26 0 0 0 0.8,1.67a3.31,3.31 0 0 0 4.17,0a2.26,2.26 0 0 0 0.8,-1.67a2.19,2.19 0 0 0 -0.8,-1.66z" id="svg_6"/>
     <path class="cls-5" d="m73.47,12.295a4.72,4.72 0 0 1 3.08,1.11a3.64,3.64 0 0 1 0,5.63a4.72,4.72 0 0 1 -3.08,1.15a4.66,4.66 0 0 1 -3.07,-1.12a3.63,3.63 0 0 1 0,-5.63a4.65,4.65 0 0 1 3.07,-1.11l0,-0.03zm7.1,17.58a1.37,1.37 0 0 0 0.54,1a2.33,2.33 0 0 0 1.48,0.5a2.38,2.38 0 0 0 1.48,-0.5a1.4,1.4 0 0 0 0.54,-1a3.5,3.5 0 0 0 -1.36,-2.69a5.66,5.66 0 0 0 -6.89,0a3.5,3.5 0 0 0 -1.34,2.69a5.61,5.61 0 0 0 2.15,4.31a8.89,8.89 0 0 0 10.85,0a5.61,5.61 0 0 0 2.17,-4.31a7.73,7.73 0 0 0 -3,-5.92a12,12 0 0 0 -14.77,0a7.71,7.71 0 0 0 -3,5.92a0.76,0.76 0 1 1 -1.52,0a9.24,9.24 0 0 1 3.53,-7.1a13.61,13.61 0 0 1 16.72,0a9.22,9.22 0 0 1 3.54,7.1a7.16,7.16 0 0 1 -2.67,5.48a10.39,10.39 0 0 1 -12.79,0a7.16,7.16 0 0 1 -2.72,-5.48a5,5 0 0 1 1.91,-3.84a7.19,7.19 0 0 1 8.84,0a5,5 0 0 1 1.91,3.84a2.87,2.87 0 0 1 -1.15,2.22a4,4 0 0 1 -4.91,0a2.87,2.87 0 0 1 -1.09,-2.22a0.76,0.76 0 0 1 0.76,-0.76a0.77,0.77 0 0 1 0.77,0.76l0.02,0zm-9.18,-15.32a2.13,2.13 0 0 0 0,3.33a3.29,3.29 0 0 0 4.16,0a2.12,2.12 0 0 0 0,-3.33a3.29,3.29 0 0 0 -4.16,0z" id="svg_7"/>
     <path class="cls-5" d="m112.22,88.505a4.67,4.67 0 0 1 3.07,1.11a3.64,3.64 0 0 1 0,5.63a4.78,4.78 0 0 1 -6.15,0a3.64,3.64 0 0 1 0,-5.63a4.68,4.68 0 0 1 3.08,-1.11zm7.09,17.58a1.4,1.4 0 0 0 0.54,1a2.38,2.38 0 0 0 1.48,0.5a2.4,2.4 0 0 0 1.49,-0.5a1.39,1.39 0 0 0 0.53,-1a3.49,3.49 0 0 0 -1.35,-2.67a5.67,5.67 0 0 0 -6.9,0a3.52,3.52 0 0 0 -1.35,2.67a5.6,5.6 0 0 0 2.16,4.31a8.9,8.9 0 0 0 10.84,0a5.61,5.61 0 0 0 2.17,-4.31a7.71,7.71 0 0 0 -3,-5.92a12,12 0 0 0 -14.77,0a7.73,7.73 0 0 0 -3,5.92a0.76,0.76 0 0 1 -0.76,0.77a0.77,0.77 0 0 1 -0.77,-0.77a9.25,9.25 0 0 1 3.54,-7.1a13.61,13.61 0 0 1 16.72,0a9.24,9.24 0 0 1 3.53,7.1a7.13,7.13 0 0 1 -2.72,5.48a10.38,10.38 0 0 1 -12.78,0a7.13,7.13 0 0 1 -2.72,-5.48a5,5 0 0 1 1.91,-3.84a7.19,7.19 0 0 1 8.84,0a5,5 0 0 1 1.91,3.84a2.87,2.87 0 0 1 -1.09,2.22a4,4 0 0 1 -4.91,0a2.87,2.87 0 0 1 -1.09,-2.22a0.76,0.76 0 0 1 1.52,0l0.03,0zm-9.17,-15.32a2.12,2.12 0 0 0 0,3.33a3.29,3.29 0 0 0 4.16,0a2.13,2.13 0 0 0 0,-3.33a3.29,3.29 0 0 0 -4.16,0z" id="svg_8"/>
     <path class="cls-5" d="m121.19,60.615a4.68,4.68 0 0 1 3.08,1.11a3.64,3.64 0 0 1 0,5.63a4.81,4.81 0 0 1 -6.15,0a3.64,3.64 0 0 1 0,-5.63a4.67,4.67 0 0 1 3.07,-1.11zm7.1,17.57a1.36,1.36 0 0 0 0.54,1a2.44,2.44 0 0 0 3,0a1.33,1.33 0 0 0 0.54,-1a3.5,3.5 0 0 0 -1.35,-2.66a5.67,5.67 0 0 0 -6.9,0a3.5,3.5 0 0 0 -1.39,2.66a5.6,5.6 0 0 0 2.16,4.3a8.86,8.86 0 0 0 10.84,0a5.6,5.6 0 0 0 2.16,-4.3a7.72,7.72 0 0 0 -3,-5.93a12.08,12.08 0 0 0 -14.77,0a7.75,7.75 0 0 0 -3,5.93a0.77,0.77 0 0 1 -0.76,0.77a0.78,0.78 0 0 1 -0.77,-0.77a9.25,9.25 0 0 1 3.54,-7.1a13.61,13.61 0 0 1 16.72,0a9.24,9.24 0 0 1 3.57,7.1a7.1,7.1 0 0 1 -2.72,5.47a10.38,10.38 0 0 1 -12.78,0a7.1,7.1 0 0 1 -2.72,-5.47a5,5 0 0 1 1.91,-3.84a7.15,7.15 0 0 1 8.84,0a5,5 0 0 1 1.9,3.84a2.88,2.88 0 0 1 -1.08,2.22a3.92,3.92 0 0 1 -2.46,0.85a3.87,3.87 0 0 1 -2.45,-0.85a2.85,2.85 0 0 1 -1.09,-2.22a0.76,0.76 0 0 1 1.52,0zm-9.18,-15.32a2.13,2.13 0 0 0 0,3.33a3.31,3.31 0 0 0 4.17,0a2.13,2.13 0 0 0 0,-3.33a3.31,3.31 0 0 0 -4.17,0z" id="svg_9"/>
     <path class="cls-5" d="m110.56,26.905a4.72,4.72 0 0 1 3.08,1.12a3.63,3.63 0 0 1 0,5.62a4.79,4.79 0 0 1 -6.16,0a3.63,3.63 0 0 1 0,-5.62a4.7,4.7 0 0 1 3.08,-1.12zm7.1,17.59a1.37,1.37 0 0 0 0.53,1a2.46,2.46 0 0 0 3,0a1.38,1.38 0 0 0 0.54,-1a3.47,3.47 0 0 0 -1.36,-2.67a5.67,5.67 0 0 0 -6.9,0a3.49,3.49 0 0 0 -1.35,2.67a5.61,5.61 0 0 0 2.17,4.3a8.89,8.89 0 0 0 10.83,0a5.61,5.61 0 0 0 2.17,-4.3a7.73,7.73 0 0 0 -3,-5.93a12.1,12.1 0 0 0 -14.78,0a7.73,7.73 0 0 0 -3,5.93a0.76,0.76 0 0 1 -1.52,0a9.22,9.22 0 0 1 3.53,-7.1a13.61,13.61 0 0 1 16.72,0a9.22,9.22 0 0 1 3.53,7.1a7.1,7.1 0 0 1 -2.75,5.47a10.38,10.38 0 0 1 -12.78,0a7.14,7.14 0 0 1 -2.72,-5.47a5,5 0 0 1 1.91,-3.84a7.15,7.15 0 0 1 8.84,0a5,5 0 0 1 1.91,3.84a2.87,2.87 0 0 1 -1.09,2.21a4,4 0 0 1 -4.91,0a2.87,2.87 0 0 1 -1.09,-2.21a0.76,0.76 0 0 1 0.76,-0.76a0.77,0.77 0 0 1 0.77,0.76l0.04,0zm-9.18,-15.31a2.16,2.16 0 0 0 -0.8,1.66a2.23,2.23 0 0 0 0.8,1.67a3.29,3.29 0 0 0 4.16,0a2.23,2.23 0 0 0 0.8,-1.67a2.16,2.16 0 0 0 -0.8,-1.66a3.29,3.29 0 0 0 -4.16,0z" id="svg_10"/>
     <path class="cls-5" d="m98.11,112.875a4.7,4.7 0 0 1 3.08,1.12a3.63,3.63 0 0 1 0,5.62a4.79,4.79 0 0 1 -6.16,0a3.63,3.63 0 0 1 0,-5.62a4.72,4.72 0 0 1 3.08,-1.12zm-7.09,17.58a0.77,0.77 0 0 1 0.77,-0.76a0.77,0.77 0 0 1 0.76,0.76a2.87,2.87 0 0 1 -1.09,2.22a4,4 0 0 1 -4.91,0a2.87,2.87 0 0 1 -1.09,-2.22a5,5 0 0 1 1.91,-3.83a7.15,7.15 0 0 1 8.84,0a5,5 0 0 1 1.91,3.83a7.15,7.15 0 0 1 -2.72,5.48a10.38,10.38 0 0 1 -12.78,0a7.1,7.1 0 0 1 -2.72,-5.48a9.22,9.22 0 0 1 3.53,-7.09a13.61,13.61 0 0 1 16.72,0a9.22,9.22 0 0 1 3.53,7.09a0.76,0.76 0 1 1 -1.52,0a7.73,7.73 0 0 0 -3,-5.92a12.1,12.1 0 0 0 -14.78,0a7.73,7.73 0 0 0 -3,5.92a5.61,5.61 0 0 0 2.17,4.31a8.89,8.89 0 0 0 10.83,0a5.61,5.61 0 0 0 2.17,-4.31a3.52,3.52 0 0 0 -1.35,-2.67a5.71,5.71 0 0 0 -6.9,0a3.5,3.5 0 0 0 -1.28,2.67a1.38,1.38 0 0 0 0.54,1a2.46,2.46 0 0 0 3,0a1.37,1.37 0 0 0 0.53,-1l-0.07,0zm9.17,-15.27a3.29,3.29 0 0 0 -4.17,0a2.13,2.13 0 0 0 0,3.33a3.26,3.26 0 0 0 4.16,0a2.13,2.13 0 0 0 0,-3.33l0.01,0z" id="svg_11"/>
     <path class="cls-5" d="m45.88,20.915a4.68,4.68 0 0 1 3.07,1.12a3.64,3.64 0 0 1 0,5.63a4.81,4.81 0 0 1 -6.15,0a3.64,3.64 0 0 1 0,-5.63a4.68,4.68 0 0 1 3.08,-1.12zm-7.1,17.59a0.76,0.76 0 0 1 1.52,0a2.83,2.83 0 0 1 -1.09,2.21a3.81,3.81 0 0 1 -2.45,0.85a3.86,3.86 0 0 1 -2.46,-0.85a2.86,2.86 0 0 1 -1.08,-2.21a5,5 0 0 1 1.9,-3.84a7.15,7.15 0 0 1 8.84,0a5,5 0 0 1 1.91,3.84a7.11,7.11 0 0 1 -2.72,5.47a10.38,10.38 0 0 1 -12.78,0a7.1,7.1 0 0 1 -2.72,-5.47a9.24,9.24 0 0 1 3.53,-7.1a13.61,13.61 0 0 1 16.72,0a9.25,9.25 0 0 1 3.54,7.1a0.77,0.77 0 0 1 -0.77,0.76a0.76,0.76 0 0 1 -0.76,-0.76a7.73,7.73 0 0 0 -3,-5.93a12.08,12.08 0 0 0 -14.77,0a7.7,7.7 0 0 0 -3,5.93a5.6,5.6 0 0 0 2.16,4.3a8.9,8.9 0 0 0 10.84,0a5.6,5.6 0 0 0 2.16,-4.3a3.49,3.49 0 0 0 -1.28,-2.67a5.67,5.67 0 0 0 -6.9,0a3.49,3.49 0 0 0 -1.35,2.67a1.35,1.35 0 0 0 0.54,1a2.44,2.44 0 0 0 3,0a1.38,1.38 0 0 0 0.54,-1l-0.07,0zm9.18,-15.32a3.31,3.31 0 0 0 -4.17,0a2.19,2.19 0 0 0 -0.8,1.66a2.26,2.26 0 0 0 0.8,1.67a3.31,3.31 0 0 0 4.17,0a2.26,2.26 0 0 0 0.8,-1.67a2.19,2.19 0 0 0 -0.8,-1.66z" id="svg_12"/>
     <path class="cls-5" d="m30.02,55.595a4.7,4.7 0 0 1 3.08,1.12a3.64,3.64 0 0 1 0,5.63a4.83,4.83 0 0 1 -6.16,0a3.64,3.64 0 0 1 0,-5.63a4.72,4.72 0 0 1 3.08,-1.12zm-7.12,17.59a0.77,0.77 0 0 1 0.77,-0.76a0.76,0.76 0 0 1 0.76,0.76a2.87,2.87 0 0 1 -1.09,2.21a4,4 0 0 1 -4.91,0a2.87,2.87 0 0 1 -1.09,-2.21a5,5 0 0 1 1.91,-3.84a7.15,7.15 0 0 1 8.84,0a5,5 0 0 1 1.93,3.84a7.14,7.14 0 0 1 -2.72,5.47a10.07,10.07 0 0 1 -6.4,2.2a10,10 0 0 1 -6.38,-2.2a7.1,7.1 0 0 1 -2.74,-5.47a9.24,9.24 0 0 1 3.53,-7.1a13.18,13.18 0 0 1 8.36,-2.9a13.18,13.18 0 0 1 8.35,2.9a9.24,9.24 0 0 1 3.54,7.1a0.76,0.76 0 1 1 -1.54,0a7.73,7.73 0 0 0 -3,-5.93a11.67,11.67 0 0 0 -7.39,-2.52a11.67,11.67 0 0 0 -7.39,2.52a7.73,7.73 0 0 0 -3,5.93a5.61,5.61 0 0 0 2.17,4.3a8.49,8.49 0 0 0 5.41,1.84a8.5,8.5 0 0 0 5.42,-1.84a5.61,5.61 0 0 0 2.23,-4.3a3.49,3.49 0 0 0 -1.35,-2.67a5.67,5.67 0 0 0 -6.9,0a3.47,3.47 0 0 0 -1.36,2.67a1.38,1.38 0 0 0 0.54,1a2.34,2.34 0 0 0 1.48,0.5a2.28,2.28 0 0 0 1.48,-0.5a1.35,1.35 0 0 0 0.54,-1zm9.18,-15.32a3.29,3.29 0 0 0 -4.16,0a2.16,2.16 0 0 0 -0.8,1.66a2.23,2.23 0 0 0 0.8,1.66a3.29,3.29 0 0 0 4.16,0a2.23,2.23 0 0 0 0.8,-1.67a2.16,2.16 0 0 0 -0.8,-1.66l0,0.01z" id="svg_13"/>
    </g>
    <circle class="cls-8" cx="75.405" cy="75.405" r="66.01" id="svg_25" stroke="null"/>
   </g>
  </g>
  <path fill="#ffffff" stroke-width="null" stroke-opacity="null" d="m61.07354,45.44114c-14.32337,0 -25.6249,13.65326 -25.6249,13.65326s11.30153,13.65503 25.6249,13.65503c10.95417,0 25.6249,-13.65503 25.6249,-13.65503s-14.67073,-13.65326 -25.6249,-13.65326zm0,22.16132c-5.02817,0 -9.12436,-3.81774 -9.12436,-8.50807s4.09619,-8.50807 9.12436,-8.50807s9.12436,3.81951 9.12436,8.50807s-4.09619,8.50807 -9.12436,8.50807zm0,-13.4745c-2.94022,0 -5.32618,2.22304 -5.32618,4.96643c0,2.7434 2.38406,4.96643 5.32618,4.96643c2.94212,0 5.32618,-2.22304 5.32618,-4.96643c0,-2.74163 -2.38406,-4.96643 -5.32618,-4.96643z" id="svg_28" stroke="null"/>
  <path stroke="null" id="svg_16" d="m124.27596,111.16925l-28.00808,-28.36594c3.77319,-6.30133 5.98601,-13.67345 5.98994,-21.57898c-0.00393,-23.05977 -18.44147,-41.73687 -41.19853,-41.74483c-22.76099,0.00796 -41.20639,18.68506 -41.20639,41.74085c0,23.04385 18.4454,41.72095 41.20639,41.72095c7.80972,0 15.08883,-2.24109 21.31067,-6.06249l28.01594,28.36993l13.89006,-14.07948zm-88.70537,-49.9489c0.02358,-14.2586 11.40997,-25.7865 25.48476,-25.81834c14.06693,0.03185 25.46118,11.55974 25.48476,25.81834c-0.02751,14.25064 -11.41783,25.77854 -25.48476,25.81038c-14.07479,-0.03185 -25.46118,-11.55974 -25.48476,-25.81038z" fill-opacity="null" stroke-opacity="null" stroke-width="null" fill="#ffffff"/>
 </g>
</svg>