<svg xmlns="http://www.w3.org/2000/svg" xmlns:xlink="http://www.w3.org/1999/xlink" viewBox="0 0 149.63 149.63"><defs><style>.cls-1,.cls-8{fill:none;}.cls-2{isolation:isolate;}.cls-3{fill:#89c5cd;}.cls-4{fill:#707583;opacity:0.25;mix-blend-mode:multiply;}.cls-5{mix-blend-mode:screen;}.cls-6{clip-path:url(#clip-path);}.cls-7{fill:#fff;}.cls-8{stroke:#fff;stroke-miterlimit:10;stroke-width:0.58px;}</style><clipPath id="clip-path" transform="translate(0 -0.36)"><circle class="cls-1" cx="74.74" cy="75.17" r="66.06" transform="translate(-1.07 1.08) rotate(-0.82)"/></clipPath></defs><g class="cls-2"><g id="Ic_directorio" data-name="Ic directorio"><circle class="cls-3" cx="74.81" cy="74.81" r="74.81"/><path class="cls-4" d="M35.9,84.12A4.67,4.67,0,0,1,39,85.23a3.62,3.62,0,0,1,0,5.62,4.81,4.81,0,0,1-6.15,0,3.65,3.65,0,0,1,0-5.62,4.72,4.72,0,0,1,3.08-1.11Zm-7.09,17.57a.76.76,0,0,1,1.52,0,2.87,2.87,0,0,1-1.09,2.21,4,4,0,0,1-4.9,0,2.87,2.87,0,0,1-1.09-2.21,5,5,0,0,1,1.9-3.84,7.15,7.15,0,0,1,8.84,0,5,5,0,0,1,1.91,3.84,7.16,7.16,0,0,1-2.72,5.47,10.42,10.42,0,0,1-12.78,0,7.13,7.13,0,0,1-2.71-5.47,9.24,9.24,0,0,1,3.53-7.1,13.13,13.13,0,0,1,8.35-2.87,13.13,13.13,0,0,1,8.35,2.87,9.25,9.25,0,0,1,3.54,7.1.77.77,0,0,1-1.53,0,7.67,7.67,0,0,0-3-5.92,11.57,11.57,0,0,0-7.38-2.53,11.57,11.57,0,0,0-7.38,2.53,7.7,7.7,0,0,0-3,5.92A5.57,5.57,0,0,0,21.38,106a8.85,8.85,0,0,0,10.83,0,5.59,5.59,0,0,0,2.16-4.29A3.49,3.49,0,0,0,33,99a5.67,5.67,0,0,0-6.9,0,3.49,3.49,0,0,0-1.35,2.67,1.38,1.38,0,0,0,.54,1,2.44,2.44,0,0,0,3,0,1.38,1.38,0,0,0,.54-1ZM38,86.38a3.29,3.29,0,0,0-4.16,0A2.16,2.16,0,0,0,33,88a2.19,2.19,0,0,0,.8,1.66,3.29,3.29,0,0,0,4.16,0,2.22,2.22,0,0,0,.8-1.66,2.19,2.19,0,0,0-.8-1.66Z" transform="translate(0 -0.36)"/><path class="cls-4" d="M61.53,109a4.65,4.65,0,0,1,3.07,1.11,3.62,3.62,0,0,1,0,5.62,4.77,4.77,0,0,1-6.14,0,3.63,3.63,0,0,1,0-5.62A4.67,4.67,0,0,1,61.53,109Zm-7.09,17.57a.76.76,0,0,1,1.52,0,2.83,2.83,0,0,1-1.09,2.21,4,4,0,0,1-4.9,0,2.87,2.87,0,0,1-1.09-2.21,5,5,0,0,1,1.9-3.84,7.19,7.19,0,0,1,8.84,0,5,5,0,0,1,1.91,3.84A7.14,7.14,0,0,1,58.81,132,10.37,10.37,0,0,1,46,132a7.1,7.1,0,0,1-2.72-5.47,9.24,9.24,0,0,1,3.53-7.1,13.6,13.6,0,0,1,16.71,0,9.24,9.24,0,0,1,3.53,7.1.77.77,0,0,1-1.53,0,7.68,7.68,0,0,0-3-5.92,12,12,0,0,0-14.76,0,7.71,7.71,0,0,0-3,5.92,5.61,5.61,0,0,0,2.17,4.3,8.89,8.89,0,0,0,10.83,0,5.6,5.6,0,0,0,2.16-4.3,3.5,3.5,0,0,0-1.35-2.67,5.67,5.67,0,0,0-6.9,0,3.5,3.5,0,0,0-1.35,2.67,1.36,1.36,0,0,0,.54,1,2.44,2.44,0,0,0,3,0,1.36,1.36,0,0,0,.54-1Zm9.17-15.31a3.29,3.29,0,0,0-4.16,0,2.19,2.19,0,0,0-.8,1.66,2.23,2.23,0,0,0,.8,1.67,3.29,3.29,0,0,0,4.16,0,2.26,2.26,0,0,0,.8-1.67,2.22,2.22,0,0,0-.8-1.66Z" transform="translate(0 -0.36)"/><path class="cls-4" d="M72.4,11.89A4.68,4.68,0,0,1,75.47,13a3.7,3.7,0,0,1,1.33,2.8,3.74,3.74,0,0,1-1.33,2.82,4.8,4.8,0,0,1-6.14,0A3.72,3.72,0,0,1,68,15.81,3.67,3.67,0,0,1,69.33,13a4.66,4.66,0,0,1,3.07-1.12Zm7.09,17.57a1.36,1.36,0,0,0,.54,1,2.44,2.44,0,0,0,3,0,1.36,1.36,0,0,0,.54-1,3.5,3.5,0,0,0-1.36-2.67,5.7,5.7,0,0,0-6.89,0,3.52,3.52,0,0,0-1.35,2.67,5.6,5.6,0,0,0,2.16,4.3,8.89,8.89,0,0,0,10.83,0,5.61,5.61,0,0,0,2.17-4.3,7.73,7.73,0,0,0-3-5.92,12.07,12.07,0,0,0-14.76,0,7.7,7.7,0,0,0-3,5.92.77.77,0,1,1-1.53,0,9.22,9.22,0,0,1,3.53-7.09,13.6,13.6,0,0,1,16.71,0,9.22,9.22,0,0,1,3.53,7.09,7.1,7.1,0,0,1-2.72,5.47,10.37,10.37,0,0,1-12.77,0,7.13,7.13,0,0,1-2.72-5.47,5,5,0,0,1,1.91-3.83,7.15,7.15,0,0,1,8.84,0,5,5,0,0,1,1.9,3.83A2.89,2.89,0,0,1,84,31.68a4,4,0,0,1-4.9,0A2.85,2.85,0,0,1,78,29.46a.76.76,0,0,1,1.52,0ZM70.32,14.15a2.13,2.13,0,0,0,0,3.33,3.29,3.29,0,0,0,4.16,0,2.13,2.13,0,0,0,0-3.33,3.29,3.29,0,0,0-4.16,0Z" transform="translate(0 -0.36)"/><path class="cls-4" d="M111.12,88.05a4.67,4.67,0,0,1,3.07,1.11,3.64,3.64,0,0,1,0,5.63,4.8,4.8,0,0,1-6.14,0,3.63,3.63,0,0,1,0-5.63,4.65,4.65,0,0,1,3.07-1.11Zm7.09,17.57a1.36,1.36,0,0,0,.54,1,2.44,2.44,0,0,0,3,0,1.36,1.36,0,0,0,.54-1A3.52,3.52,0,0,0,120.9,103a5.67,5.67,0,0,0-6.9,0,3.52,3.52,0,0,0-1.35,2.67,5.6,5.6,0,0,0,2.16,4.3,8.89,8.89,0,0,0,10.83,0,5.61,5.61,0,0,0,2.17-4.3,7.71,7.71,0,0,0-3-5.92,12.07,12.07,0,0,0-14.76,0,7.68,7.68,0,0,0-3,5.92.77.77,0,1,1-1.53,0,9.2,9.2,0,0,1,3.53-7.09,13.6,13.6,0,0,1,16.71,0,9.2,9.2,0,0,1,3.53,7.09,7.1,7.1,0,0,1-2.72,5.47,10.37,10.37,0,0,1-12.77,0,7.14,7.14,0,0,1-2.72-5.47,5,5,0,0,1,1.91-3.84,7.19,7.19,0,0,1,8.84,0,5,5,0,0,1,1.9,3.84,2.85,2.85,0,0,1-1.09,2.21,3.92,3.92,0,0,1-4.9,0,2.82,2.82,0,0,1-1.09-2.21.76.76,0,0,1,1.52,0ZM109,90.31a2.13,2.13,0,0,0,0,3.33,3.29,3.29,0,0,0,4.16,0,2.13,2.13,0,0,0,0-3.33,3.29,3.29,0,0,0-4.16,0Z" transform="translate(0 -0.36)"/><path class="cls-4" d="M120.09,60.17a4.72,4.72,0,0,1,3.08,1.12,3.63,3.63,0,0,1,0,5.62,4.81,4.81,0,0,1-6.15,0,3.63,3.63,0,0,1,0-5.62,4.68,4.68,0,0,1,3.07-1.12Zm7.09,17.57a1.38,1.38,0,0,0,.54,1.05,2.44,2.44,0,0,0,3,0,1.38,1.38,0,0,0,.54-1.05,3.48,3.48,0,0,0-1.35-2.66,5.67,5.67,0,0,0-6.9,0,3.48,3.48,0,0,0-1.35,2.66,5.58,5.58,0,0,0,2.17,4.3,8.84,8.84,0,0,0,10.82,0,5.58,5.58,0,0,0,2.17-4.3,7.73,7.73,0,0,0-3-5.92,12.07,12.07,0,0,0-14.76,0,7.73,7.73,0,0,0-3,5.92.77.77,0,1,1-1.53,0,9.24,9.24,0,0,1,3.54-7.09,13.58,13.58,0,0,1,16.7,0,9.2,9.2,0,0,1,3.53,7.09,7.15,7.15,0,0,1-2.71,5.48,10.42,10.42,0,0,1-12.78,0,7.15,7.15,0,0,1-2.71-5.48,5,5,0,0,1,1.9-3.83,7.15,7.15,0,0,1,8.84,0,5,5,0,0,1,1.9,3.83A2.87,2.87,0,0,1,131.65,80a4,4,0,0,1-4.9,0,2.87,2.87,0,0,1-1.09-2.22.76.76,0,1,1,1.52,0ZM118,62.44a2.19,2.19,0,0,0-.8,1.66,2.22,2.22,0,0,0,.8,1.66,3.29,3.29,0,0,0,4.16,0,2.19,2.19,0,0,0,.8-1.66,2.16,2.16,0,0,0-.8-1.66,3.29,3.29,0,0,0-4.16,0Z" transform="translate(0 -0.36)"/><path class="cls-4" d="M109.46,26.5a4.72,4.72,0,0,1,3.08,1.11,3.63,3.63,0,0,1,0,5.62,4.81,4.81,0,0,1-6.15,0,3.63,3.63,0,0,1,0-5.62,4.67,4.67,0,0,1,3.07-1.11Zm7.09,17.57a1.38,1.38,0,0,0,.54,1,2.44,2.44,0,0,0,3,0,1.35,1.35,0,0,0,.54-1,3.49,3.49,0,0,0-1.35-2.67,5.46,5.46,0,0,0-3.45-1.17,5.39,5.39,0,0,0-3.44,1.17A3.47,3.47,0,0,0,111,44.07a5.57,5.57,0,0,0,2.17,4.29,8.84,8.84,0,0,0,10.82,0,5.57,5.57,0,0,0,2.17-4.29,7.73,7.73,0,0,0-3-5.93,12.07,12.07,0,0,0-14.76,0,7.73,7.73,0,0,0-3,5.93.77.77,0,0,1-1.53,0,9.25,9.25,0,0,1,3.54-7.1,13.58,13.58,0,0,1,16.7,0,9.21,9.21,0,0,1,3.53,7.1A7.15,7.15,0,0,1,125,49.54a10.42,10.42,0,0,1-12.78,0,7.15,7.15,0,0,1-2.71-5.47,5,5,0,0,1,1.9-3.84,7.15,7.15,0,0,1,8.84,0,5,5,0,0,1,1.9,3.84A2.87,2.87,0,0,1,121,46.28a4,4,0,0,1-4.9,0A2.87,2.87,0,0,1,115,44.07a.76.76,0,1,1,1.52,0Zm-9.17-15.31a2.19,2.19,0,0,0-.8,1.66,2.22,2.22,0,0,0,.8,1.66,3.18,3.18,0,0,0,2.08.74,3.14,3.14,0,0,0,2.08-.74,2.2,2.2,0,0,0,.81-1.66,2.17,2.17,0,0,0-.81-1.66,3.14,3.14,0,0,0-2.08-.74,3.18,3.18,0,0,0-2.08.74Z" transform="translate(0 -0.36)"/><path class="cls-4" d="M97,112.4a4.7,4.7,0,0,1,3.08,1.12,3.63,3.63,0,0,1,0,5.62,4.81,4.81,0,0,1-6.15,0,3.63,3.63,0,0,1,0-5.62A4.68,4.68,0,0,1,97,112.4ZM89.93,130a.77.77,0,0,1,1.53,0,2.85,2.85,0,0,1-1.1,2.22,4,4,0,0,1-4.9,0A2.87,2.87,0,0,1,84.37,130a5,5,0,0,1,1.91-3.83,7.14,7.14,0,0,1,8.83,0A5,5,0,0,1,97,130a7.13,7.13,0,0,1-2.72,5.48,10.4,10.4,0,0,1-12.77,0A7.13,7.13,0,0,1,78.81,130a9.23,9.23,0,0,1,3.53-7.09,13.6,13.6,0,0,1,16.71,0,9.23,9.23,0,0,1,3.53,7.09.76.76,0,1,1-1.52,0,7.73,7.73,0,0,0-3-5.92,12.07,12.07,0,0,0-14.76,0,7.7,7.7,0,0,0-3,5.92,5.57,5.57,0,0,0,2.16,4.3,8.85,8.85,0,0,0,10.83,0,5.57,5.57,0,0,0,2.16-4.3,3.48,3.48,0,0,0-1.35-2.66,5.66,5.66,0,0,0-6.89,0A3.46,3.46,0,0,0,85.89,130a1.4,1.4,0,0,0,.54,1.05,2.44,2.44,0,0,0,3,0,1.4,1.4,0,0,0,.54-1.05Zm9.17-15.3a3.25,3.25,0,0,0-4.15,0,2.17,2.17,0,0,0-.81,1.66A2.2,2.2,0,0,0,95,118a3.28,3.28,0,0,0,4.15,0,2.19,2.19,0,0,0,.8-1.66,2.16,2.16,0,0,0-.8-1.66Z" transform="translate(0 -0.36)"/><path class="cls-4" d="M44.82,20.51a4.65,4.65,0,0,1,3.07,1.11,3.63,3.63,0,0,1,0,5.63,4.8,4.8,0,0,1-6.14,0,3.64,3.64,0,0,1,0-5.63,4.67,4.67,0,0,1,3.07-1.11ZM37.73,38.08a.77.77,0,0,1,1.53,0,2.86,2.86,0,0,1-1.1,2.22,4,4,0,0,1-4.9,0,2.89,2.89,0,0,1-1.09-2.22,5,5,0,0,1,1.91-3.84,7.17,7.17,0,0,1,8.83,0,5,5,0,0,1,1.91,3.84,7.11,7.11,0,0,1-2.72,5.47,10.37,10.37,0,0,1-12.77,0,7.1,7.1,0,0,1-2.72-5.47A9.2,9.2,0,0,1,30.14,31a13.6,13.6,0,0,1,16.71,0,9.2,9.2,0,0,1,3.53,7.09.76.76,0,1,1-1.52,0,7.73,7.73,0,0,0-3-5.92,12.08,12.08,0,0,0-14.77,0,7.73,7.73,0,0,0-3,5.92,5.61,5.61,0,0,0,2.17,4.3,8.89,8.89,0,0,0,10.83,0,5.6,5.6,0,0,0,2.16-4.3,3.52,3.52,0,0,0-1.35-2.67,5.66,5.66,0,0,0-6.89,0,3.5,3.5,0,0,0-1.36,2.67,1.36,1.36,0,0,0,.54,1,2.44,2.44,0,0,0,3,0,1.36,1.36,0,0,0,.54-1ZM46.9,22.77a3.29,3.29,0,0,0-4.16,0,2.13,2.13,0,0,0,0,3.33,3.29,3.29,0,0,0,4.16,0,2.13,2.13,0,0,0,0-3.33Z" transform="translate(0 -0.36)"/><path class="cls-4" d="M29,55.17A4.67,4.67,0,0,1,32,56.28a3.62,3.62,0,0,1,0,5.62,4.8,4.8,0,0,1-6.14,0,3.63,3.63,0,0,1,0-5.62A4.67,4.67,0,0,1,29,55.17ZM21.87,72.74a.76.76,0,1,1,1.52,0A2.83,2.83,0,0,1,22.3,75a4,4,0,0,1-4.9,0,2.87,2.87,0,0,1-1.09-2.21,5,5,0,0,1,1.9-3.84,7.15,7.15,0,0,1,8.84,0A5,5,0,0,1,29,72.74a7.16,7.16,0,0,1-2.72,5.47,10.07,10.07,0,0,1-6.39,2.19,10.06,10.06,0,0,1-6.38-2.19,7.11,7.11,0,0,1-2.72-5.47,9.24,9.24,0,0,1,3.53-7.1,13.15,13.15,0,0,1,8.35-2.87A13.16,13.16,0,0,1,31,65.64a9.27,9.27,0,0,1,3.53,7.1.77.77,0,0,1-1.53,0,7.68,7.68,0,0,0-3-5.92,11.57,11.57,0,0,0-7.38-2.53,11.59,11.59,0,0,0-7.38,2.53,7.71,7.71,0,0,0-3,5.92A5.61,5.61,0,0,0,14.44,77a8.55,8.55,0,0,0,5.41,1.84A8.58,8.58,0,0,0,25.27,77a5.6,5.6,0,0,0,2.16-4.3,3.49,3.49,0,0,0-1.35-2.67,5.67,5.67,0,0,0-6.9,0,3.49,3.49,0,0,0-1.35,2.67,1.38,1.38,0,0,0,.54,1,2.44,2.44,0,0,0,3,0,1.38,1.38,0,0,0,.54-1ZM31,57.43a3.29,3.29,0,0,0-4.16,0,2.16,2.16,0,0,0-.8,1.66,2.19,2.19,0,0,0,.8,1.66,3.29,3.29,0,0,0,4.16,0,2.22,2.22,0,0,0,.8-1.66,2.19,2.19,0,0,0-.8-1.66Z" transform="translate(0 -0.36)"/><g class="cls-6"><path class="cls-7" d="M48.21,85.07A13.41,13.41,0,1,0,34.8,71.66,13.41,13.41,0,0,0,48.21,85.07Z" transform="translate(0 -0.36)"/><path class="cls-7" d="M68.57,98.94A12.6,12.6,0,0,0,56,86.34H40.44a12.6,12.6,0,0,0-12.6,12.6v6.12H68.57Z" transform="translate(0 -0.36)"/><rect class="cls-7" x="74.2" y="65.02" width="47.43" height="8.09"/><path class="cls-7" d="M131.19,44.46h-45v-13H63.32v13h-45A5.57,5.57,0,0,0,12.72,50v63.25a5.57,5.57,0,0,0,5.57,5.57h112.9a5.57,5.57,0,0,0,5.57-5.57V50A5.57,5.57,0,0,0,131.19,44.46ZM129.27,110H20.21V53.43H129.27Z" transform="translate(0 -0.36)"/><rect class="cls-7" x="74.2" y="77.95" width="47.43" height="3.21"/><rect class="cls-7" x="74.2" y="86.19" width="47.43" height="3.21"/><rect class="cls-7" x="74.2" y="94.43" width="47.43" height="3.21"/></g><circle class="cls-8" cx="74.83" cy="75.17" r="66.06" transform="translate(-1.07 0.72) rotate(-0.82)"/></g></g></svg>